STARTFONT 2.3
FONT -FontForge-Roboto-Book-I-Normal--8-80-72-72-P-43-ISO10646-1
SIZE 8 72 72  2
FONTBOUNDINGBOX 15 10 -6 -2
COMMENT "Generated by fontforge, http://fontforge.sourceforge.net"
COMMENT "Copyright 2011 Google Inc. All Rights Reserved."
STARTPROPERTIES 43
FOUNDRY "FontForge"
FAMILY_NAME "Roboto"
WEIGHT_NAME "Book"
SLANT "I"
SETWIDTH_NAME "Normal"
ADD_STYLE_NAME ""
PIXEL_SIZE 8
POINT_SIZE 80
RESOLUTION_X 72
RESOLUTION_Y 72
SPACING "P"
AVERAGE_WIDTH 43
CHARSET_REGISTRY "ISO10646"
CHARSET_ENCODING "1"
FONTNAME_REGISTRY ""
CHARSET_COLLECTIONS "ISO8859-2 ISO8859-5 ISO8859-7 ISO8859-9 ISO8859-4 ISO10646-1"
BITS_PER_PIXEL 2
FONT_NAME "Roboto-Italic"
FACE_NAME "Roboto Italic"
COPYRIGHT "Copyright 2011 Google Inc. All Rights Reserved."
FONT_VERSION "2.137; 2017"
FONT_ASCENT 6
FONT_DESCENT 2
UNDERLINE_POSITION -1
UNDERLINE_THICKNESS 1
X_HEIGHT 4
CAP_HEIGHT 5
DEFAULT_CHAR 1
RAW_ASCENT 750
RAW_DESCENT 250
ITALIC_ANGLE 4992
NORM_SPACE 2
RELATIVE_WEIGHT 40
RELATIVE_SETWIDTH 50
SUPERSCRIPT_X 0
SUPERSCRIPT_Y 3
SUPERSCRIPT_SIZE 5
SUBSCRIPT_X 0
SUBSCRIPT_Y 1
SUBSCRIPT_SIZE 5
FIGURE_WIDTH 4
AVG_LOWERCASE_WIDTH 42
AVG_UPPERCASE_WIDTH 50
ENDPROPERTIES
CHARS 1296
STARTCHAR glyph1.dup1
ENCODING 0
SWIDTH 0 0
DWIDTH 0 0
BBX 1 1 0 0
BITMAP
00
ENDCHAR
STARTCHAR uni0002
ENCODING 2
SWIDTH 0 0
DWIDTH 0 0
BBX 1 1 0 0
BITMAP
00
ENDCHAR
STARTCHAR uni000D
ENCODING 13
SWIDTH 245 0
DWIDTH 2 0
BBX 1 1 0 0
BITMAP
00
ENDCHAR
STARTCHAR space
ENCODING 32
SWIDTH 245 0
DWIDTH 2 0
BBX 1 1 0 0
BITMAP
00
ENDCHAR
STARTCHAR exclam
ENCODING 33
SWIDTH 254 0
DWIDTH 2 0
BBX 2 6 0 0
BITMAP
10
20
20
50
00
40
ENDCHAR
STARTCHAR quotedbl
ENCODING 34
SWIDTH 314 0
DWIDTH 3 0
BBX 2 2 1 4
BITMAP
A0
50
ENDCHAR
STARTCHAR numbersign
ENCODING 35
SWIDTH 602 0
DWIDTH 5 0
BBX 5 6 0 0
BITMAP
0440
0940
2A40
2600
6A00
5800
ENDCHAR
STARTCHAR dollar
ENCODING 36
SWIDTH 549 0
DWIDTH 4 0
BBX 4 8 0 -1
BITMAP
04
1A
22
24
09
42
69
10
ENDCHAR
STARTCHAR percent
ENCODING 37
SWIDTH 715 0
DWIDTH 6 0
BBX 5 6 0 0
BITMAP
1400
5840
2A00
0540
1640
1280
ENDCHAR
STARTCHAR ampersand
ENCODING 38
SWIDTH 607 0
DWIDTH 5 0
BBX 5 6 0 0
BITMAP
1900
2200
2900
6840
8740
6A00
ENDCHAR
STARTCHAR quotesingle
ENCODING 39
SWIDTH 173 0
DWIDTH 1 0
BBX 2 2 0 4
BITMAP
10
50
ENDCHAR
STARTCHAR parenleft
ENCODING 40
SWIDTH 336 0
DWIDTH 3 0
BBX 3 8 0 -2
BITMAP
18
20
20
50
90
50
50
10
ENDCHAR
STARTCHAR parenright
ENCODING 41
SWIDTH 342 0
DWIDTH 3 0
BBX 3 8 -1 -2
BITMAP
08
08
08
08
08
08
20
50
ENDCHAR
STARTCHAR asterisk
ENCODING 42
SWIDTH 422 0
DWIDTH 3 0
BBX 4 4 0 2
BITMAP
04
69
28
04
ENDCHAR
STARTCHAR plus
ENCODING 43
SWIDTH 554 0
DWIDTH 4 0
BBX 4 5 0 0
BITMAP
08
08
6A
14
10
ENDCHAR
STARTCHAR comma
ENCODING 44
SWIDTH 195 0
DWIDTH 2 0
BBX 2 2 -1 -1
BITMAP
20
50
ENDCHAR
STARTCHAR hyphen
ENCODING 45
SWIDTH 272 0
DWIDTH 2 0
BBX 2 1 0 2
BITMAP
A0
ENDCHAR
STARTCHAR period
ENCODING 46
SWIDTH 260 0
DWIDTH 2 0
BBX 1 1 0 0
BITMAP
80
ENDCHAR
STARTCHAR slash
ENCODING 47
SWIDTH 404 0
DWIDTH 3 0
BBX 4 6 0 0
BITMAP
05
08
14
20
50
80
ENDCHAR
STARTCHAR zero
ENCODING 48
SWIDTH 549 0
DWIDTH 4 0
BBX 4 6 0 0
BITMAP
19
22
52
52
82
69
ENDCHAR
STARTCHAR one
ENCODING 49
SWIDTH 549 0
DWIDTH 4 0
BBX 3 6 1 0
BITMAP
14
A0
20
20
20
50
ENDCHAR
STARTCHAR two
ENCODING 50
SWIDTH 549 0
DWIDTH 4 0
BBX 4 6 0 0
BITMAP
19
62
02
08
20
A9
ENDCHAR
STARTCHAR three
ENCODING 51
SWIDTH 549 0
DWIDTH 4 0
BBX 4 6 0 0
BITMAP
19
22
06
19
42
69
ENDCHAR
STARTCHAR four
ENCODING 52
SWIDTH 549 0
DWIDTH 4 0
BBX 4 6 0 0
BITMAP
02
0A
16
55
AA
08
ENDCHAR
STARTCHAR five
ENCODING 53
SWIDTH 549 0
DWIDTH 4 0
BBX 5 6 0 0
BITMAP
1A40
2000
2900
1200
4200
6900
ENDCHAR
STARTCHAR six
ENCODING 54
SWIDTH 549 0
DWIDTH 4 0
BBX 4 6 0 0
BITMAP
05
24
69
52
52
29
ENDCHAR
STARTCHAR seven
ENCODING 55
SWIDTH 549 0
DWIDTH 4 0
BBX 4 6 1 0
BITMAP
A9
08
14
20
50
80
ENDCHAR
STARTCHAR eight
ENCODING 56
SWIDTH 549 0
DWIDTH 4 0
BBX 4 6 0 0
BITMAP
19
22
26
65
82
69
ENDCHAR
STARTCHAR nine
ENCODING 57
SWIDTH 549 0
DWIDTH 4 0
BBX 4 6 0 0
BITMAP
19
22
52
2A
05
28
ENDCHAR
STARTCHAR colon
ENCODING 58
SWIDTH 239 0
DWIDTH 2 0
BBX 2 4 0 0
BITMAP
10
00
00
80
ENDCHAR
STARTCHAR semicolon
ENCODING 59
SWIDTH 209 0
DWIDTH 2 0
BBX 2 5 0 -1
BITMAP
10
00
00
80
80
ENDCHAR
STARTCHAR less
ENCODING 60
SWIDTH 498 0
DWIDTH 4 0
BBX 4 3 0 1
BITMAP
19
A0
18
ENDCHAR
STARTCHAR equal
ENCODING 61
SWIDTH 537 0
DWIDTH 4 0
BBX 4 3 0 1
BITMAP
2A
14
55
ENDCHAR
STARTCHAR greater
ENCODING 62
SWIDTH 511 0
DWIDTH 4 0
BBX 4 3 0 1
BITMAP
24
0A
64
ENDCHAR
STARTCHAR question
ENCODING 63
SWIDTH 462 0
DWIDTH 4 0
BBX 3 6 1 0
BITMAP
A4
48
24
50
40
40
ENDCHAR
STARTCHAR at
ENCODING 64
SWIDTH 875 0
DWIDTH 7 0
BBX 7 8 0 -2
BITMAP
0190
1414
1288
4884
8884
8AA0
5000
1600
ENDCHAR
STARTCHAR A
ENCODING 65
SWIDTH 637 0
DWIDTH 5 0
BBX 5 6 0 0
BITMAP
0500
0A00
1600
2200
6A40
8140
ENDCHAR
STARTCHAR B
ENCODING 66
SWIDTH 608 0
DWIDTH 5 0
BBX 5 6 0 0
BITMAP
2A00
2180
2640
6600
9240
AA00
ENDCHAR
STARTCHAR C
ENCODING 67
SWIDTH 636 0
DWIDTH 5 0
BBX 5 6 0 0
BITMAP
0A40
2080
5000
5000
5140
2A00
ENDCHAR
STARTCHAR D
ENCODING 68
SWIDTH 641 0
DWIDTH 5 0
BBX 5 6 0 0
BITMAP
2900
2180
2080
5080
9240
A900
ENDCHAR
STARTCHAR E
ENCODING 69
SWIDTH 556 0
DWIDTH 4 0
BBX 5 6 0 0
BITMAP
2A40
2000
2500
6500
9000
A900
ENDCHAR
STARTCHAR F
ENCODING 70
SWIDTH 541 0
DWIDTH 4 0
BBX 5 6 0 0
BITMAP
2A40
2000
2000
6500
9000
8000
ENDCHAR
STARTCHAR G
ENCODING 71
SWIDTH 665 0
DWIDTH 5 0
BBX 5 6 0 0
BITMAP
0A40
2080
5000
5280
5080
2A40
ENDCHAR
STARTCHAR H
ENCODING 72
SWIDTH 696 0
DWIDTH 6 0
BBX 6 6 0 0
BITMAP
2050
2050
2580
6580
9080
8080
ENDCHAR
STARTCHAR I
ENCODING 73
SWIDTH 268 0
DWIDTH 2 0
BBX 2 6 0 0
BITMAP
10
20
20
50
50
80
ENDCHAR
STARTCHAR J
ENCODING 74
SWIDTH 540 0
DWIDTH 4 0
BBX 4 6 0 0
BITMAP
01
02
02
02
46
A8
ENDCHAR
STARTCHAR K
ENCODING 75
SWIDTH 612 0
DWIDTH 5 0
BBX 5 6 0 0
BITMAP
2080
2240
2800
7800
9600
8240
ENDCHAR
STARTCHAR L
ENCODING 76
SWIDTH 526 0
DWIDTH 4 0
BBX 4 6 0 0
BITMAP
20
20
20
50
90
A9
ENDCHAR
STARTCHAR M
ENCODING 77
SWIDTH 851 0
DWIDTH 7 0
BBX 7 6 0 0
BITMAP
2014
3428
2864
58A0
9A20
8620
ENDCHAR
STARTCHAR N
ENCODING 78
SWIDTH 696 0
DWIDTH 6 0
BBX 6 6 0 0
BITMAP
2050
3450
2880
5580
9280
8180
ENDCHAR
STARTCHAR O
ENCODING 79
SWIDTH 671 0
DWIDTH 5 0
BBX 5 6 0 0
BITMAP
0A40
2080
5080
5080
5180
2A00
ENDCHAR
STARTCHAR P
ENCODING 80
SWIDTH 616 0
DWIDTH 5 0
BBX 5 6 0 0
BITMAP
2A40
2080
2080
6A00
9000
8000
ENDCHAR
STARTCHAR Q
ENCODING 81
SWIDTH 671 0
DWIDTH 5 0
BBX 5 7 0 -1
BITMAP
0A40
2080
5080
9080
5180
2A00
0200
ENDCHAR
STARTCHAR R
ENCODING 82
SWIDTH 602 0
DWIDTH 5 0
BBX 5 6 0 0
BITMAP
2A00
2180
2180
6A00
9200
8200
ENDCHAR
STARTCHAR S
ENCODING 83
SWIDTH 580 0
DWIDTH 5 0
BBX 5 6 0 0
BITMAP
1A00
2140
2400
0A00
4200
6A00
ENDCHAR
STARTCHAR T
ENCODING 84
SWIDTH 583 0
DWIDTH 5 0
BBX 5 6 0 0
BITMAP
6A80
0800
0800
0800
1800
1400
ENDCHAR
STARTCHAR U
ENCODING 85
SWIDTH 633 0
DWIDTH 5 0
BBX 5 6 0 0
BITMAP
1040
2080
5080
5080
5140
2A00
ENDCHAR
STARTCHAR V
ENCODING 86
SWIDTH 622 0
DWIDTH 5 0
BBX 5 6 0 0
BITMAP
5040
2080
2240
2200
2900
1800
ENDCHAR
STARTCHAR W
ENCODING 87
SWIDTH 865 0
DWIDTH 7 0
BBX 6 6 1 0
BITMAP
4510
8920
9650
A280
A280
8240
ENDCHAR
STARTCHAR X
ENCODING 88
SWIDTH 612 0
DWIDTH 5 0
BBX 5 6 0 0
BITMAP
2080
2240
1D00
1C00
2600
8200
ENDCHAR
STARTCHAR Y
ENCODING 89
SWIDTH 587 0
DWIDTH 5 0
BBX 4 6 1 0
BITMAP
42
85
98
70
60
50
ENDCHAR
STARTCHAR Z
ENCODING 90
SWIDTH 585 0
DWIDTH 5 0
BBX 5 6 0 0
BITMAP
2A80
0240
0900
1800
6000
EA00
ENDCHAR
STARTCHAR bracketleft
ENCODING 91
SWIDTH 262 0
DWIDTH 2 0
BBX 3 9 0 -2
BITMAP
14
20
20
50
50
80
80
90
40
ENDCHAR
STARTCHAR backslash
ENCODING 92
SWIDTH 402 0
DWIDTH 3 0
BBX 2 7 1 -1
BITMAP
40
80
80
80
50
50
10
ENDCHAR
STARTCHAR bracketright
ENCODING 93
SWIDTH 262 0
DWIDTH 2 0
BBX 3 9 -1 -2
BITMAP
18
08
08
08
18
14
24
60
10
ENDCHAR
STARTCHAR asciicircum
ENCODING 94
SWIDTH 410 0
DWIDTH 3 0
BBX 3 3 0 3
BITMAP
14
28
58
ENDCHAR
STARTCHAR underscore
ENCODING 95
SWIDTH 442 0
DWIDTH 4 0
BBX 4 1 -1 -1
BITMAP
6A
ENDCHAR
STARTCHAR grave
ENCODING 96
SWIDTH 304 0
DWIDTH 2 0
BBX 1 1 1 5
BITMAP
80
ENDCHAR
STARTCHAR a
ENCODING 97
SWIDTH 532 0
DWIDTH 4 0
BBX 4 5 0 0
BITMAP
04
26
1A
86
A9
ENDCHAR
STARTCHAR b
ENCODING 98
SWIDTH 549 0
DWIDTH 4 0
BBX 4 6 0 0
BITMAP
20
24
66
52
82
A9
ENDCHAR
STARTCHAR c
ENCODING 99
SWIDTH 512 0
DWIDTH 4 0
BBX 4 5 0 0
BITMAP
04
26
80
81
69
ENDCHAR
STARTCHAR d
ENCODING 100
SWIDTH 551 0
DWIDTH 4 0
BBX 5 6 0 0
BITMAP
0140
0640
6700
8200
8200
6A00
ENDCHAR
STARTCHAR e
ENCODING 101
SWIDTH 518 0
DWIDTH 4 0
BBX 4 5 0 0
BITMAP
04
26
AA
90
69
ENDCHAR
STARTCHAR f
ENCODING 102
SWIDTH 341 0
DWIDTH 3 0
BBX 3 6 0 0
BITMAP
18
24
64
20
50
50
ENDCHAR
STARTCHAR g
ENCODING 103
SWIDTH 549 0
DWIDTH 4 0
BBX 4 7 0 -2
BITMAP
04
67
82
82
6A
49
64
ENDCHAR
STARTCHAR h
ENCODING 104
SWIDTH 539 0
DWIDTH 4 0
BBX 4 6 0 0
BITMAP
20
24
66
52
82
85
ENDCHAR
STARTCHAR i
ENCODING 105
SWIDTH 240 0
DWIDTH 2 0
BBX 2 6 0 0
BITMAP
10
00
50
50
80
80
ENDCHAR
STARTCHAR j
ENCODING 106
SWIDTH 236 0
DWIDTH 2 0
BBX 3 8 -1 -2
BITMAP
04
00
14
14
20
20
20
90
ENDCHAR
STARTCHAR k
ENCODING 107
SWIDTH 496 0
DWIDTH 4 0
BBX 4 6 0 0
BITMAP
20
21
59
74
98
89
ENDCHAR
STARTCHAR l
ENCODING 108
SWIDTH 240 0
DWIDTH 2 0
BBX 2 6 0 0
BITMAP
20
20
60
50
80
80
ENDCHAR
STARTCHAR m
ENCODING 109
SWIDTH 854 0
DWIDTH 7 0
BBX 7 5 0 0
BITMAP
0410
6764
5214
8220
8520
ENDCHAR
STARTCHAR n
ENCODING 110
SWIDTH 540 0
DWIDTH 4 0
BBX 4 5 0 0
BITMAP
04
66
52
82
85
ENDCHAR
STARTCHAR o
ENCODING 111
SWIDTH 558 0
DWIDTH 4 0
BBX 4 5 0 0
BITMAP
04
26
82
82
69
ENDCHAR
STARTCHAR p
ENCODING 112
SWIDTH 549 0
DWIDTH 4 0
BBX 4 7 0 -2
BITMAP
04
66
52
82
A9
80
40
ENDCHAR
STARTCHAR q
ENCODING 113
SWIDTH 556 0
DWIDTH 4 0
BBX 4 7 0 -2
BITMAP
04
27
82
82
6A
05
04
ENDCHAR
STARTCHAR r
ENCODING 114
SWIDTH 333 0
DWIDTH 3 0
BBX 3 5 0 0
BITMAP
04
64
50
80
80
ENDCHAR
STARTCHAR s
ENCODING 115
SWIDTH 504 0
DWIDTH 4 0
BBX 4 5 0 0
BITMAP
04
66
24
49
68
ENDCHAR
STARTCHAR t
ENCODING 116
SWIDTH 321 0
DWIDTH 3 0
BBX 2 6 0 0
BITMAP
10
20
60
60
50
60
ENDCHAR
STARTCHAR u
ENCODING 117
SWIDTH 539 0
DWIDTH 4 0
BBX 4 4 0 0
BITMAP
52
52
82
69
ENDCHAR
STARTCHAR v
ENCODING 118
SWIDTH 474 0
DWIDTH 4 0
BBX 4 5 0 0
BITMAP
01
52
58
28
20
ENDCHAR
STARTCHAR w
ENCODING 119
SWIDTH 733 0
DWIDTH 6 0
BBX 6 5 0 0
BITMAP
0010
5620
5A50
6680
2240
ENDCHAR
STARTCHAR x
ENCODING 120
SWIDTH 485 0
DWIDTH 4 0
BBX 4 5 0 0
BITMAP
01
25
28
28
88
ENDCHAR
STARTCHAR y
ENCODING 121
SWIDTH 463 0
DWIDTH 4 0
BBX 5 7 -1 -2
BITMAP
0040
1580
1600
0A00
0C00
1800
6000
ENDCHAR
STARTCHAR z
ENCODING 122
SWIDTH 485 0
DWIDTH 4 0
BBX 4 5 0 0
BITMAP
15
1A
18
60
E8
ENDCHAR
STARTCHAR braceleft
ENCODING 123
SWIDTH 333 0
DWIDTH 3 0
BBX 3 8 0 -2
BITMAP
18
20
20
90
60
50
20
10
ENDCHAR
STARTCHAR bar
ENCODING 124
SWIDTH 241 0
DWIDTH 2 0
BBX 2 7 0 -1
BITMAP
10
20
10
50
40
80
80
ENDCHAR
STARTCHAR braceright
ENCODING 125
SWIDTH 333 0
DWIDTH 3 0
BBX 3 7 0 -1
BITMAP
20
20
20
24
60
50
80
ENDCHAR
STARTCHAR asciitilde
ENCODING 126
SWIDTH 664 0
DWIDTH 5 0
BBX 5 2 0 1
BITMAP
6980
0100
ENDCHAR
STARTCHAR uni00A0
ENCODING 160
SWIDTH 245 0
DWIDTH 2 0
BBX 1 1 0 0
BITMAP
00
ENDCHAR
STARTCHAR exclamdown
ENCODING 161
SWIDTH 241 0
DWIDTH 2 0
BBX 2 6 0 -2
BITMAP
10
50
80
80
80
40
ENDCHAR
STARTCHAR cent
ENCODING 162
SWIDTH 535 0
DWIDTH 4 0
BBX 4 6 0 -1
BITMAP
08
26
90
81
69
20
ENDCHAR
STARTCHAR sterling
ENCODING 163
SWIDTH 568 0
DWIDTH 5 0
BBX 5 6 0 0
BITMAP
0A00
2140
2000
7800
6000
AA00
ENDCHAR
STARTCHAR currency
ENCODING 164
SWIDTH 696 0
DWIDTH 6 0
BBX 6 5 0 0
BITMAP
2A90
2080
5080
5080
AA80
ENDCHAR
STARTCHAR yen
ENCODING 165
SWIDTH 514 0
DWIDTH 4 0
BBX 5 6 0 0
BITMAP
1140
2200
2900
6900
6900
2000
ENDCHAR
STARTCHAR brokenbar
ENCODING 166
SWIDTH 237 0
DWIDTH 2 0
BBX 2 7 0 -1
BITMAP
10
20
50
00
80
80
80
ENDCHAR
STARTCHAR section
ENCODING 167
SWIDTH 599 0
DWIDTH 5 0
BBX 5 8 0 -2
BITMAP
1A00
2140
3400
5600
5200
1A00
8200
A900
ENDCHAR
STARTCHAR dieresis
ENCODING 168
SWIDTH 410 0
DWIDTH 3 0
BBX 2 1 1 5
BITMAP
50
ENDCHAR
STARTCHAR copyright
ENCODING 169
SWIDTH 767 0
DWIDTH 6 0
BBX 6 6 0 0
BITMAP
0540
2610
5850
5410
5A50
1540
ENDCHAR
STARTCHAR ordfeminine
ENCODING 170
SWIDTH 438 0
DWIDTH 4 0
BBX 3 4 1 2
BITMAP
60
64
A0
50
ENDCHAR
STARTCHAR guillemotleft
ENCODING 171
SWIDTH 459 0
DWIDTH 4 0
BBX 4 4 0 0
BITMAP
15
58
54
14
ENDCHAR
STARTCHAR logicalnot
ENCODING 172
SWIDTH 541 0
DWIDTH 4 0
BBX 4 2 0 1
BITMAP
6A
01
ENDCHAR
STARTCHAR uni00AD
ENCODING 173
SWIDTH 272 0
DWIDTH 2 0
BBX 2 1 0 2
BITMAP
A0
ENDCHAR
STARTCHAR registered
ENCODING 174
SWIDTH 767 0
DWIDTH 6 0
BBX 6 6 0 0
BITMAP
0540
2550
4950
4A10
5550
2540
ENDCHAR
STARTCHAR macron
ENCODING 175
SWIDTH 449 0
DWIDTH 4 0
BBX 3 1 1 5
BITMAP
A4
ENDCHAR
STARTCHAR degree
ENCODING 176
SWIDTH 367 0
DWIDTH 3 0
BBX 2 2 1 4
BITMAP
50
A0
ENDCHAR
STARTCHAR plusminus
ENCODING 177
SWIDTH 522 0
DWIDTH 4 0
BBX 4 5 0 0
BITMAP
08
59
19
14
69
ENDCHAR
STARTCHAR uni00B2
ENCODING 178
SWIDTH 360 0
DWIDTH 3 0
BBX 3 4 0 2
BITMAP
24
18
20
54
ENDCHAR
STARTCHAR uni00B3
ENCODING 179
SWIDTH 360 0
DWIDTH 3 0
BBX 3 4 0 2
BITMAP
24
18
58
10
ENDCHAR
STARTCHAR acute
ENCODING 180
SWIDTH 309 0
DWIDTH 2 0
BBX 2 1 1 5
BITMAP
90
ENDCHAR
STARTCHAR mu
ENCODING 181
SWIDTH 554 0
DWIDTH 4 0
BBX 4 6 0 -2
BITMAP
62
52
92
A9
80
40
ENDCHAR
STARTCHAR paragraph
ENCODING 182
SWIDTH 479 0
DWIDTH 4 0
BBX 4 6 0 0
BITMAP
19
7E
7D
2D
08
08
ENDCHAR
STARTCHAR periodcentered
ENCODING 183
SWIDTH 257 0
DWIDTH 2 0
BBX 1 1 1 2
BITMAP
40
ENDCHAR
STARTCHAR cedilla
ENCODING 184
SWIDTH 245 0
DWIDTH 2 0
BBX 1 2 0 -2
BITMAP
80
40
ENDCHAR
STARTCHAR uni00B9
ENCODING 185
SWIDTH 360 0
DWIDTH 3 0
BBX 2 4 1 2
BITMAP
50
50
80
40
ENDCHAR
STARTCHAR ordmasculine
ENCODING 186
SWIDTH 445 0
DWIDTH 4 0
BBX 3 4 1 2
BITMAP
60
94
A4
40
ENDCHAR
STARTCHAR guillemotright
ENCODING 187
SWIDTH 459 0
DWIDTH 4 0
BBX 3 4 0 0
BITMAP
14
24
58
50
ENDCHAR
STARTCHAR onequarter
ENCODING 188
SWIDTH 715 0
DWIDTH 6 0
BBX 4 6 1 0
BITMAP
40
81
88
67
5A
46
ENDCHAR
STARTCHAR onehalf
ENCODING 189
SWIDTH 757 0
DWIDTH 6 0
BBX 5 6 1 0
BITMAP
4000
8500
8800
6640
4200
4A00
ENDCHAR
STARTCHAR threequarters
ENCODING 190
SWIDTH 759 0
DWIDTH 6 0
BBX 5 6 1 0
BITMAP
6000
6200
6500
5640
2A40
4640
ENDCHAR
STARTCHAR questiondown
ENCODING 191
SWIDTH 463 0
DWIDTH 4 0
BBX 3 6 0 -2
BITMAP
04
10
60
80
98
50
ENDCHAR
STARTCHAR Agrave
ENCODING 192
SWIDTH 637 0
DWIDTH 5 0
BBX 5 7 0 0
BITMAP
0500
0500
0A00
1600
2200
6A40
8140
ENDCHAR
STARTCHAR Aacute
ENCODING 193
SWIDTH 637 0
DWIDTH 5 0
BBX 5 7 0 0
BITMAP
0200
0500
0A00
1600
2200
6A40
8140
ENDCHAR
STARTCHAR Acircumflex
ENCODING 194
SWIDTH 637 0
DWIDTH 5 0
BBX 5 7 0 0
BITMAP
0600
0500
0A00
1600
2200
6A40
8140
ENDCHAR
STARTCHAR Atilde
ENCODING 195
SWIDTH 637 0
DWIDTH 5 0
BBX 5 7 0 0
BITMAP
0A40
0500
0A00
1600
2200
6A40
8140
ENDCHAR
STARTCHAR Adieresis
ENCODING 196
SWIDTH 637 0
DWIDTH 5 0
BBX 5 7 0 0
BITMAP
0540
0500
0A00
1600
2200
6A40
8140
ENDCHAR
STARTCHAR Aring
ENCODING 197
SWIDTH 637 0
DWIDTH 5 0
BBX 5 8 0 0
BITMAP
0100
0500
0500
0A00
1600
2200
6A40
8140
ENDCHAR
STARTCHAR AE
ENCODING 198
SWIDTH 911 0
DWIDTH 7 0
BBX 8 6 0 0
BITMAP
01A9
0280
0994
2594
6A40
82A4
ENDCHAR
STARTCHAR Ccedilla
ENCODING 199
SWIDTH 636 0
DWIDTH 5 0
BBX 5 8 0 -2
BITMAP
0A40
2080
5000
5000
5140
2A00
0800
1400
ENDCHAR
STARTCHAR Egrave
ENCODING 200
SWIDTH 556 0
DWIDTH 4 0
BBX 5 8 0 0
BITMAP
0400
0400
2A40
2000
2500
6500
9000
A900
ENDCHAR
STARTCHAR Eacute
ENCODING 201
SWIDTH 556 0
DWIDTH 4 0
BBX 5 7 0 0
BITMAP
0200
2A40
2000
2500
6500
9000
A900
ENDCHAR
STARTCHAR Ecircumflex
ENCODING 202
SWIDTH 556 0
DWIDTH 4 0
BBX 5 7 0 0
BITMAP
0500
2A40
2000
2500
6500
9000
A900
ENDCHAR
STARTCHAR Edieresis
ENCODING 203
SWIDTH 556 0
DWIDTH 4 0
BBX 5 7 0 0
BITMAP
0500
2A40
2000
2500
6500
9000
A900
ENDCHAR
STARTCHAR Igrave
ENCODING 204
SWIDTH 268 0
DWIDTH 2 0
BBX 2 7 0 0
BITMAP
20
10
20
20
50
50
80
ENDCHAR
STARTCHAR Iacute
ENCODING 205
SWIDTH 268 0
DWIDTH 2 0
BBX 3 8 0 0
BITMAP
04
14
10
20
20
50
50
80
ENDCHAR
STARTCHAR Icircumflex
ENCODING 206
SWIDTH 268 0
DWIDTH 2 0
BBX 3 7 0 0
BITMAP
14
10
20
20
50
50
80
ENDCHAR
STARTCHAR Idieresis
ENCODING 207
SWIDTH 268 0
DWIDTH 2 0
BBX 3 7 0 0
BITMAP
54
10
20
20
50
50
80
ENDCHAR
STARTCHAR Eth
ENCODING 208
SWIDTH 655 0
DWIDTH 5 0
BBX 5 6 0 0
BITMAP
1A00
2180
6080
A480
5140
A900
ENDCHAR
STARTCHAR Ntilde
ENCODING 209
SWIDTH 696 0
DWIDTH 6 0
BBX 6 7 0 0
BITMAP
0A40
2050
3450
2880
5580
9280
8180
ENDCHAR
STARTCHAR Ograve
ENCODING 210
SWIDTH 671 0
DWIDTH 5 0
BBX 5 7 0 0
BITMAP
0500
0A40
2080
5080
5080
5180
2A00
ENDCHAR
STARTCHAR Oacute
ENCODING 211
SWIDTH 671 0
DWIDTH 5 0
BBX 5 7 0 0
BITMAP
0200
0A40
2080
5080
5080
5180
2A00
ENDCHAR
STARTCHAR Ocircumflex
ENCODING 212
SWIDTH 671 0
DWIDTH 5 0
BBX 5 7 0 0
BITMAP
0640
0A40
2080
5080
5080
5180
2A00
ENDCHAR
STARTCHAR Otilde
ENCODING 213
SWIDTH 671 0
DWIDTH 5 0
BBX 5 7 0 0
BITMAP
0A40
0A40
2080
5080
5080
5180
2A00
ENDCHAR
STARTCHAR Odieresis
ENCODING 214
SWIDTH 671 0
DWIDTH 5 0
BBX 5 7 0 0
BITMAP
0440
0A40
2080
5080
5080
5180
2A00
ENDCHAR
STARTCHAR multiply
ENCODING 215
SWIDTH 521 0
DWIDTH 4 0
BBX 4 3 0 1
BITMAP
26
28
95
ENDCHAR
STARTCHAR Oslash
ENCODING 216
SWIDTH 671 0
DWIDTH 5 0
BBX 6 7 0 -1
BITMAP
0A50
21C0
5280
5880
6580
6A00
4000
ENDCHAR
STARTCHAR Ugrave
ENCODING 217
SWIDTH 633 0
DWIDTH 5 0
BBX 5 7 0 0
BITMAP
0500
1040
2080
5080
5080
5140
2A00
ENDCHAR
STARTCHAR Uacute
ENCODING 218
SWIDTH 633 0
DWIDTH 5 0
BBX 5 7 0 0
BITMAP
0200
1040
2080
5080
5080
5140
2A00
ENDCHAR
STARTCHAR Ucircumflex
ENCODING 219
SWIDTH 633 0
DWIDTH 5 0
BBX 5 7 0 0
BITMAP
0600
1040
2080
5080
5080
5140
2A00
ENDCHAR
STARTCHAR Udieresis
ENCODING 220
SWIDTH 633 0
DWIDTH 5 0
BBX 5 7 0 0
BITMAP
0540
1040
2080
5080
5080
5140
2A00
ENDCHAR
STARTCHAR Yacute
ENCODING 221
SWIDTH 587 0
DWIDTH 5 0
BBX 4 7 1 0
BITMAP
08
42
85
98
70
60
50
ENDCHAR
STARTCHAR Thorn
ENCODING 222
SWIDTH 578 0
DWIDTH 5 0
BBX 5 6 0 0
BITMAP
1000
3900
6240
5240
A900
8000
ENDCHAR
STARTCHAR germandbls
ENCODING 223
SWIDTH 581 0
DWIDTH 5 0
BBX 4 6 0 0
BITMAP
2A
22
55
55
82
9A
ENDCHAR
STARTCHAR agrave
ENCODING 224
SWIDTH 532 0
DWIDTH 4 0
BBX 4 6 0 0
BITMAP
08
04
26
1A
86
A9
ENDCHAR
STARTCHAR aacute
ENCODING 225
SWIDTH 532 0
DWIDTH 4 0
BBX 4 6 0 0
BITMAP
06
04
26
1A
86
A9
ENDCHAR
STARTCHAR acircumflex
ENCODING 226
SWIDTH 532 0
DWIDTH 4 0
BBX 4 6 0 0
BITMAP
09
04
26
1A
86
A9
ENDCHAR
STARTCHAR atilde
ENCODING 227
SWIDTH 532 0
DWIDTH 4 0
BBX 4 6 0 0
BITMAP
1A
04
26
1A
86
A9
ENDCHAR
STARTCHAR adieresis
ENCODING 228
SWIDTH 532 0
DWIDTH 4 0
BBX 4 6 0 0
BITMAP
15
04
26
1A
86
A9
ENDCHAR
STARTCHAR aring
ENCODING 229
SWIDTH 532 0
DWIDTH 4 0
BBX 4 7 0 0
BITMAP
04
05
04
26
1A
86
A9
ENDCHAR
STARTCHAR ae
ENCODING 230
SWIDTH 823 0
DWIDTH 7 0
BBX 7 5 0 0
BITMAP
0440
6760
1BA4
9600
AAA0
ENDCHAR
STARTCHAR ccedilla
ENCODING 231
SWIDTH 512 0
DWIDTH 4 0
BBX 4 7 0 -2
BITMAP
04
26
80
81
69
20
10
ENDCHAR
STARTCHAR egrave
ENCODING 232
SWIDTH 518 0
DWIDTH 4 0
BBX 4 6 0 0
BITMAP
08
04
26
AA
90
69
ENDCHAR
STARTCHAR eacute
ENCODING 233
SWIDTH 518 0
DWIDTH 4 0
BBX 4 6 0 0
BITMAP
05
04
26
AA
90
69
ENDCHAR
STARTCHAR ecircumflex
ENCODING 234
SWIDTH 518 0
DWIDTH 4 0
BBX 4 6 0 0
BITMAP
09
04
26
AA
90
69
ENDCHAR
STARTCHAR edieresis
ENCODING 235
SWIDTH 518 0
DWIDTH 4 0
BBX 4 6 0 0
BITMAP
11
04
26
AA
90
69
ENDCHAR
STARTCHAR igrave
ENCODING 236
SWIDTH 244 0
DWIDTH 2 0
BBX 2 6 0 0
BITMAP
50
10
50
50
80
80
ENDCHAR
STARTCHAR iacute
ENCODING 237
SWIDTH 244 0
DWIDTH 2 0
BBX 3 6 0 0
BITMAP
14
10
50
50
80
80
ENDCHAR
STARTCHAR icircumflex
ENCODING 238
SWIDTH 244 0
DWIDTH 2 0
BBX 3 6 0 0
BITMAP
64
00
50
50
80
80
ENDCHAR
STARTCHAR idieresis
ENCODING 239
SWIDTH 244 0
DWIDTH 2 0
BBX 3 6 0 0
BITMAP
44
00
50
50
80
80
ENDCHAR
STARTCHAR eth
ENCODING 240
SWIDTH 573 0
DWIDTH 5 0
BBX 4 6 0 0
BITMAP
1A
0A
2A
52
92
69
ENDCHAR
STARTCHAR ntilde
ENCODING 241
SWIDTH 540 0
DWIDTH 4 0
BBX 4 6 0 0
BITMAP
1A
14
66
52
82
85
ENDCHAR
STARTCHAR ograve
ENCODING 242
SWIDTH 558 0
DWIDTH 4 0
BBX 4 6 0 0
BITMAP
08
04
26
82
82
69
ENDCHAR
STARTCHAR oacute
ENCODING 243
SWIDTH 558 0
DWIDTH 4 0
BBX 4 6 0 0
BITMAP
05
04
26
82
82
69
ENDCHAR
STARTCHAR ocircumflex
ENCODING 244
SWIDTH 558 0
DWIDTH 4 0
BBX 4 6 0 0
BITMAP
09
04
26
82
82
69
ENDCHAR
STARTCHAR otilde
ENCODING 245
SWIDTH 558 0
DWIDTH 4 0
BBX 4 6 0 0
BITMAP
1A
04
26
82
82
69
ENDCHAR
STARTCHAR odieresis
ENCODING 246
SWIDTH 558 0
DWIDTH 4 0
BBX 4 6 0 0
BITMAP
11
04
26
82
82
69
ENDCHAR
STARTCHAR divide
ENCODING 247
SWIDTH 558 0
DWIDTH 4 0
BBX 4 4 0 1
BITMAP
04
00
6A
10
ENDCHAR
STARTCHAR oslash
ENCODING 248
SWIDTH 554 0
DWIDTH 4 0
BBX 4 6 0 -1
BITMAP
05
2A
86
92
69
40
ENDCHAR
STARTCHAR ugrave
ENCODING 249
SWIDTH 539 0
DWIDTH 4 0
BBX 4 6 0 0
BITMAP
08
00
52
52
82
69
ENDCHAR
STARTCHAR uacute
ENCODING 250
SWIDTH 539 0
DWIDTH 4 0
BBX 4 6 0 0
BITMAP
05
00
52
52
82
69
ENDCHAR
STARTCHAR ucircumflex
ENCODING 251
SWIDTH 539 0
DWIDTH 4 0
BBX 4 6 0 0
BITMAP
09
11
52
52
82
69
ENDCHAR
STARTCHAR udieresis
ENCODING 252
SWIDTH 539 0
DWIDTH 4 0
BBX 4 6 0 0
BITMAP
11
00
52
52
82
69
ENDCHAR
STARTCHAR yacute
ENCODING 253
SWIDTH 463 0
DWIDTH 4 0
BBX 5 8 -1 -2
BITMAP
0140
0040
1580
1600
0A00
0C00
1800
6000
ENDCHAR
STARTCHAR thorn
ENCODING 254
SWIDTH 563 0
DWIDTH 5 0
BBX 4 8 0 -2
BITMAP
20
24
66
52
82
A9
80
40
ENDCHAR
STARTCHAR ydieresis
ENCODING 255
SWIDTH 463 0
DWIDTH 4 0
BBX 5 8 -1 -2
BITMAP
0440
0040
1580
1600
0A00
0C00
1800
6000
ENDCHAR
STARTCHAR Amacron
ENCODING 256
SWIDTH 637 0
DWIDTH 5 0
BBX 5 7 0 0
BITMAP
0A40
0500
0A00
1600
2200
6A40
8140
ENDCHAR
STARTCHAR amacron
ENCODING 257
SWIDTH 532 0
DWIDTH 4 0
BBX 4 6 0 0
BITMAP
1A
04
26
1A
86
A9
ENDCHAR
STARTCHAR Abreve
ENCODING 258
SWIDTH 637 0
DWIDTH 5 0
BBX 5 7 0 0
BITMAP
0640
0500
0A00
1600
2200
6A40
8140
ENDCHAR
STARTCHAR abreve
ENCODING 259
SWIDTH 532 0
DWIDTH 4 0
BBX 4 6 0 0
BITMAP
16
04
26
1A
86
A9
ENDCHAR
STARTCHAR Aogonek
ENCODING 260
SWIDTH 637 0
DWIDTH 5 0
BBX 5 8 0 -2
BITMAP
0500
0A00
1600
2200
6A40
8140
0200
0200
ENDCHAR
STARTCHAR aogonek
ENCODING 261
SWIDTH 532 0
DWIDTH 4 0
BBX 4 7 0 -2
BITMAP
04
26
1A
86
A9
08
08
ENDCHAR
STARTCHAR Cacute
ENCODING 262
SWIDTH 636 0
DWIDTH 5 0
BBX 5 7 0 0
BITMAP
0200
0A40
2080
5000
5000
5140
2A00
ENDCHAR
STARTCHAR cacute
ENCODING 263
SWIDTH 512 0
DWIDTH 4 0
BBX 4 6 0 0
BITMAP
05
04
26
80
81
69
ENDCHAR
STARTCHAR Ccircumflex
ENCODING 264
SWIDTH 636 0
DWIDTH 5 0
BBX 5 8 0 0
BITMAP
0100
0500
0A40
2080
5000
5000
5140
2A00
ENDCHAR
STARTCHAR ccircumflex
ENCODING 265
SWIDTH 512 0
DWIDTH 4 0
BBX 4 6 0 0
BITMAP
19
04
26
80
81
69
ENDCHAR
STARTCHAR Cdotaccent
ENCODING 266
SWIDTH 636 0
DWIDTH 5 0
BBX 5 7 0 0
BITMAP
0100
0A40
2080
5000
5000
5140
2A00
ENDCHAR
STARTCHAR cdotaccent
ENCODING 267
SWIDTH 512 0
DWIDTH 4 0
BBX 4 6 0 0
BITMAP
04
04
26
80
81
69
ENDCHAR
STARTCHAR Ccaron
ENCODING 268
SWIDTH 636 0
DWIDTH 5 0
BBX 5 8 0 0
BITMAP
0400
0600
0A40
2080
5000
5000
5140
2A00
ENDCHAR
STARTCHAR ccaron
ENCODING 269
SWIDTH 512 0
DWIDTH 4 0
BBX 4 6 0 0
BITMAP
19
04
26
80
81
69
ENDCHAR
STARTCHAR Dcaron
ENCODING 270
SWIDTH 641 0
DWIDTH 5 0
BBX 5 7 0 0
BITMAP
0500
2900
2180
2080
5080
9240
A900
ENDCHAR
STARTCHAR dcaron
ENCODING 271
SWIDTH 625 0
DWIDTH 5 0
BBX 6 6 0 0
BITMAP
01A0
0640
6700
8200
8200
6A00
ENDCHAR
STARTCHAR Dcroat
ENCODING 272
SWIDTH 655 0
DWIDTH 5 0
BBX 5 6 0 0
BITMAP
1A00
2180
6080
A480
5140
A900
ENDCHAR
STARTCHAR dcroat
ENCODING 273
SWIDTH 583 0
DWIDTH 5 0
BBX 5 6 0 0
BITMAP
0280
0640
6700
8200
8200
6A00
ENDCHAR
STARTCHAR Emacron
ENCODING 274
SWIDTH 556 0
DWIDTH 4 0
BBX 5 7 0 0
BITMAP
0A40
2A40
2000
2500
6500
9000
A900
ENDCHAR
STARTCHAR emacron
ENCODING 275
SWIDTH 518 0
DWIDTH 4 0
BBX 4 6 0 0
BITMAP
1A
04
26
AA
90
69
ENDCHAR
STARTCHAR Ebreve
ENCODING 276
SWIDTH 556 0
DWIDTH 4 0
BBX 5 7 0 0
BITMAP
0A00
2A40
2000
2500
6500
9000
A900
ENDCHAR
STARTCHAR ebreve
ENCODING 277
SWIDTH 518 0
DWIDTH 4 0
BBX 4 6 0 0
BITMAP
15
04
26
AA
90
69
ENDCHAR
STARTCHAR Edotaccent
ENCODING 278
SWIDTH 556 0
DWIDTH 4 0
BBX 5 7 0 0
BITMAP
0500
2A40
2000
2500
6500
9000
A900
ENDCHAR
STARTCHAR edotaccent
ENCODING 279
SWIDTH 518 0
DWIDTH 4 0
BBX 4 6 0 0
BITMAP
04
04
26
AA
90
69
ENDCHAR
STARTCHAR Eogonek
ENCODING 280
SWIDTH 556 0
DWIDTH 4 0
BBX 5 8 0 -2
BITMAP
2A40
2000
2500
6500
9000
A900
0800
0400
ENDCHAR
STARTCHAR eogonek
ENCODING 281
SWIDTH 518 0
DWIDTH 4 0
BBX 4 7 0 -2
BITMAP
04
26
AA
80
69
14
14
ENDCHAR
STARTCHAR Ecaron
ENCODING 282
SWIDTH 556 0
DWIDTH 4 0
BBX 5 7 0 0
BITMAP
0500
2A40
2000
2500
6500
9000
A900
ENDCHAR
STARTCHAR ecaron
ENCODING 283
SWIDTH 518 0
DWIDTH 4 0
BBX 4 6 0 0
BITMAP
09
04
26
AA
90
69
ENDCHAR
STARTCHAR Gcircumflex
ENCODING 284
SWIDTH 665 0
DWIDTH 5 0
BBX 5 8 0 0
BITMAP
0100
0500
0A40
2080
5000
5280
5080
2A40
ENDCHAR
STARTCHAR gcircumflex
ENCODING 285
SWIDTH 549 0
DWIDTH 4 0
BBX 4 8 0 -2
BITMAP
09
15
67
82
82
6A
49
64
ENDCHAR
STARTCHAR Gbreve
ENCODING 286
SWIDTH 665 0
DWIDTH 5 0
BBX 5 7 0 0
BITMAP
0640
0A40
2080
5000
5280
5080
2A40
ENDCHAR
STARTCHAR gbreve
ENCODING 287
SWIDTH 549 0
DWIDTH 4 0
BBX 4 8 0 -2
BITMAP
15
04
67
82
82
6A
49
64
ENDCHAR
STARTCHAR Gdotaccent
ENCODING 288
SWIDTH 665 0
DWIDTH 5 0
BBX 5 7 0 0
BITMAP
0100
0A40
2080
5000
5280
5080
2A40
ENDCHAR
STARTCHAR gdotaccent
ENCODING 289
SWIDTH 549 0
DWIDTH 4 0
BBX 4 8 0 -2
BITMAP
04
04
67
82
82
6A
49
64
ENDCHAR
STARTCHAR uni0122
ENCODING 290
SWIDTH 665 0
DWIDTH 5 0
BBX 5 8 0 -2
BITMAP
0A40
2080
5000
5280
5080
2A40
0400
1400
ENDCHAR
STARTCHAR uni0123
ENCODING 291
SWIDTH 549 0
DWIDTH 4 0
BBX 4 8 0 -2
BITMAP
08
04
67
82
82
6A
49
64
ENDCHAR
STARTCHAR Hcircumflex
ENCODING 292
SWIDTH 696 0
DWIDTH 6 0
BBX 6 8 0 0
BITMAP
0100
0540
2050
2050
2580
6580
9080
8080
ENDCHAR
STARTCHAR hcircumflex
ENCODING 293
SWIDTH 539 0
DWIDTH 4 0
BBX 4 7 0 0
BITMAP
15
20
24
66
52
82
85
ENDCHAR
STARTCHAR Hbar
ENCODING 294
SWIDTH 684 0
DWIDTH 5 0
BBX 6 6 0 0
BITMAP
2050
7AA0
6580
6580
9080
8180
ENDCHAR
STARTCHAR hbar
ENCODING 295
SWIDTH 553 0
DWIDTH 4 0
BBX 4 6 0 0
BITMAP
64
24
26
52
92
82
ENDCHAR
STARTCHAR Itilde
ENCODING 296
SWIDTH 268 0
DWIDTH 2 0
BBX 3 7 0 0
BITMAP
68
10
20
20
50
50
80
ENDCHAR
STARTCHAR itilde
ENCODING 297
SWIDTH 244 0
DWIDTH 2 0
BBX 3 6 0 0
BITMAP
68
00
50
50
80
80
ENDCHAR
STARTCHAR Imacron
ENCODING 298
SWIDTH 268 0
DWIDTH 2 0
BBX 3 7 0 0
BITMAP
68
10
20
20
50
50
80
ENDCHAR
STARTCHAR imacron
ENCODING 299
SWIDTH 244 0
DWIDTH 2 0
BBX 3 6 0 0
BITMAP
64
00
50
50
80
80
ENDCHAR
STARTCHAR Ibreve
ENCODING 300
SWIDTH 268 0
DWIDTH 2 0
BBX 3 7 0 0
BITMAP
28
10
20
20
50
50
80
ENDCHAR
STARTCHAR ibreve
ENCODING 301
SWIDTH 244 0
DWIDTH 2 0
BBX 3 6 0 0
BITMAP
54
10
50
50
80
80
ENDCHAR
STARTCHAR Iogonek
ENCODING 302
SWIDTH 268 0
DWIDTH 2 0
BBX 3 8 -1 -2
BITMAP
04
08
08
14
14
20
50
50
ENDCHAR
STARTCHAR iogonek
ENCODING 303
SWIDTH 240 0
DWIDTH 2 0
BBX 3 8 -1 -2
BITMAP
04
00
14
14
20
20
50
50
ENDCHAR
STARTCHAR Idotaccent
ENCODING 304
SWIDTH 268 0
DWIDTH 2 0
BBX 2 7 0 0
BITMAP
10
10
20
20
50
50
80
ENDCHAR
STARTCHAR dotlessi
ENCODING 305
SWIDTH 244 0
DWIDTH 2 0
BBX 2 4 0 0
BITMAP
50
50
80
80
ENDCHAR
STARTCHAR IJ
ENCODING 306
SWIDTH 808 0
DWIDTH 6 0
BBX 7 6 0 0
BITMAP
1014
2014
2020
5020
5420
8690
ENDCHAR
STARTCHAR ij
ENCODING 307
SWIDTH 476 0
DWIDTH 4 0
BBX 4 8 0 -2
BITMAP
11
00
55
55
88
88
08
24
ENDCHAR
STARTCHAR Jcircumflex
ENCODING 308
SWIDTH 540 0
DWIDTH 4 0
BBX 5 7 0 0
BITMAP
0280
0100
0200
0200
0200
4600
A800
ENDCHAR
STARTCHAR jcircumflex
ENCODING 309
SWIDTH 249 0
DWIDTH 2 0
BBX 3 8 -1 -2
BITMAP
08
14
08
14
14
20
20
90
ENDCHAR
STARTCHAR uni0136
ENCODING 310
SWIDTH 612 0
DWIDTH 5 0
BBX 5 8 0 -2
BITMAP
2080
2240
2800
7800
9600
8240
1400
1000
ENDCHAR
STARTCHAR uni0137
ENCODING 311
SWIDTH 496 0
DWIDTH 4 0
BBX 4 8 0 -2
BITMAP
20
21
59
74
98
89
20
10
ENDCHAR
STARTCHAR kgreenlandic
ENCODING 312
SWIDTH 544 0
DWIDTH 4 0
BBX 4 4 0 0
BITMAP
56
68
98
85
ENDCHAR
STARTCHAR Lacute
ENCODING 313
SWIDTH 526 0
DWIDTH 4 0
BBX 4 7 0 0
BITMAP
14
20
20
20
50
90
A9
ENDCHAR
STARTCHAR lacute
ENCODING 314
SWIDTH 240 0
DWIDTH 2 0
BBX 3 8 0 0
BITMAP
04
10
20
20
60
50
80
80
ENDCHAR
STARTCHAR uni013B
ENCODING 315
SWIDTH 526 0
DWIDTH 4 0
BBX 4 8 0 -2
BITMAP
20
20
20
50
90
A9
10
20
ENDCHAR
STARTCHAR uni013C
ENCODING 316
SWIDTH 240 0
DWIDTH 2 0
BBX 2 8 0 -2
BITMAP
20
20
60
50
80
80
40
40
ENDCHAR
STARTCHAR Lcaron
ENCODING 317
SWIDTH 526 0
DWIDTH 4 0
BBX 4 6 0 0
BITMAP
21
25
20
50
90
A9
ENDCHAR
STARTCHAR lcaron
ENCODING 318
SWIDTH 313 0
DWIDTH 3 0
BBX 3 6 0 0
BITMAP
28
24
60
50
80
80
ENDCHAR
STARTCHAR Ldot
ENCODING 319
SWIDTH 526 0
DWIDTH 4 0
BBX 4 6 0 0
BITMAP
20
20
24
50
90
A9
ENDCHAR
STARTCHAR ldot
ENCODING 320
SWIDTH 347 0
DWIDTH 3 0
BBX 3 6 0 0
BITMAP
20
20
64
54
80
80
ENDCHAR
STARTCHAR Lslash
ENCODING 321
SWIDTH 527 0
DWIDTH 4 0
BBX 4 6 0 0
BITMAP
20
20
24
90
90
A9
ENDCHAR
STARTCHAR lslash
ENCODING 322
SWIDTH 266 0
DWIDTH 2 0
BBX 2 6 0 0
BITMAP
20
20
20
90
50
80
ENDCHAR
STARTCHAR Nacute
ENCODING 323
SWIDTH 696 0
DWIDTH 6 0
BBX 6 7 0 0
BITMAP
0200
2050
3450
2880
5580
9280
8180
ENDCHAR
STARTCHAR nacute
ENCODING 324
SWIDTH 540 0
DWIDTH 4 0
BBX 4 6 0 0
BITMAP
05
04
66
52
82
85
ENDCHAR
STARTCHAR uni0145
ENCODING 325
SWIDTH 696 0
DWIDTH 6 0
BBX 6 8 0 -2
BITMAP
2050
3450
2880
5580
9280
8180
0400
1400
ENDCHAR
STARTCHAR uni0146
ENCODING 326
SWIDTH 540 0
DWIDTH 4 0
BBX 4 7 0 -2
BITMAP
04
66
52
82
85
10
20
ENDCHAR
STARTCHAR Ncaron
ENCODING 327
SWIDTH 696 0
DWIDTH 6 0
BBX 6 7 0 0
BITMAP
0200
2050
3450
2880
5580
9280
8180
ENDCHAR
STARTCHAR ncaron
ENCODING 328
SWIDTH 540 0
DWIDTH 4 0
BBX 4 6 0 0
BITMAP
09
04
66
52
82
85
ENDCHAR
STARTCHAR napostrophe
ENCODING 329
SWIDTH 540 0
DWIDTH 4 0
BBX 4 6 0 0
BITMAP
50
44
66
52
82
85
ENDCHAR
STARTCHAR Eng
ENCODING 330
SWIDTH 676 0
DWIDTH 5 0
BBX 6 8 0 -2
BITMAP
2050
3490
6880
5580
9280
8240
0140
0600
ENDCHAR
STARTCHAR eng
ENCODING 331
SWIDTH 554 0
DWIDTH 4 0
BBX 4 7 0 -2
BITMAP
04
66
52
82
86
05
18
ENDCHAR
STARTCHAR Omacron
ENCODING 332
SWIDTH 671 0
DWIDTH 5 0
BBX 5 7 0 0
BITMAP
0640
0A40
2080
5080
5080
5180
2A00
ENDCHAR
STARTCHAR omacron
ENCODING 333
SWIDTH 558 0
DWIDTH 4 0
BBX 4 6 0 0
BITMAP
1A
04
26
82
82
69
ENDCHAR
STARTCHAR Obreve
ENCODING 334
SWIDTH 671 0
DWIDTH 5 0
BBX 5 7 0 0
BITMAP
0640
0A40
2080
5080
5080
5180
2A00
ENDCHAR
STARTCHAR obreve
ENCODING 335
SWIDTH 558 0
DWIDTH 4 0
BBX 4 6 0 0
BITMAP
15
04
26
82
82
69
ENDCHAR
STARTCHAR Ohungarumlaut
ENCODING 336
SWIDTH 671 0
DWIDTH 5 0
BBX 5 8 0 0
BITMAP
0100
0680
0A40
2080
5080
5080
5180
2A00
ENDCHAR
STARTCHAR ohungarumlaut
ENCODING 337
SWIDTH 558 0
DWIDTH 4 0
BBX 4 6 0 0
BITMAP
0A
04
26
82
82
69
ENDCHAR
STARTCHAR OE
ENCODING 338
SWIDTH 929 0
DWIDTH 7 0
BBX 8 6 0 0
BITMAP
1AA9
2140
5150
9254
9200
2BA4
ENDCHAR
STARTCHAR oe
ENCODING 339
SWIDTH 885 0
DWIDTH 7 0
BBX 7 5 0 0
BITMAP
0410
2698
92A8
8300
6AA0
ENDCHAR
STARTCHAR Racute
ENCODING 340
SWIDTH 602 0
DWIDTH 5 0
BBX 5 7 0 0
BITMAP
0200
2A00
2180
2180
6A00
9200
8200
ENDCHAR
STARTCHAR racute
ENCODING 341
SWIDTH 333 0
DWIDTH 3 0
BBX 3 6 0 0
BITMAP
08
14
64
50
80
80
ENDCHAR
STARTCHAR uni0156
ENCODING 342
SWIDTH 602 0
DWIDTH 5 0
BBX 5 8 0 -2
BITMAP
2A00
2180
2180
6A00
9200
8200
1000
2000
ENDCHAR
STARTCHAR uni0157
ENCODING 343
SWIDTH 333 0
DWIDTH 3 0
BBX 4 7 -1 -2
BITMAP
01
19
14
20
20
10
50
ENDCHAR
STARTCHAR Rcaron
ENCODING 344
SWIDTH 602 0
DWIDTH 5 0
BBX 5 7 0 0
BITMAP
0500
2A00
2180
2180
6A00
9200
8200
ENDCHAR
STARTCHAR rcaron
ENCODING 345
SWIDTH 333 0
DWIDTH 3 0
BBX 3 6 0 0
BITMAP
28
14
64
50
80
80
ENDCHAR
STARTCHAR Sacute
ENCODING 346
SWIDTH 580 0
DWIDTH 5 0
BBX 5 7 0 0
BITMAP
0200
1A00
2140
2400
0A00
4200
6A00
ENDCHAR
STARTCHAR sacute
ENCODING 347
SWIDTH 504 0
DWIDTH 4 0
BBX 4 6 0 0
BITMAP
05
04
66
24
49
68
ENDCHAR
STARTCHAR Scircumflex
ENCODING 348
SWIDTH 580 0
DWIDTH 5 0
BBX 5 7 0 0
BITMAP
0600
1A00
2140
2400
0A00
4200
6A00
ENDCHAR
STARTCHAR scircumflex
ENCODING 349
SWIDTH 504 0
DWIDTH 4 0
BBX 4 6 0 0
BITMAP
09
14
66
24
49
68
ENDCHAR
STARTCHAR Scedilla
ENCODING 350
SWIDTH 580 0
DWIDTH 5 0
BBX 5 8 0 -2
BITMAP
1A00
2140
2400
0A00
4200
6A00
1400
1400
ENDCHAR
STARTCHAR scedilla
ENCODING 351
SWIDTH 504 0
DWIDTH 4 0
BBX 4 7 0 -2
BITMAP
04
66
24
49
68
14
10
ENDCHAR
STARTCHAR Scaron
ENCODING 352
SWIDTH 580 0
DWIDTH 5 0
BBX 5 7 0 0
BITMAP
0600
1A00
2140
2400
0A00
4200
6A00
ENDCHAR
STARTCHAR scaron
ENCODING 353
SWIDTH 504 0
DWIDTH 4 0
BBX 4 6 0 0
BITMAP
19
04
66
24
49
68
ENDCHAR
STARTCHAR uni0162
ENCODING 354
SWIDTH 583 0
DWIDTH 5 0
BBX 5 8 0 -2
BITMAP
6A80
0800
0800
0800
1800
1400
1400
1400
ENDCHAR
STARTCHAR uni0163
ENCODING 355
SWIDTH 321 0
DWIDTH 3 0
BBX 2 8 0 -2
BITMAP
10
20
60
60
50
60
20
10
ENDCHAR
STARTCHAR Tcaron
ENCODING 356
SWIDTH 583 0
DWIDTH 5 0
BBX 5 7 0 0
BITMAP
0500
6A80
0800
0800
0800
1800
1400
ENDCHAR
STARTCHAR tcaron
ENCODING 357
SWIDTH 341 0
DWIDTH 3 0
BBX 4 7 0 0
BITMAP
01
15
20
60
60
50
60
ENDCHAR
STARTCHAR Tbar
ENCODING 358
SWIDTH 583 0
DWIDTH 5 0
BBX 5 6 0 0
BITMAP
6A80
0800
1D00
0800
1800
1400
ENDCHAR
STARTCHAR tbar
ENCODING 359
SWIDTH 321 0
DWIDTH 3 0
BBX 3 6 0 0
BITMAP
10
20
60
A4
50
60
ENDCHAR
STARTCHAR Utilde
ENCODING 360
SWIDTH 633 0
DWIDTH 5 0
BBX 5 7 0 0
BITMAP
0A40
1040
2080
5080
5080
5140
2A00
ENDCHAR
STARTCHAR utilde
ENCODING 361
SWIDTH 539 0
DWIDTH 4 0
BBX 4 6 0 0
BITMAP
1A
11
52
52
82
69
ENDCHAR
STARTCHAR Umacron
ENCODING 362
SWIDTH 633 0
DWIDTH 5 0
BBX 5 7 0 0
BITMAP
0A40
1040
2080
5080
5080
5140
2A00
ENDCHAR
STARTCHAR umacron
ENCODING 363
SWIDTH 539 0
DWIDTH 4 0
BBX 4 6 0 0
BITMAP
1A
00
52
52
82
69
ENDCHAR
STARTCHAR Ubreve
ENCODING 364
SWIDTH 633 0
DWIDTH 5 0
BBX 5 7 0 0
BITMAP
0A40
1040
2080
5080
5080
5140
2A00
ENDCHAR
STARTCHAR ubreve
ENCODING 365
SWIDTH 539 0
DWIDTH 4 0
BBX 4 6 0 0
BITMAP
16
01
52
52
82
69
ENDCHAR
STARTCHAR Uring
ENCODING 366
SWIDTH 633 0
DWIDTH 5 0
BBX 5 8 0 0
BITMAP
0100
0500
1040
2080
5080
5080
5140
2A00
ENDCHAR
STARTCHAR uring
ENCODING 367
SWIDTH 539 0
DWIDTH 4 0
BBX 4 7 0 0
BITMAP
04
05
00
52
52
82
69
ENDCHAR
STARTCHAR Uhungarumlaut
ENCODING 368
SWIDTH 633 0
DWIDTH 5 0
BBX 5 7 0 0
BITMAP
0640
1040
2080
5080
5080
5140
2A00
ENDCHAR
STARTCHAR uhungarumlaut
ENCODING 369
SWIDTH 539 0
DWIDTH 4 0
BBX 5 6 0 0
BITMAP
0A40
1100
5200
5200
8200
6900
ENDCHAR
STARTCHAR Uogonek
ENCODING 370
SWIDTH 633 0
DWIDTH 5 0
BBX 5 8 0 -2
BITMAP
1040
2080
6080
5080
5140
2A00
0800
0400
ENDCHAR
STARTCHAR uogonek
ENCODING 371
SWIDTH 539 0
DWIDTH 4 0
BBX 4 6 0 -2
BITMAP
52
52
82
69
08
08
ENDCHAR
STARTCHAR Wcircumflex
ENCODING 372
SWIDTH 865 0
DWIDTH 7 0
BBX 6 7 1 0
BITMAP
0600
4510
8920
9650
A280
A280
8240
ENDCHAR
STARTCHAR wcircumflex
ENCODING 373
SWIDTH 733 0
DWIDTH 6 0
BBX 6 6 0 0
BITMAP
0600
0010
5620
5A50
6680
2240
ENDCHAR
STARTCHAR Ycircumflex
ENCODING 374
SWIDTH 587 0
DWIDTH 5 0
BBX 4 7 1 0
BITMAP
28
42
85
98
70
60
50
ENDCHAR
STARTCHAR ycircumflex
ENCODING 375
SWIDTH 463 0
DWIDTH 4 0
BBX 5 8 -1 -2
BITMAP
0600
0040
1580
1600
0A00
0C00
1800
6000
ENDCHAR
STARTCHAR Ydieresis
ENCODING 376
SWIDTH 587 0
DWIDTH 5 0
BBX 4 7 1 0
BITMAP
14
42
85
98
70
60
50
ENDCHAR
STARTCHAR Zacute
ENCODING 377
SWIDTH 585 0
DWIDTH 5 0
BBX 5 7 0 0
BITMAP
0200
2A80
0240
0900
1800
6000
EA00
ENDCHAR
STARTCHAR zacute
ENCODING 378
SWIDTH 485 0
DWIDTH 4 0
BBX 4 6 0 0
BITMAP
05
15
1A
18
60
E8
ENDCHAR
STARTCHAR Zdotaccent
ENCODING 379
SWIDTH 585 0
DWIDTH 5 0
BBX 5 7 0 0
BITMAP
0500
2A80
0240
0900
1800
6000
EA00
ENDCHAR
STARTCHAR zdotaccent
ENCODING 380
SWIDTH 485 0
DWIDTH 4 0
BBX 4 6 0 0
BITMAP
04
15
1A
18
60
E8
ENDCHAR
STARTCHAR Zcaron
ENCODING 381
SWIDTH 585 0
DWIDTH 5 0
BBX 5 7 0 0
BITMAP
0500
2A80
0240
0900
1800
6000
EA00
ENDCHAR
STARTCHAR zcaron
ENCODING 382
SWIDTH 485 0
DWIDTH 4 0
BBX 4 6 0 0
BITMAP
19
15
1A
18
60
E8
ENDCHAR
STARTCHAR longs
ENCODING 383
SWIDTH 245 0
DWIDTH 2 0
BBX 3 6 0 0
BITMAP
28
20
60
50
80
80
ENDCHAR
STARTCHAR uni018F
ENCODING 399
SWIDTH 675 0
DWIDTH 5 0
BBX 5 6 0 0
BITMAP
1A40
0080
0080
AAC0
9180
2A00
ENDCHAR
STARTCHAR florin
ENCODING 402
SWIDTH 334 0
DWIDTH 3 0
BBX 4 8 -1 -2
BITMAP
06
08
19
08
14
14
20
50
ENDCHAR
STARTCHAR Ohorn
ENCODING 416
SWIDTH 670 0
DWIDTH 5 0
BBX 6 6 0 0
BITMAP
0A60
20C0
5080
9080
5140
2A00
ENDCHAR
STARTCHAR ohorn
ENCODING 417
SWIDTH 559 0
DWIDTH 4 0
BBX 5 5 0 0
BITMAP
0440
2740
8200
8200
6900
ENDCHAR
STARTCHAR Uhorn
ENCODING 431
SWIDTH 679 0
DWIDTH 5 0
BBX 7 6 0 0
BITMAP
2054
2090
6080
5080
5140
2A00
ENDCHAR
STARTCHAR uhorn
ENCODING 432
SWIDTH 604 0
DWIDTH 5 0
BBX 5 5 0 0
BITMAP
0040
5240
5200
8200
6900
ENDCHAR
STARTCHAR uni01F0
ENCODING 496
SWIDTH 249 0
DWIDTH 2 0
BBX 4 8 -1 -2
BITMAP
15
04
08
14
14
20
20
90
ENDCHAR
STARTCHAR Aringacute
ENCODING 506
SWIDTH 637 0
DWIDTH 5 0
BBX 5 8 0 0
BITMAP
0100
0100
0600
0A00
1600
2200
6A40
8140
ENDCHAR
STARTCHAR aringacute
ENCODING 507
SWIDTH 532 0
DWIDTH 4 0
BBX 4 7 0 0
BITMAP
01
04
08
26
1A
86
A9
ENDCHAR
STARTCHAR AEacute
ENCODING 508
SWIDTH 911 0
DWIDTH 7 0
BBX 8 7 0 0
BITMAP
0080
01A9
0280
0994
2594
6A40
82A4
ENDCHAR
STARTCHAR aeacute
ENCODING 509
SWIDTH 823 0
DWIDTH 7 0
BBX 7 6 0 0
BITMAP
0180
0440
6760
1BA4
9600
AAA0
ENDCHAR
STARTCHAR Oslashacute
ENCODING 510
SWIDTH 671 0
DWIDTH 5 0
BBX 6 9 0 -1
BITMAP
0040
0100
0A50
21C0
5280
5880
6580
6A00
4000
ENDCHAR
STARTCHAR oslashacute
ENCODING 511
SWIDTH 554 0
DWIDTH 4 0
BBX 4 7 0 -1
BITMAP
05
05
2A
86
92
69
40
ENDCHAR
STARTCHAR uni0218
ENCODING 536
SWIDTH 580 0
DWIDTH 5 0
BBX 5 8 0 -2
BITMAP
1A00
2140
2400
0A00
4200
6A00
1000
2000
ENDCHAR
STARTCHAR uni0219
ENCODING 537
SWIDTH 504 0
DWIDTH 4 0
BBX 4 7 0 -2
BITMAP
04
66
24
49
68
10
20
ENDCHAR
STARTCHAR uni021A
ENCODING 538
SWIDTH 583 0
DWIDTH 5 0
BBX 5 8 0 -2
BITMAP
6A80
0800
0800
0800
1800
1400
1000
2000
ENDCHAR
STARTCHAR uni021B
ENCODING 539
SWIDTH 321 0
DWIDTH 3 0
BBX 2 8 0 -2
BITMAP
10
20
60
60
50
60
10
50
ENDCHAR
STARTCHAR uni0237
ENCODING 567
SWIDTH 249 0
DWIDTH 2 0
BBX 3 6 -1 -2
BITMAP
08
14
14
20
20
90
ENDCHAR
STARTCHAR uni0259
ENCODING 601
SWIDTH 516 0
DWIDTH 4 0
BBX 4 5 0 0
BITMAP
04
16
56
96
68
ENDCHAR
STARTCHAR uni02BC
ENCODING 700
SWIDTH 198 0
DWIDTH 2 0
BBX 2 2 0 4
BITMAP
20
50
ENDCHAR
STARTCHAR circumflex
ENCODING 710
SWIDTH 461 0
DWIDTH 4 0
BBX 2 1 1 5
BITMAP
60
ENDCHAR
STARTCHAR caron
ENCODING 711
SWIDTH 435 0
DWIDTH 3 0
BBX 2 1 1 5
BITMAP
60
ENDCHAR
STARTCHAR uni02C9
ENCODING 713
SWIDTH 449 0
DWIDTH 4 0
BBX 3 1 1 5
BITMAP
A4
ENDCHAR
STARTCHAR breve
ENCODING 728
SWIDTH 418 0
DWIDTH 3 0
BBX 2 1 1 5
BITMAP
A0
ENDCHAR
STARTCHAR dotaccent
ENCODING 729
SWIDTH 240 0
DWIDTH 2 0
BBX 1 1 1 5
BITMAP
40
ENDCHAR
STARTCHAR ring
ENCODING 730
SWIDTH 329 0
DWIDTH 3 0
BBX 2 1 1 5
BITMAP
50
ENDCHAR
STARTCHAR ogonek
ENCODING 731
SWIDTH 267 0
DWIDTH 2 0
BBX 1 2 0 -2
BITMAP
80
80
ENDCHAR
STARTCHAR tilde
ENCODING 732
SWIDTH 462 0
DWIDTH 4 0
BBX 3 1 1 5
BITMAP
A4
ENDCHAR
STARTCHAR hungarumlaut
ENCODING 733
SWIDTH 366 0
DWIDTH 3 0
BBX 3 1 1 5
BITMAP
A4
ENDCHAR
STARTCHAR uni02F3
ENCODING 755
SWIDTH 290 0
DWIDTH 2 0
BBX 1 2 0 -2
BITMAP
40
40
ENDCHAR
STARTCHAR gravecomb
ENCODING 768
SWIDTH 0 0
DWIDTH 0 0
BBX 2 1 -3 5
BITMAP
50
ENDCHAR
STARTCHAR acutecomb
ENCODING 769
SWIDTH 0 0
DWIDTH 0 0
BBX 2 1 -2 5
BITMAP
90
ENDCHAR
STARTCHAR tildecomb
ENCODING 771
SWIDTH 0 0
DWIDTH 0 0
BBX 3 1 -3 5
BITMAP
64
ENDCHAR
STARTCHAR hookabovecomb
ENCODING 777
SWIDTH 0 0
DWIDTH 0 0
BBX 1 2 -2 5
BITMAP
40
80
ENDCHAR
STARTCHAR uni030F
ENCODING 783
SWIDTH 0 0
DWIDTH 0 0
BBX 3 1 -3 5
BITMAP
A4
ENDCHAR
STARTCHAR dotbelowcomb
ENCODING 803
SWIDTH 0 0
DWIDTH 0 0
BBX 1 1 -3 -1
BITMAP
40
ENDCHAR
STARTCHAR tonos
ENCODING 900
SWIDTH 253 0
DWIDTH 2 0
BBX 1 1 1 5
BITMAP
80
ENDCHAR
STARTCHAR dieresistonos
ENCODING 901
SWIDTH 495 0
DWIDTH 4 0
BBX 3 2 1 5
BITMAP
10
54
ENDCHAR
STARTCHAR Alphatonos
ENCODING 902
SWIDTH 637 0
DWIDTH 5 0
BBX 5 6 0 0
BITMAP
2500
0A00
1600
2200
6A40
8140
ENDCHAR
STARTCHAR anoteleia
ENCODING 903
SWIDTH 258 0
DWIDTH 2 0
BBX 1 1 1 2
BITMAP
40
ENDCHAR
STARTCHAR Epsilontonos
ENCODING 904
SWIDTH 556 0
DWIDTH 4 0
BBX 6 6 -1 0
BITMAP
5A90
0800
0940
1940
2400
2A40
ENDCHAR
STARTCHAR Etatonos
ENCODING 905
SWIDTH 696 0
DWIDTH 6 0
BBX 6 7 0 0
BITMAP
4000
6050
2050
2580
6580
9080
8080
ENDCHAR
STARTCHAR Iotatonos
ENCODING 906
SWIDTH 268 0
DWIDTH 2 0
BBX 2 6 0 0
BITMAP
50
20
20
50
50
80
ENDCHAR
STARTCHAR Omicrontonos
ENCODING 908
SWIDTH 681 0
DWIDTH 5 0
BBX 5 6 0 0
BITMAP
5A40
2080
6080
5080
5080
2A00
ENDCHAR
STARTCHAR Upsilontonos
ENCODING 910
SWIDTH 636 0
DWIDTH 5 0
BBX 7 6 -1 0
BITMAP
5814
0920
0680
0240
0200
0200
ENDCHAR
STARTCHAR Omegatonos
ENCODING 911
SWIDTH 659 0
DWIDTH 5 0
BBX 5 6 0 0
BITMAP
5A00
2080
5080
5080
5140
B740
ENDCHAR
STARTCHAR iotadieresistonos
ENCODING 912
SWIDTH 318 0
DWIDTH 3 0
BBX 3 6 0 0
BITMAP
54
00
20
60
50
60
ENDCHAR
STARTCHAR Alpha
ENCODING 913
SWIDTH 637 0
DWIDTH 5 0
BBX 5 6 0 0
BITMAP
0500
0A00
1600
2200
6A40
8140
ENDCHAR
STARTCHAR Beta
ENCODING 914
SWIDTH 608 0
DWIDTH 5 0
BBX 5 6 0 0
BITMAP
2A00
2180
2640
6600
9240
AA00
ENDCHAR
STARTCHAR Gamma
ENCODING 915
SWIDTH 544 0
DWIDTH 4 0
BBX 5 6 0 0
BITMAP
2A40
2000
2000
5000
5000
8000
ENDCHAR
STARTCHAR uni0394
ENCODING 916
SWIDTH 688 0
DWIDTH 6 0
BBX 5 6 0 0
BITMAP
0200
0A00
1600
2140
5080
EA80
ENDCHAR
STARTCHAR Epsilon
ENCODING 917
SWIDTH 556 0
DWIDTH 4 0
BBX 5 6 0 0
BITMAP
2A40
2000
2500
6500
9000
A900
ENDCHAR
STARTCHAR Zeta
ENCODING 918
SWIDTH 585 0
DWIDTH 5 0
BBX 5 6 0 0
BITMAP
2A80
0240
0900
1800
6000
EA00
ENDCHAR
STARTCHAR Eta
ENCODING 919
SWIDTH 696 0
DWIDTH 6 0
BBX 6 6 0 0
BITMAP
2050
2050
2580
6580
9080
8080
ENDCHAR
STARTCHAR Theta
ENCODING 920
SWIDTH 664 0
DWIDTH 5 0
BBX 5 6 0 0
BITMAP
0A40
2080
5480
9580
5180
2A00
ENDCHAR
STARTCHAR Iota
ENCODING 921
SWIDTH 268 0
DWIDTH 2 0
BBX 2 6 0 0
BITMAP
10
20
20
50
50
80
ENDCHAR
STARTCHAR Kappa
ENCODING 922
SWIDTH 612 0
DWIDTH 5 0
BBX 5 6 0 0
BITMAP
2080
2240
2800
7800
9600
8240
ENDCHAR
STARTCHAR Lambda
ENCODING 923
SWIDTH 640 0
DWIDTH 5 0
BBX 5 6 0 0
BITMAP
0500
0A00
1600
2200
5240
8140
ENDCHAR
STARTCHAR Mu
ENCODING 924
SWIDTH 851 0
DWIDTH 7 0
BBX 7 6 0 0
BITMAP
2014
3428
2864
58A0
9A20
8620
ENDCHAR
STARTCHAR Nu
ENCODING 925
SWIDTH 696 0
DWIDTH 6 0
BBX 6 6 0 0
BITMAP
2050
3450
2880
5580
9280
8180
ENDCHAR
STARTCHAR Xi
ENCODING 926
SWIDTH 558 0
DWIDTH 4 0
BBX 5 6 0 0
BITMAP
2A40
0000
1500
1500
0000
A900
ENDCHAR
STARTCHAR Omicron
ENCODING 927
SWIDTH 671 0
DWIDTH 5 0
BBX 5 6 0 0
BITMAP
0A40
2080
5080
5080
5180
2A00
ENDCHAR
STARTCHAR Pi
ENCODING 928
SWIDTH 696 0
DWIDTH 6 0
BBX 6 6 0 0
BITMAP
2A90
2090
2080
5080
5080
8180
ENDCHAR
STARTCHAR Rho
ENCODING 929
SWIDTH 616 0
DWIDTH 5 0
BBX 5 6 0 0
BITMAP
2A40
2080
2080
6A00
9000
8000
ENDCHAR
STARTCHAR Sigma
ENCODING 931
SWIDTH 558 0
DWIDTH 4 0
BBX 5 6 0 0
BITMAP
2A40
2000
1800
1800
6000
E900
ENDCHAR
STARTCHAR Tau
ENCODING 932
SWIDTH 583 0
DWIDTH 5 0
BBX 5 6 0 0
BITMAP
6A80
0800
0800
0800
1800
1400
ENDCHAR
STARTCHAR Upsilon
ENCODING 933
SWIDTH 587 0
DWIDTH 5 0
BBX 4 6 1 0
BITMAP
42
85
98
70
60
50
ENDCHAR
STARTCHAR Phi
ENCODING 934
SWIDTH 699 0
DWIDTH 6 0
BBX 6 6 0 0
BITMAP
0100
1A80
5550
8950
6980
0900
ENDCHAR
STARTCHAR Chi
ENCODING 935
SWIDTH 612 0
DWIDTH 5 0
BBX 5 6 0 0
BITMAP
2080
2240
1D00
1C00
2600
8200
ENDCHAR
STARTCHAR Psi
ENCODING 936
SWIDTH 675 0
DWIDTH 5 0
BBX 6 6 0 0
BITMAP
1110
6550
5590
6980
1D00
0800
ENDCHAR
STARTCHAR uni03A9
ENCODING 937
SWIDTH 649 0
DWIDTH 5 0
BBX 5 6 0 0
BITMAP
1A00
2080
5080
5080
5140
B700
ENDCHAR
STARTCHAR Iotadieresis
ENCODING 938
SWIDTH 268 0
DWIDTH 2 0
BBX 3 7 0 0
BITMAP
54
10
20
20
50
50
80
ENDCHAR
STARTCHAR Upsilondieresis
ENCODING 939
SWIDTH 587 0
DWIDTH 5 0
BBX 4 7 1 0
BITMAP
14
42
85
98
70
60
50
ENDCHAR
STARTCHAR alphatonos
ENCODING 940
SWIDTH 552 0
DWIDTH 4 0
BBX 4 6 0 0
BITMAP
05
04
27
52
82
6A
ENDCHAR
STARTCHAR epsilontonos
ENCODING 941
SWIDTH 527 0
DWIDTH 4 0
BBX 4 6 0 0
BITMAP
04
04
66
64
90
69
ENDCHAR
STARTCHAR etatonos
ENCODING 942
SWIDTH 554 0
DWIDTH 4 0
BBX 4 8 0 -2
BITMAP
04
04
66
52
82
85
05
04
ENDCHAR
STARTCHAR iotatonos
ENCODING 943
SWIDTH 318 0
DWIDTH 3 0
BBX 2 6 0 0
BITMAP
10
10
20
60
50
60
ENDCHAR
STARTCHAR upsilondieresistonos
ENCODING 944
SWIDTH 533 0
DWIDTH 4 0
BBX 4 7 0 0
BITMAP
04
15
11
62
52
52
68
ENDCHAR
STARTCHAR alpha
ENCODING 945
SWIDTH 552 0
DWIDTH 4 0
BBX 4 5 0 0
BITMAP
04
27
52
82
6A
ENDCHAR
STARTCHAR beta
ENCODING 946
SWIDTH 579 0
DWIDTH 5 0
BBX 5 8 0 -2
BITMAP
1A00
2240
6600
5600
9200
A900
8000
4000
ENDCHAR
STARTCHAR gamma
ENCODING 947
SWIDTH 490 0
DWIDTH 4 0
BBX 4 6 0 -2
BITMAP
52
29
28
20
20
10
ENDCHAR
STARTCHAR delta
ENCODING 948
SWIDTH 554 0
DWIDTH 4 0
BBX 4 6 0 0
BITMAP
1A
24
2A
92
82
69
ENDCHAR
STARTCHAR epsilon
ENCODING 949
SWIDTH 527 0
DWIDTH 4 0
BBX 4 5 0 0
BITMAP
04
66
64
90
69
ENDCHAR
STARTCHAR zeta
ENCODING 950
SWIDTH 507 0
DWIDTH 4 0
BBX 4 8 0 -2
BITMAP
2A
05
18
20
50
64
08
04
ENDCHAR
STARTCHAR eta
ENCODING 951
SWIDTH 554 0
DWIDTH 4 0
BBX 4 7 0 -2
BITMAP
04
66
52
82
85
05
04
ENDCHAR
STARTCHAR theta
ENCODING 952
SWIDTH 557 0
DWIDTH 4 0
BBX 4 6 0 0
BITMAP
19
22
52
66
52
69
ENDCHAR
STARTCHAR iota
ENCODING 953
SWIDTH 318 0
DWIDTH 3 0
BBX 2 4 0 0
BITMAP
20
60
50
60
ENDCHAR
STARTCHAR kappa
ENCODING 954
SWIDTH 544 0
DWIDTH 4 0
BBX 4 4 0 0
BITMAP
56
68
98
85
ENDCHAR
STARTCHAR lambda
ENCODING 955
SWIDTH 541 0
DWIDTH 4 0
BBX 4 6 0 0
BITMAP
24
08
18
28
59
86
ENDCHAR
STARTCHAR uni03BC
ENCODING 956
SWIDTH 554 0
DWIDTH 4 0
BBX 4 6 0 -2
BITMAP
62
52
92
A9
80
40
ENDCHAR
STARTCHAR nu
ENCODING 957
SWIDTH 474 0
DWIDTH 4 0
BBX 4 5 0 0
BITMAP
01
52
58
28
20
ENDCHAR
STARTCHAR xi
ENCODING 958
SWIDTH 480 0
DWIDTH 4 0
BBX 4 8 0 -2
BITMAP
1A
20
29
60
80
64
08
04
ENDCHAR
STARTCHAR omicron
ENCODING 959
SWIDTH 558 0
DWIDTH 4 0
BBX 4 5 0 0
BITMAP
04
26
82
82
69
ENDCHAR
STARTCHAR pi
ENCODING 960
SWIDTH 582 0
DWIDTH 5 0
BBX 5 5 0 0
BITMAP
1500
6640
6200
5200
9200
ENDCHAR
STARTCHAR rho
ENCODING 961
SWIDTH 554 0
DWIDTH 4 0
BBX 4 7 0 -2
BITMAP
04
26
52
82
A9
80
40
ENDCHAR
STARTCHAR sigma1
ENCODING 962
SWIDTH 526 0
DWIDTH 4 0
BBX 4 7 0 -2
BITMAP
04
26
90
80
24
08
04
ENDCHAR
STARTCHAR sigma
ENCODING 963
SWIDTH 554 0
DWIDTH 4 0
BBX 5 5 0 0
BITMAP
0500
2640
9200
8200
6900
ENDCHAR
STARTCHAR tau
ENCODING 964
SWIDTH 510 0
DWIDTH 4 0
BBX 3 5 1 0
BITMAP
54
64
50
90
60
ENDCHAR
STARTCHAR upsilon
ENCODING 965
SWIDTH 533 0
DWIDTH 4 0
BBX 4 4 0 0
BITMAP
62
52
52
68
ENDCHAR
STARTCHAR phi
ENCODING 966
SWIDTH 688 0
DWIDTH 6 0
BBX 5 7 0 -2
BITMAP
0100
2680
9880
8880
6E40
0800
1400
ENDCHAR
STARTCHAR chi
ENCODING 967
SWIDTH 485 0
DWIDTH 4 0
BBX 4 6 0 -2
BITMAP
22
19
18
28
58
45
ENDCHAR
STARTCHAR psi
ENCODING 968
SWIDTH 684 0
DWIDTH 5 0
BBX 6 6 0 -2
BITMAP
5580
9890
9880
2E40
0800
1400
ENDCHAR
STARTCHAR omega
ENCODING 969
SWIDTH 803 0
DWIDTH 6 0
BBX 6 5 0 0
BITMAP
1000
2020
5220
8520
6A90
ENDCHAR
STARTCHAR iotadieresis
ENCODING 970
SWIDTH 318 0
DWIDTH 3 0
BBX 3 6 0 0
BITMAP
44
10
20
60
50
60
ENDCHAR
STARTCHAR upsilondieresis
ENCODING 971
SWIDTH 533 0
DWIDTH 4 0
BBX 4 6 0 0
BITMAP
11
11
62
52
52
68
ENDCHAR
STARTCHAR omicrontonos
ENCODING 972
SWIDTH 558 0
DWIDTH 4 0
BBX 4 6 0 0
BITMAP
04
04
26
82
82
69
ENDCHAR
STARTCHAR upsilontonos
ENCODING 973
SWIDTH 533 0
DWIDTH 4 0
BBX 4 6 0 0
BITMAP
08
00
62
52
52
68
ENDCHAR
STARTCHAR omegatonos
ENCODING 974
SWIDTH 803 0
DWIDTH 6 0
BBX 6 6 0 0
BITMAP
0100
1000
2020
5220
8520
6A90
ENDCHAR
STARTCHAR theta1
ENCODING 977
SWIDTH 565 0
DWIDTH 5 0
BBX 5 6 0 0
BITMAP
0A00
1600
1A00
5740
8200
6900
ENDCHAR
STARTCHAR Upsilon1
ENCODING 978
SWIDTH 520 0
DWIDTH 4 0
BBX 5 6 0 0
BITMAP
5140
2200
2900
1800
1400
2000
ENDCHAR
STARTCHAR omega1
ENCODING 982
SWIDTH 766 0
DWIDTH 6 0
BBX 6 5 0 0
BITMAP
1550
6560
5520
8550
6680
ENDCHAR
STARTCHAR uni0400
ENCODING 1024
SWIDTH 556 0
DWIDTH 4 0
BBX 5 8 0 0
BITMAP
0400
0400
2A40
2000
2500
6500
9000
A900
ENDCHAR
STARTCHAR uni0401
ENCODING 1025
SWIDTH 556 0
DWIDTH 4 0
BBX 5 7 0 0
BITMAP
0500
2A40
2000
2500
6500
9000
A900
ENDCHAR
STARTCHAR uni0402
ENCODING 1026
SWIDTH 731 0
DWIDTH 6 0
BBX 6 6 0 0
BITMAP
6A80
0800
0940
1990
1450
2180
ENDCHAR
STARTCHAR uni0403
ENCODING 1027
SWIDTH 544 0
DWIDTH 4 0
BBX 5 7 0 0
BITMAP
0200
2A40
2000
2000
5000
5000
8000
ENDCHAR
STARTCHAR uni0404
ENCODING 1028
SWIDTH 658 0
DWIDTH 5 0
BBX 5 6 0 0
BITMAP
0A40
2080
6400
6500
5140
2A00
ENDCHAR
STARTCHAR uni0405
ENCODING 1029
SWIDTH 580 0
DWIDTH 5 0
BBX 5 6 0 0
BITMAP
1A00
2140
2400
0A00
4200
6A00
ENDCHAR
STARTCHAR uni0406
ENCODING 1030
SWIDTH 268 0
DWIDTH 2 0
BBX 2 6 0 0
BITMAP
10
20
20
50
50
80
ENDCHAR
STARTCHAR uni0407
ENCODING 1031
SWIDTH 268 0
DWIDTH 2 0
BBX 3 7 0 0
BITMAP
54
10
20
20
50
50
80
ENDCHAR
STARTCHAR uni0408
ENCODING 1032
SWIDTH 540 0
DWIDTH 4 0
BBX 4 6 0 0
BITMAP
01
02
02
02
46
A8
ENDCHAR
STARTCHAR uni0409
ENCODING 1033
SWIDTH 1043 0
DWIDTH 8 0
BBX 8 6 0 0
BITMAP
0A90
1480
14A4
2086
2082
91A9
ENDCHAR
STARTCHAR uni040A
ENCODING 1034
SWIDTH 1052 0
DWIDTH 8 0
BBX 8 6 0 0
BITMAP
2050
2090
2594
6596
5082
81E9
ENDCHAR
STARTCHAR uni040B
ENCODING 1035
SWIDTH 793 0
DWIDTH 6 0
BBX 5 6 1 0
BITMAP
AA00
2000
2500
6140
5140
9140
ENDCHAR
STARTCHAR uni040C
ENCODING 1036
SWIDTH 612 0
DWIDTH 5 0
BBX 5 7 0 0
BITMAP
0200
2080
2240
2800
7800
9600
8240
ENDCHAR
STARTCHAR uni040D
ENCODING 1037
SWIDTH 696 0
DWIDTH 6 0
BBX 6 7 0 0
BITMAP
0100
2050
21D0
2280
5880
7480
9180
ENDCHAR
STARTCHAR uni040E
ENCODING 1038
SWIDTH 614 0
DWIDTH 5 0
BBX 5 7 0 0
BITMAP
0A00
2080
2180
2600
1D00
0800
6400
ENDCHAR
STARTCHAR uni040F
ENCODING 1039
SWIDTH 696 0
DWIDTH 6 0
BBX 6 8 0 -2
BITMAP
2050
2090
2080
5080
5080
AA80
0800
0400
ENDCHAR
STARTCHAR uni0410
ENCODING 1040
SWIDTH 637 0
DWIDTH 5 0
BBX 5 6 0 0
BITMAP
0500
0A00
1600
2200
6A40
8140
ENDCHAR
STARTCHAR uni0411
ENCODING 1041
SWIDTH 616 0
DWIDTH 5 0
BBX 5 6 0 0
BITMAP
2A40
2000
6500
6640
9140
AA00
ENDCHAR
STARTCHAR uni0412
ENCODING 1042
SWIDTH 608 0
DWIDTH 5 0
BBX 5 6 0 0
BITMAP
2A00
2180
2640
6600
9240
AA00
ENDCHAR
STARTCHAR uni0413
ENCODING 1043
SWIDTH 544 0
DWIDTH 4 0
BBX 5 6 0 0
BITMAP
2A40
2000
2000
5000
5000
8000
ENDCHAR
STARTCHAR uni0414
ENCODING 1044
SWIDTH 734 0
DWIDTH 6 0
BBX 7 8 -1 -2
BITMAP
02A4
0214
0520
0820
0820
2AB0
5020
4010
ENDCHAR
STARTCHAR uni0415
ENCODING 1045
SWIDTH 556 0
DWIDTH 4 0
BBX 5 6 0 0
BITMAP
2A40
2000
2500
6500
9000
A900
ENDCHAR
STARTCHAR uni0416
ENCODING 1046
SWIDTH 885 0
DWIDTH 7 0
BBX 7 6 0 0
BITMAP
2144
2154
0A60
1B90
6220
8224
ENDCHAR
STARTCHAR uni0417
ENCODING 1047
SWIDTH 580 0
DWIDTH 5 0
BBX 5 6 0 0
BITMAP
1A00
2140
0640
0600
4200
6900
ENDCHAR
STARTCHAR uni0418
ENCODING 1048
SWIDTH 696 0
DWIDTH 6 0
BBX 6 6 0 0
BITMAP
2050
21D0
2280
5880
7480
9180
ENDCHAR
STARTCHAR uni0419
ENCODING 1049
SWIDTH 696 0
DWIDTH 6 0
BBX 6 7 0 0
BITMAP
0640
2050
21D0
2280
5880
7480
9180
ENDCHAR
STARTCHAR uni041A
ENCODING 1050
SWIDTH 628 0
DWIDTH 5 0
BBX 5 6 0 0
BITMAP
2080
2240
2900
6800
5600
8240
ENDCHAR
STARTCHAR uni041B
ENCODING 1051
SWIDTH 691 0
DWIDTH 6 0
BBX 6 6 0 0
BITMAP
0A90
1490
1480
2080
2080
9140
ENDCHAR
STARTCHAR uni041C
ENCODING 1052
SWIDTH 851 0
DWIDTH 7 0
BBX 7 6 0 0
BITMAP
2014
3428
2864
58A0
9A20
8620
ENDCHAR
STARTCHAR uni041D
ENCODING 1053
SWIDTH 696 0
DWIDTH 6 0
BBX 6 6 0 0
BITMAP
2050
2050
2580
6580
9080
8080
ENDCHAR
STARTCHAR uni041E
ENCODING 1054
SWIDTH 671 0
DWIDTH 5 0
BBX 5 6 0 0
BITMAP
0A40
2080
5080
5080
5180
2A00
ENDCHAR
STARTCHAR uni041F
ENCODING 1055
SWIDTH 696 0
DWIDTH 6 0
BBX 6 6 0 0
BITMAP
2A90
2090
2080
5080
5080
8180
ENDCHAR
STARTCHAR uni0420
ENCODING 1056
SWIDTH 616 0
DWIDTH 5 0
BBX 5 6 0 0
BITMAP
2A40
2080
2080
6A00
9000
8000
ENDCHAR
STARTCHAR uni0421
ENCODING 1057
SWIDTH 636 0
DWIDTH 5 0
BBX 5 6 0 0
BITMAP
0A40
2080
5000
5000
5140
2A00
ENDCHAR
STARTCHAR uni0422
ENCODING 1058
SWIDTH 583 0
DWIDTH 5 0
BBX 5 6 0 0
BITMAP
6A80
0800
0800
0800
1800
1400
ENDCHAR
STARTCHAR uni0423
ENCODING 1059
SWIDTH 614 0
DWIDTH 5 0
BBX 5 6 0 0
BITMAP
2080
2180
2600
1D00
0800
6400
ENDCHAR
STARTCHAR uni0424
ENCODING 1060
SWIDTH 753 0
DWIDTH 6 0
BBX 6 6 0 0
BITMAP
0200
2B90
5220
8520
6990
1900
ENDCHAR
STARTCHAR uni0425
ENCODING 1061
SWIDTH 612 0
DWIDTH 5 0
BBX 5 6 0 0
BITMAP
2080
2240
1D00
1C00
2600
8200
ENDCHAR
STARTCHAR uni0426
ENCODING 1062
SWIDTH 713 0
DWIDTH 6 0
BBX 6 8 0 -2
BITMAP
2050
2090
2080
5080
5080
AAC0
0080
0040
ENDCHAR
STARTCHAR uni0427
ENCODING 1063
SWIDTH 668 0
DWIDTH 5 0
BBX 4 6 1 0
BITMAP
81
82
82
AA
06
05
ENDCHAR
STARTCHAR uni0428
ENCODING 1064
SWIDTH 917 0
DWIDTH 7 0
BBX 7 6 0 0
BITMAP
2044
2148
2248
5208
5214
ABA4
ENDCHAR
STARTCHAR uni0429
ENCODING 1065
SWIDTH 944 0
DWIDTH 8 0
BBX 7 8 0 -2
BITMAP
2044
2148
2248
5208
5214
ABA8
0008
0004
ENDCHAR
STARTCHAR uni042A
ENCODING 1066
SWIDTH 740 0
DWIDTH 6 0
BBX 6 6 0 0
BITMAP
6800
0800
1940
1990
2450
2A80
ENDCHAR
STARTCHAR uni042B
ENCODING 1067
SWIDTH 843 0
DWIDTH 7 0
BBX 7 6 0 0
BITMAP
2004
2014
2524
6660
5160
AA20
ENDCHAR
STARTCHAR uni042C
ENCODING 1068
SWIDTH 613 0
DWIDTH 5 0
BBX 5 6 0 0
BITMAP
2000
2000
6500
6640
9140
AA00
ENDCHAR
STARTCHAR uni042D
ENCODING 1069
SWIDTH 658 0
DWIDTH 5 0
BBX 5 6 0 0
BITMAP
1A00
2080
0080
0580
5180
2A00
ENDCHAR
STARTCHAR uni042E
ENCODING 1070
SWIDTH 872 0
DWIDTH 7 0
BBX 7 6 0 0
BITMAP
11A0
2218
2908
6C08
5814
86A0
ENDCHAR
STARTCHAR uni042F
ENCODING 1071
SWIDTH 622 0
DWIDTH 5 0
BBX 5 6 0 0
BITMAP
1A80
2080
2140
2A40
2200
8200
ENDCHAR
STARTCHAR uni0430
ENCODING 1072
SWIDTH 532 0
DWIDTH 4 0
BBX 4 5 0 0
BITMAP
04
26
1A
86
A9
ENDCHAR
STARTCHAR uni0431
ENCODING 1073
SWIDTH 541 0
DWIDTH 4 0
BBX 4 6 0 0
BITMAP
06
24
69
92
82
69
ENDCHAR
STARTCHAR uni0432
ENCODING 1074
SWIDTH 559 0
DWIDTH 4 0
BBX 4 5 0 0
BITMAP
14
66
6A
96
A9
ENDCHAR
STARTCHAR uni0433
ENCODING 1075
SWIDTH 411 0
DWIDTH 3 0
BBX 3 5 0 0
BITMAP
14
64
50
80
80
ENDCHAR
STARTCHAR uni0434
ENCODING 1076
SWIDTH 590 0
DWIDTH 5 0
BBX 5 7 -1 -2
BITMAP
0140
0A80
0880
1880
3AC0
5080
0040
ENDCHAR
STARTCHAR uni0435
ENCODING 1077
SWIDTH 518 0
DWIDTH 4 0
BBX 4 5 0 0
BITMAP
04
26
AA
90
69
ENDCHAR
STARTCHAR uni0436
ENCODING 1078
SWIDTH 747 0
DWIDTH 6 0
BBX 6 5 0 0
BITMAP
0010
2650
2A80
2980
8880
ENDCHAR
STARTCHAR uni0437
ENCODING 1079
SWIDTH 497 0
DWIDTH 4 0
BBX 4 5 0 0
BITMAP
04
66
19
49
A8
ENDCHAR
STARTCHAR uni0438
ENCODING 1080
SWIDTH 564 0
DWIDTH 5 0
BBX 4 4 0 0
BITMAP
53
5A
A2
92
ENDCHAR
STARTCHAR uni0439
ENCODING 1081
SWIDTH 564 0
DWIDTH 5 0
BBX 4 6 0 0
BITMAP
15
05
53
5A
A2
92
ENDCHAR
STARTCHAR uni043A
ENCODING 1082
SWIDTH 528 0
DWIDTH 4 0
BBX 4 4 0 0
BITMAP
56
68
98
85
ENDCHAR
STARTCHAR uni043B
ENCODING 1083
SWIDTH 565 0
DWIDTH 5 0
BBX 4 5 0 0
BITMAP
05
26
22
22
82
ENDCHAR
STARTCHAR uni043C
ENCODING 1084
SWIDTH 724 0
DWIDTH 6 0
BBX 6 5 0 0
BITMAP
1000
7090
6590
9A80
8880
ENDCHAR
STARTCHAR uni043D
ENCODING 1085
SWIDTH 564 0
DWIDTH 5 0
BBX 4 4 0 0
BITMAP
52
66
96
82
ENDCHAR
STARTCHAR uni043E
ENCODING 1086
SWIDTH 558 0
DWIDTH 4 0
BBX 4 5 0 0
BITMAP
04
26
82
82
69
ENDCHAR
STARTCHAR uni043F
ENCODING 1087
SWIDTH 564 0
DWIDTH 5 0
BBX 4 5 0 0
BITMAP
15
66
52
82
82
ENDCHAR
STARTCHAR uni0440
ENCODING 1088
SWIDTH 549 0
DWIDTH 4 0
BBX 4 7 0 -2
BITMAP
04
66
52
82
A9
80
40
ENDCHAR
STARTCHAR uni0441
ENCODING 1089
SWIDTH 512 0
DWIDTH 4 0
BBX 4 5 0 0
BITMAP
04
26
80
81
69
ENDCHAR
STARTCHAR uni0442
ENCODING 1090
SWIDTH 470 0
DWIDTH 4 0
BBX 4 5 0 0
BITMAP
15
69
14
20
20
ENDCHAR
STARTCHAR uni0443
ENCODING 1091
SWIDTH 463 0
DWIDTH 4 0
BBX 5 7 -1 -2
BITMAP
0040
1580
1600
0A00
0C00
1800
6000
ENDCHAR
STARTCHAR uni0444
ENCODING 1092
SWIDTH 708 0
DWIDTH 6 0
BBX 6 8 0 -2
BITMAP
0200
0600
6A80
8950
8880
6E80
0800
0400
ENDCHAR
STARTCHAR uni0445
ENCODING 1093
SWIDTH 485 0
DWIDTH 4 0
BBX 4 5 0 0
BITMAP
01
25
28
28
88
ENDCHAR
STARTCHAR uni0446
ENCODING 1094
SWIDTH 579 0
DWIDTH 5 0
BBX 4 5 0 -1
BITMAP
52
52
82
AB
02
ENDCHAR
STARTCHAR uni0447
ENCODING 1095
SWIDTH 532 0
DWIDTH 4 0
BBX 4 4 0 0
BITMAP
52
52
1A
05
ENDCHAR
STARTCHAR uni0448
ENCODING 1096
SWIDTH 789 0
DWIDTH 6 0
BBX 6 4 0 0
BITMAP
5220
5620
8520
AA90
ENDCHAR
STARTCHAR uni0449
ENCODING 1097
SWIDTH 807 0
DWIDTH 6 0
BBX 6 5 0 -1
BITMAP
5220
5520
8560
AAA0
0020
ENDCHAR
STARTCHAR uni044A
ENCODING 1098
SWIDTH 606 0
DWIDTH 5 0
BBX 5 5 0 0
BITMAP
1000
6400
2A00
2140
3A00
ENDCHAR
STARTCHAR uni044B
ENCODING 1099
SWIDTH 757 0
DWIDTH 6 0
BBX 6 4 0 0
BITMAP
5060
6950
8290
A980
ENDCHAR
STARTCHAR uni044C
ENCODING 1100
SWIDTH 531 0
DWIDTH 4 0
BBX 4 4 0 0
BITMAP
50
69
82
A9
ENDCHAR
STARTCHAR uni044D
ENCODING 1101
SWIDTH 526 0
DWIDTH 4 0
BBX 4 5 0 0
BITMAP
04
65
16
46
68
ENDCHAR
STARTCHAR uni044E
ENCODING 1102
SWIDTH 796 0
DWIDTH 6 0
BBX 6 5 0 0
BITMAP
0040
5660
6820
9820
8690
ENDCHAR
STARTCHAR uni044F
ENCODING 1103
SWIDTH 537 0
DWIDTH 4 0
BBX 4 5 0 0
BITMAP
05
66
66
26
85
ENDCHAR
STARTCHAR uni0450
ENCODING 1104
SWIDTH 518 0
DWIDTH 4 0
BBX 4 6 0 0
BITMAP
08
04
26
AA
90
69
ENDCHAR
STARTCHAR uni0451
ENCODING 1105
SWIDTH 518 0
DWIDTH 4 0
BBX 4 6 0 0
BITMAP
11
04
26
AA
90
69
ENDCHAR
STARTCHAR uni0452
ENCODING 1106
SWIDTH 539 0
DWIDTH 4 0
BBX 4 8 0 -2
BITMAP
64
64
66
52
82
85
05
18
ENDCHAR
STARTCHAR uni0453
ENCODING 1107
SWIDTH 411 0
DWIDTH 3 0
BBX 3 6 0 0
BITMAP
08
14
64
50
80
80
ENDCHAR
STARTCHAR uni0454
ENCODING 1108
SWIDTH 526 0
DWIDTH 4 0
BBX 4 5 0 0
BITMAP
04
26
64
91
69
ENDCHAR
STARTCHAR uni0455
ENCODING 1109
SWIDTH 504 0
DWIDTH 4 0
BBX 4 5 0 0
BITMAP
04
66
24
49
68
ENDCHAR
STARTCHAR uni0456
ENCODING 1110
SWIDTH 240 0
DWIDTH 2 0
BBX 2 6 0 0
BITMAP
10
00
50
50
80
80
ENDCHAR
STARTCHAR uni0457
ENCODING 1111
SWIDTH 244 0
DWIDTH 2 0
BBX 3 6 0 0
BITMAP
44
00
50
50
80
80
ENDCHAR
STARTCHAR uni0458
ENCODING 1112
SWIDTH 236 0
DWIDTH 2 0
BBX 3 8 -1 -2
BITMAP
04
00
14
14
20
20
20
90
ENDCHAR
STARTCHAR uni0459
ENCODING 1113
SWIDTH 827 0
DWIDTH 7 0
BBX 6 5 0 0
BITMAP
0500
2600
2390
6220
86A0
ENDCHAR
STARTCHAR uni045A
ENCODING 1114
SWIDTH 840 0
DWIDTH 7 0
BBX 7 4 0 0
BITMAP
5200
6B90
8224
83A0
ENDCHAR
STARTCHAR uni045B
ENCODING 1115
SWIDTH 554 0
DWIDTH 4 0
BBX 4 6 0 0
BITMAP
64
64
66
52
82
85
ENDCHAR
STARTCHAR uni045C
ENCODING 1116
SWIDTH 528 0
DWIDTH 4 0
BBX 4 6 0 0
BITMAP
05
00
56
68
98
85
ENDCHAR
STARTCHAR uni045D
ENCODING 1117
SWIDTH 564 0
DWIDTH 5 0
BBX 4 6 0 0
BITMAP
08
00
53
5A
A2
92
ENDCHAR
STARTCHAR uni045E
ENCODING 1118
SWIDTH 463 0
DWIDTH 4 0
BBX 5 8 -1 -2
BITMAP
0540
0040
1580
1600
0A00
0C00
1800
6000
ENDCHAR
STARTCHAR uni045F
ENCODING 1119
SWIDTH 564 0
DWIDTH 5 0
BBX 4 6 0 -2
BITMAP
52
52
82
AA
20
10
ENDCHAR
STARTCHAR uni0460
ENCODING 1120
SWIDTH 857 0
DWIDTH 7 0
BBX 7 6 0 0
BITMAP
2148
2248
2218
5214
5220
6AA0
ENDCHAR
STARTCHAR uni0461
ENCODING 1121
SWIDTH 752 0
DWIDTH 6 0
BBX 6 4 0 0
BITMAP
5220
5520
8550
6A80
ENDCHAR
STARTCHAR uni0462
ENCODING 1122
SWIDTH 613 0
DWIDTH 5 0
BBX 5 6 0 0
BITMAP
2000
7400
6500
6640
9140
AA00
ENDCHAR
STARTCHAR uni0463
ENCODING 1123
SWIDTH 530 0
DWIDTH 4 0
BBX 4 6 0 0
BITMAP
20
78
50
69
82
A9
ENDCHAR
STARTCHAR uni0464
ENCODING 1124
SWIDTH 874 0
DWIDTH 7 0
BBX 7 6 0 0
BITMAP
21A0
2618
2940
6940
5810
86A0
ENDCHAR
STARTCHAR uni0465
ENCODING 1125
SWIDTH 728 0
DWIDTH 6 0
BBX 6 5 0 0
BITMAP
0140
5590
6940
9940
8A80
ENDCHAR
STARTCHAR uni0466
ENCODING 1126
SWIDTH 589 0
DWIDTH 5 0
BBX 5 6 0 0
BITMAP
0500
0A00
1600
3600
5A00
9540
ENDCHAR
STARTCHAR uni0467
ENCODING 1127
SWIDTH 522 0
DWIDTH 4 0
BBX 4 4 0 0
BITMAP
18
28
A9
A5
ENDCHAR
STARTCHAR uni0468
ENCODING 1128
SWIDTH 858 0
DWIDTH 7 0
BBX 7 6 0 0
BITMAP
1050
20A0
2160
6760
69A0
9954
ENDCHAR
STARTCHAR uni0469
ENCODING 1129
SWIDTH 737 0
DWIDTH 6 0
BBX 6 4 0 0
BITMAP
2280
5580
6EC0
9690
ENDCHAR
STARTCHAR uni046A
ENCODING 1130
SWIDTH 831 0
DWIDTH 7 0
BBX 6 6 0 0
BITMAP
0AA0
0890
0A80
67A0
8620
8520
ENDCHAR
STARTCHAR uni046B
ENCODING 1131
SWIDTH 717 0
DWIDTH 6 0
BBX 5 5 0 0
BITMAP
0540
1A40
1A00
6980
8880
ENDCHAR
STARTCHAR uni046C
ENCODING 1132
SWIDTH 1098 0
DWIDTH 9 0
BBX 8 6 0 0
BITMAP
20AA
2085
2568
6B76
5522
8862
ENDCHAR
STARTCHAR uni046D
ENCODING 1133
SWIDTH 952 0
DWIDTH 8 0
BBX 7 5 0 0
BITMAP
0054
51A4
65A0
9998
8888
ENDCHAR
STARTCHAR uni046E
ENCODING 1134
SWIDTH 506 0
DWIDTH 4 0
BBX 4 10 0 -2
BITMAP
05
05
28
02
15
18
05
68
80
40
ENDCHAR
STARTCHAR uni046F
ENCODING 1135
SWIDTH 472 0
DWIDTH 4 0
BBX 4 8 0 -2
BITMAP
18
10
19
18
18
68
80
40
ENDCHAR
STARTCHAR uni0470
ENCODING 1136
SWIDTH 675 0
DWIDTH 5 0
BBX 6 6 0 0
BITMAP
1110
6550
5590
6980
1D00
0800
ENDCHAR
STARTCHAR uni0471
ENCODING 1137
SWIDTH 684 0
DWIDTH 5 0
BBX 6 6 0 -2
BITMAP
5580
9890
9880
2E40
0800
1400
ENDCHAR
STARTCHAR uni0472
ENCODING 1138
SWIDTH 664 0
DWIDTH 5 0
BBX 5 6 0 0
BITMAP
0A40
2080
5080
A580
5180
2A00
ENDCHAR
STARTCHAR uni0473
ENCODING 1139
SWIDTH 555 0
DWIDTH 4 0
BBX 4 5 0 0
BITMAP
04
26
A6
92
69
ENDCHAR
STARTCHAR uni0474
ENCODING 1140
SWIDTH 615 0
DWIDTH 5 0
BBX 6 6 0 0
BITMAP
5090
2180
2200
2500
2800
1400
ENDCHAR
STARTCHAR uni0475
ENCODING 1141
SWIDTH 491 0
DWIDTH 4 0
BBX 4 5 0 0
BITMAP
01
56
58
28
20
ENDCHAR
STARTCHAR uni0476
ENCODING 1142
SWIDTH 615 0
DWIDTH 5 0
BBX 6 7 0 0
BITMAP
1900
5090
2180
2200
2500
2800
1400
ENDCHAR
STARTCHAR uni0477
ENCODING 1143
SWIDTH 491 0
DWIDTH 4 0
BBX 4 6 0 0
BITMAP
28
15
56
58
28
20
ENDCHAR
STARTCHAR uni0478
ENCODING 1144
SWIDTH 1135 0
DWIDTH 9 0
BBX 9 8 0 -2
BITMAP
0A4000
208000
508880
508940
518A00
2A0900
000800
002400
ENDCHAR
STARTCHAR uni0479
ENCODING 1145
SWIDTH 1021 0
DWIDTH 8 0
BBX 8 7 0 -2
BITMAP
0400
2622
8226
8228
6914
0020
0090
ENDCHAR
STARTCHAR uni047A
ENCODING 1146
SWIDTH 664 0
DWIDTH 5 0
BBX 5 7 0 -1
BITMAP
0B40
2180
5080
9080
5180
2E00
0400
ENDCHAR
STARTCHAR uni047B
ENCODING 1147
SWIDTH 554 0
DWIDTH 4 0
BBX 4 6 0 -1
BITMAP
08
2A
92
82
79
10
ENDCHAR
STARTCHAR uni047C
ENCODING 1148
SWIDTH 854 0
DWIDTH 7 0
BBX 7 8 0 0
BITMAP
0140
0190
1550
2014
6014
5214
5220
6AA0
ENDCHAR
STARTCHAR uni047D
ENCODING 1149
SWIDTH 749 0
DWIDTH 6 0
BBX 6 6 0 0
BITMAP
0640
0200
2050
5020
8550
6A80
ENDCHAR
STARTCHAR uni047E
ENCODING 1150
SWIDTH 857 0
DWIDTH 7 0
BBX 7 7 0 0
BITMAP
0190
2148
2248
2218
5214
5220
6AA0
ENDCHAR
STARTCHAR uni047F
ENCODING 1151
SWIDTH 752 0
DWIDTH 6 0
BBX 6 6 0 0
BITMAP
0640
0100
5220
5520
8550
6A80
ENDCHAR
STARTCHAR uni0480
ENCODING 1152
SWIDTH 634 0
DWIDTH 5 0
BBX 5 8 0 -2
BITMAP
0A40
2080
5000
5000
5000
2400
1800
0400
ENDCHAR
STARTCHAR uni0481
ENCODING 1153
SWIDTH 523 0
DWIDTH 4 0
BBX 4 7 0 -2
BITMAP
04
26
90
80
60
20
10
ENDCHAR
STARTCHAR uni0482
ENCODING 1154
SWIDTH 609 0
DWIDTH 5 0
BBX 5 5 0 0
BITMAP
0540
0600
5840
2800
5000
ENDCHAR
STARTCHAR uni0483
ENCODING 1155
SWIDTH 0 0
DWIDTH 0 0
BBX 3 2 -3 4
BITMAP
58
40
ENDCHAR
STARTCHAR uni0484
ENCODING 1156
SWIDTH 0 0
DWIDTH 0 0
BBX 3 1 -3 5
BITMAP
58
ENDCHAR
STARTCHAR uni0485
ENCODING 1157
SWIDTH 0 0
DWIDTH 0 0
BBX 1 2 -2 5
BITMAP
40
40
ENDCHAR
STARTCHAR uni0486
ENCODING 1158
SWIDTH 0 0
DWIDTH 0 0
BBX 1 1 -2 5
BITMAP
40
ENDCHAR
STARTCHAR uni0488
ENCODING 1160
SWIDTH 0 0
DWIDTH 0 0
BBX 8 7 -6 -1
BITMAP
0040
1404
0000
5005
0000
1010
0100
ENDCHAR
STARTCHAR uni0489
ENCODING 1161
SWIDTH 0 0
DWIDTH 0 0
BBX 7 8 -6 -2
BITMAP
0040
0444
0410
5004
0004
1010
1110
0100
ENDCHAR
STARTCHAR uni048A
ENCODING 1162
SWIDTH 736 0
DWIDTH 6 0
BBX 6 8 0 -1
BITMAP
0640
2050
21D0
2280
5880
7480
9180
0080
ENDCHAR
STARTCHAR uni048B
ENCODING 1163
SWIDTH 602 0
DWIDTH 5 0
BBX 4 7 0 -1
BITMAP
15
05
53
5A
A2
93
02
ENDCHAR
STARTCHAR uni048C
ENCODING 1164
SWIDTH 613 0
DWIDTH 5 0
BBX 5 6 0 0
BITMAP
2000
7400
6500
6640
9140
AA00
ENDCHAR
STARTCHAR uni048D
ENCODING 1165
SWIDTH 530 0
DWIDTH 4 0
BBX 4 7 0 0
BITMAP
10
78
20
50
69
82
A9
ENDCHAR
STARTCHAR uni048E
ENCODING 1166
SWIDTH 624 0
DWIDTH 5 0
BBX 5 6 0 0
BITMAP
2A40
2080
2180
6A40
9000
8000
ENDCHAR
STARTCHAR uni048F
ENCODING 1167
SWIDTH 554 0
DWIDTH 4 0
BBX 4 7 0 -2
BITMAP
04
66
52
86
A9
80
40
ENDCHAR
STARTCHAR uni0490
ENCODING 1168
SWIDTH 536 0
DWIDTH 4 0
BBX 5 7 0 0
BITMAP
0080
2A80
2000
6000
5000
9000
8000
ENDCHAR
STARTCHAR uni0491
ENCODING 1169
SWIDTH 437 0
DWIDTH 4 0
BBX 4 6 0 0
BITMAP
01
16
64
50
80
80
ENDCHAR
STARTCHAR uni0492
ENCODING 1170
SWIDTH 544 0
DWIDTH 4 0
BBX 5 6 0 0
BITMAP
2A40
2000
6000
A000
5000
8000
ENDCHAR
STARTCHAR uni0493
ENCODING 1171
SWIDTH 411 0
DWIDTH 3 0
BBX 3 5 0 0
BITMAP
14
64
A4
90
80
ENDCHAR
STARTCHAR uni0494
ENCODING 1172
SWIDTH 593 0
DWIDTH 5 0
BBX 5 7 0 -1
BITMAP
2A40
2000
2400
6600
5200
8200
0900
ENDCHAR
STARTCHAR uni0495
ENCODING 1173
SWIDTH 492 0
DWIDTH 4 0
BBX 4 6 0 -1
BITMAP
14
64
64
98
85
18
ENDCHAR
STARTCHAR uni0496
ENCODING 1174
SWIDTH 930 0
DWIDTH 7 0
BBX 7 8 0 -2
BITMAP
2144
2154
0A60
1B90
6220
8228
0008
0004
ENDCHAR
STARTCHAR uni0497
ENCODING 1175
SWIDTH 778 0
DWIDTH 6 0
BBX 6 7 0 -2
BITMAP
0010
2650
2A80
2980
88A0
0020
0010
ENDCHAR
STARTCHAR uni0498
ENCODING 1176
SWIDTH 580 0
DWIDTH 5 0
BBX 5 8 0 -2
BITMAP
1A00
2140
0640
0600
4200
6900
2400
1000
ENDCHAR
STARTCHAR uni0499
ENCODING 1177
SWIDTH 497 0
DWIDTH 4 0
BBX 4 7 0 -2
BITMAP
04
66
19
49
A8
20
10
ENDCHAR
STARTCHAR uni049A
ENCODING 1178
SWIDTH 684 0
DWIDTH 5 0
BBX 5 8 0 -2
BITMAP
2080
2240
2900
6800
5600
8280
0080
0040
ENDCHAR
STARTCHAR uni049B
ENCODING 1179
SWIDTH 577 0
DWIDTH 5 0
BBX 4 6 0 -2
BITMAP
56
68
98
86
02
01
ENDCHAR
STARTCHAR uni049C
ENCODING 1180
SWIDTH 615 0
DWIDTH 5 0
BBX 5 6 0 0
BITMAP
2080
2140
6A00
6900
9200
8240
ENDCHAR
STARTCHAR uni049D
ENCODING 1181
SWIDTH 549 0
DWIDTH 4 0
BBX 4 4 0 0
BITMAP
62
69
A9
82
ENDCHAR
STARTCHAR uni049E
ENCODING 1182
SWIDTH 638 0
DWIDTH 5 0
BBX 5 6 0 0
BITMAP
1080
7640
2900
6800
5200
8240
ENDCHAR
STARTCHAR uni049F
ENCODING 1183
SWIDTH 508 0
DWIDTH 4 0
BBX 4 6 0 0
BITMAP
64
61
66
68
98
85
ENDCHAR
STARTCHAR uni04A0
ENCODING 1184
SWIDTH 798 0
DWIDTH 6 0
BBX 6 6 1 0
BITMAP
A450
2180
2600
2900
2200
5180
ENDCHAR
STARTCHAR uni04A1
ENCODING 1185
SWIDTH 673 0
DWIDTH 5 0
BBX 5 5 0 0
BITMAP
1400
5880
1A00
1600
2580
ENDCHAR
STARTCHAR uni04A2
ENCODING 1186
SWIDTH 731 0
DWIDTH 6 0
BBX 6 8 0 -2
BITMAP
2050
2050
2580
6580
9080
80C0
0080
0040
ENDCHAR
STARTCHAR uni04A3
ENCODING 1187
SWIDTH 592 0
DWIDTH 5 0
BBX 4 6 0 -2
BITMAP
52
66
96
83
02
01
ENDCHAR
STARTCHAR uni04A4
ENCODING 1188
SWIDTH 951 0
DWIDTH 8 0
BBX 8 6 0 0
BITMAP
2069
2050
2580
6580
9080
8080
ENDCHAR
STARTCHAR uni04A5
ENCODING 1189
SWIDTH 696 0
DWIDTH 6 0
BBX 6 5 0 0
BITMAP
0040
5250
6600
9600
8600
ENDCHAR
STARTCHAR uni04A6
ENCODING 1190
SWIDTH 998 0
DWIDTH 8 0
BBX 8 7 0 -1
BITMAP
2A90
2090
2090
5098
5085
8189
0018
ENDCHAR
STARTCHAR uni04A7
ENCODING 1191
SWIDTH 848 0
DWIDTH 7 0
BBX 6 6 0 -1
BITMAP
1500
6600
5250
8220
8620
0060
ENDCHAR
STARTCHAR uni04A8
ENCODING 1192
SWIDTH 723 0
DWIDTH 6 0
BBX 6 6 0 0
BITMAP
1580
2620
5520
9850
5580
2B80
ENDCHAR
STARTCHAR uni04A9
ENCODING 1193
SWIDTH 589 0
DWIDTH 5 0
BBX 5 5 0 0
BITMAP
0100
6A40
9940
9A00
6E00
ENDCHAR
STARTCHAR uni04AA
ENCODING 1194
SWIDTH 636 0
DWIDTH 5 0
BBX 5 8 0 -2
BITMAP
0A40
2080
5000
5000
5140
2A00
1400
1400
ENDCHAR
STARTCHAR uni04AB
ENCODING 1195
SWIDTH 512 0
DWIDTH 4 0
BBX 4 7 0 -2
BITMAP
04
26
80
81
79
20
10
ENDCHAR
STARTCHAR uni04AC
ENCODING 1196
SWIDTH 583 0
DWIDTH 5 0
BBX 5 8 0 -2
BITMAP
6A80
0800
0800
0800
1800
1800
0800
0400
ENDCHAR
STARTCHAR uni04AD
ENCODING 1197
SWIDTH 470 0
DWIDTH 4 0
BBX 4 7 0 -2
BITMAP
15
69
14
20
34
14
10
ENDCHAR
STARTCHAR uni04AE
ENCODING 1198
SWIDTH 587 0
DWIDTH 5 0
BBX 4 6 1 0
BITMAP
42
85
98
70
60
50
ENDCHAR
STARTCHAR uni04AF
ENCODING 1199
SWIDTH 490 0
DWIDTH 4 0
BBX 4 6 0 -2
BITMAP
52
29
28
20
20
10
ENDCHAR
STARTCHAR uni04B0
ENCODING 1200
SWIDTH 587 0
DWIDTH 5 0
BBX 4 6 1 0
BITMAP
42
85
98
B4
60
50
ENDCHAR
STARTCHAR uni04B1
ENCODING 1201
SWIDTH 490 0
DWIDTH 4 0
BBX 4 6 0 -2
BITMAP
52
29
28
78
20
10
ENDCHAR
STARTCHAR uni04B2
ENCODING 1202
SWIDTH 622 0
DWIDTH 5 0
BBX 5 8 0 -2
BITMAP
2080
2240
1D00
1C00
2600
8340
0140
0100
ENDCHAR
STARTCHAR uni04B3
ENCODING 1203
SWIDTH 509 0
DWIDTH 4 0
BBX 4 7 0 -2
BITMAP
01
25
28
28
89
05
04
ENDCHAR
STARTCHAR uni04B4
ENCODING 1204
SWIDTH 874 0
DWIDTH 7 0
BBX 6 8 1 -2
BITMAP
A950
2090
6080
5080
9080
AA80
0080
0040
ENDCHAR
STARTCHAR uni04B5
ENCODING 1205
SWIDTH 654 0
DWIDTH 5 0
BBX 5 6 0 -1
BITMAP
1400
6480
2140
2140
3A40
0140
ENDCHAR
STARTCHAR uni04B6
ENCODING 1206
SWIDTH 700 0
DWIDTH 6 0
BBX 4 8 1 -2
BITMAP
81
82
82
AA
06
06
02
01
ENDCHAR
STARTCHAR uni04B7
ENCODING 1207
SWIDTH 561 0
DWIDTH 4 0
BBX 4 6 0 -2
BITMAP
52
52
1A
06
02
01
ENDCHAR
STARTCHAR uni04B8
ENCODING 1208
SWIDTH 663 0
DWIDTH 5 0
BBX 4 6 1 0
BITMAP
81
82
96
AA
15
05
ENDCHAR
STARTCHAR uni04B9
ENCODING 1209
SWIDTH 540 0
DWIDTH 4 0
BBX 4 4 0 0
BITMAP
52
6A
2A
05
ENDCHAR
STARTCHAR uni04BA
ENCODING 1210
SWIDTH 663 0
DWIDTH 5 0
BBX 5 6 0 0
BITMAP
1000
2000
6500
5140
8140
8140
ENDCHAR
STARTCHAR uni04BB
ENCODING 1211
SWIDTH 539 0
DWIDTH 4 0
BBX 4 6 0 0
BITMAP
20
24
66
52
82
85
ENDCHAR
STARTCHAR uni04BC
ENCODING 1212
SWIDTH 754 0
DWIDTH 6 0
BBX 6 6 0 0
BITMAP
0280
0820
6960
2550
1400
0A80
ENDCHAR
STARTCHAR uni04BD
ENCODING 1213
SWIDTH 579 0
DWIDTH 5 0
BBX 5 5 0 0
BITMAP
0400
6600
AA40
6000
2A00
ENDCHAR
STARTCHAR uni04BE
ENCODING 1214
SWIDTH 754 0
DWIDTH 6 0
BBX 6 8 0 -2
BITMAP
0280
0820
6960
2550
1400
0A80
0600
0500
ENDCHAR
STARTCHAR uni04BF
ENCODING 1215
SWIDTH 579 0
DWIDTH 5 0
BBX 5 7 0 -2
BITMAP
0400
6600
AA40
6000
2A00
0800
1400
ENDCHAR
STARTCHAR uni04C0
ENCODING 1216
SWIDTH 268 0
DWIDTH 2 0
BBX 2 6 0 0
BITMAP
10
20
20
50
50
80
ENDCHAR
STARTCHAR uni04C1
ENCODING 1217
SWIDTH 885 0
DWIDTH 7 0
BBX 7 7 0 0
BITMAP
0190
2144
2154
0A60
1B90
6220
8224
ENDCHAR
STARTCHAR uni04C2
ENCODING 1218
SWIDTH 747 0
DWIDTH 6 0
BBX 6 6 0 0
BITMAP
0540
0110
2650
2A80
2980
8880
ENDCHAR
STARTCHAR uni04C3
ENCODING 1219
SWIDTH 615 0
DWIDTH 5 0
BBX 5 7 0 -1
BITMAP
2080
2240
6900
6600
9140
8140
0600
ENDCHAR
STARTCHAR uni04C4
ENCODING 1220
SWIDTH 532 0
DWIDTH 4 0
BBX 4 5 0 -1
BITMAP
56
68
95
86
08
ENDCHAR
STARTCHAR uni04C5
ENCODING 1221
SWIDTH 731 0
DWIDTH 6 0
BBX 6 7 0 -1
BITMAP
0A90
1490
1480
2080
2080
9180
0080
ENDCHAR
STARTCHAR uni04C6
ENCODING 1222
SWIDTH 603 0
DWIDTH 5 0
BBX 4 6 0 -1
BITMAP
05
26
22
22
83
02
ENDCHAR
STARTCHAR uni04C7
ENCODING 1223
SWIDTH 695 0
DWIDTH 6 0
BBX 6 8 0 -2
BITMAP
2050
2090
2080
6AC0
5080
8180
0140
0600
ENDCHAR
STARTCHAR uni04C8
ENCODING 1224
SWIDTH 554 0
DWIDTH 4 0
BBX 4 6 0 -2
BITMAP
52
66
96
86
05
18
ENDCHAR
STARTCHAR uni04C9
ENCODING 1225
SWIDTH 740 0
DWIDTH 6 0
BBX 6 7 0 -1
BITMAP
2050
2050
2580
6580
9080
80C0
0080
ENDCHAR
STARTCHAR uni04CA
ENCODING 1226
SWIDTH 601 0
DWIDTH 5 0
BBX 4 5 0 -1
BITMAP
52
66
96
83
02
ENDCHAR
STARTCHAR uni04CB
ENCODING 1227
SWIDTH 668 0
DWIDTH 5 0
BBX 4 7 1 -1
BITMAP
81
82
82
AA
06
09
18
ENDCHAR
STARTCHAR uni04CC
ENCODING 1228
SWIDTH 532 0
DWIDTH 4 0
BBX 4 5 0 -1
BITMAP
52
52
1A
09
18
ENDCHAR
STARTCHAR uni04CD
ENCODING 1229
SWIDTH 891 0
DWIDTH 7 0
BBX 7 8 0 -2
BITMAP
2014
3428
2864
58A0
9A20
8634
0024
0010
ENDCHAR
STARTCHAR uni04CE
ENCODING 1230
SWIDTH 761 0
DWIDTH 6 0
BBX 6 7 0 -2
BITMAP
1000
7090
6590
9A80
8890
0050
0040
ENDCHAR
STARTCHAR uni04CF
ENCODING 1231
SWIDTH 268 0
DWIDTH 2 0
BBX 2 6 0 0
BITMAP
10
20
20
50
50
80
ENDCHAR
STARTCHAR uni04D0
ENCODING 1232
SWIDTH 637 0
DWIDTH 5 0
BBX 5 7 0 0
BITMAP
0640
0500
0A00
1600
2200
6A40
8140
ENDCHAR
STARTCHAR uni04D1
ENCODING 1233
SWIDTH 532 0
DWIDTH 4 0
BBX 4 6 0 0
BITMAP
16
04
26
1A
86
A9
ENDCHAR
STARTCHAR uni04D2
ENCODING 1234
SWIDTH 637 0
DWIDTH 5 0
BBX 5 7 0 0
BITMAP
0540
0500
0A00
1600
2200
6A40
8140
ENDCHAR
STARTCHAR uni04D3
ENCODING 1235
SWIDTH 532 0
DWIDTH 4 0
BBX 4 6 0 0
BITMAP
15
04
26
1A
86
A9
ENDCHAR
STARTCHAR uni04D4
ENCODING 1236
SWIDTH 911 0
DWIDTH 7 0
BBX 8 6 0 0
BITMAP
01A9
0280
0994
2594
6A40
82A4
ENDCHAR
STARTCHAR uni04D5
ENCODING 1237
SWIDTH 823 0
DWIDTH 7 0
BBX 7 5 0 0
BITMAP
0440
6760
1BA4
9600
AAA0
ENDCHAR
STARTCHAR uni04D6
ENCODING 1238
SWIDTH 556 0
DWIDTH 4 0
BBX 5 7 0 0
BITMAP
0A00
2A40
2000
2500
6500
9000
A900
ENDCHAR
STARTCHAR uni04D7
ENCODING 1239
SWIDTH 518 0
DWIDTH 4 0
BBX 4 6 0 0
BITMAP
15
04
26
AA
90
69
ENDCHAR
STARTCHAR uni04D8
ENCODING 1240
SWIDTH 675 0
DWIDTH 5 0
BBX 5 6 0 0
BITMAP
1A40
0080
0080
AAC0
9180
2A00
ENDCHAR
STARTCHAR uni04D9
ENCODING 1241
SWIDTH 516 0
DWIDTH 4 0
BBX 4 5 0 0
BITMAP
04
16
56
96
68
ENDCHAR
STARTCHAR uni04DA
ENCODING 1242
SWIDTH 675 0
DWIDTH 5 0
BBX 5 7 0 0
BITMAP
0540
1A40
0080
0080
AAC0
9180
2A00
ENDCHAR
STARTCHAR uni04DB
ENCODING 1243
SWIDTH 516 0
DWIDTH 4 0
BBX 4 6 0 0
BITMAP
11
14
16
56
96
68
ENDCHAR
STARTCHAR uni04DC
ENCODING 1244
SWIDTH 885 0
DWIDTH 7 0
BBX 7 7 0 0
BITMAP
0150
2144
2154
0A60
1B90
6220
8224
ENDCHAR
STARTCHAR uni04DD
ENCODING 1245
SWIDTH 747 0
DWIDTH 6 0
BBX 6 6 0 0
BITMAP
0440
0010
2650
2A80
2980
8880
ENDCHAR
STARTCHAR uni04DE
ENCODING 1246
SWIDTH 580 0
DWIDTH 5 0
BBX 5 7 0 0
BITMAP
0500
1A00
2140
0640
0600
4200
6900
ENDCHAR
STARTCHAR uni04DF
ENCODING 1247
SWIDTH 497 0
DWIDTH 4 0
BBX 4 6 0 0
BITMAP
11
04
66
19
49
A8
ENDCHAR
STARTCHAR uni04E0
ENCODING 1248
SWIDTH 569 0
DWIDTH 5 0
BBX 5 6 0 0
BITMAP
2A40
0600
0800
0600
4200
6900
ENDCHAR
STARTCHAR uni04E1
ENCODING 1249
SWIDTH 569 0
DWIDTH 5 0
BBX 4 7 0 -2
BITMAP
15
16
08
19
02
85
24
ENDCHAR
STARTCHAR uni04E2
ENCODING 1250
SWIDTH 696 0
DWIDTH 6 0
BBX 6 7 0 0
BITMAP
0640
2050
21D0
2280
5880
7480
9180
ENDCHAR
STARTCHAR uni04E3
ENCODING 1251
SWIDTH 564 0
DWIDTH 5 0
BBX 4 6 0 0
BITMAP
1A
00
53
5A
A2
92
ENDCHAR
STARTCHAR uni04E4
ENCODING 1252
SWIDTH 696 0
DWIDTH 6 0
BBX 6 7 0 0
BITMAP
0440
2050
21D0
2280
5880
7480
9180
ENDCHAR
STARTCHAR uni04E5
ENCODING 1253
SWIDTH 564 0
DWIDTH 5 0
BBX 4 6 0 0
BITMAP
15
11
53
5A
A2
92
ENDCHAR
STARTCHAR uni04E6
ENCODING 1254
SWIDTH 671 0
DWIDTH 5 0
BBX 5 7 0 0
BITMAP
0440
0A40
2080
5080
5080
5180
2A00
ENDCHAR
STARTCHAR uni04E7
ENCODING 1255
SWIDTH 558 0
DWIDTH 4 0
BBX 4 6 0 0
BITMAP
11
04
26
82
82
69
ENDCHAR
STARTCHAR uni04E8
ENCODING 1256
SWIDTH 664 0
DWIDTH 5 0
BBX 5 6 0 0
BITMAP
0A40
2080
5080
A580
5180
2A00
ENDCHAR
STARTCHAR uni04E9
ENCODING 1257
SWIDTH 555 0
DWIDTH 4 0
BBX 4 5 0 0
BITMAP
04
26
A6
92
69
ENDCHAR
STARTCHAR uni04EA
ENCODING 1258
SWIDTH 664 0
DWIDTH 5 0
BBX 5 7 0 0
BITMAP
0440
0A40
2080
5080
A580
5180
2A00
ENDCHAR
STARTCHAR uni04EB
ENCODING 1259
SWIDTH 555 0
DWIDTH 4 0
BBX 4 6 0 0
BITMAP
11
04
26
A6
92
69
ENDCHAR
STARTCHAR uni04EC
ENCODING 1260
SWIDTH 658 0
DWIDTH 5 0
BBX 5 7 0 0
BITMAP
0440
1A00
2080
0080
0580
5180
2A00
ENDCHAR
STARTCHAR uni04ED
ENCODING 1261
SWIDTH 526 0
DWIDTH 4 0
BBX 4 6 0 0
BITMAP
11
04
65
16
46
68
ENDCHAR
STARTCHAR uni04EE
ENCODING 1262
SWIDTH 614 0
DWIDTH 5 0
BBX 5 7 0 0
BITMAP
0A40
2080
2180
2600
1D00
0800
6400
ENDCHAR
STARTCHAR uni04EF
ENCODING 1263
SWIDTH 463 0
DWIDTH 4 0
BBX 5 8 -1 -2
BITMAP
0640
0040
1580
1600
0A00
0C00
1800
6000
ENDCHAR
STARTCHAR uni04F0
ENCODING 1264
SWIDTH 614 0
DWIDTH 5 0
BBX 5 7 0 0
BITMAP
0540
2080
2180
2600
1D00
0800
6400
ENDCHAR
STARTCHAR uni04F1
ENCODING 1265
SWIDTH 463 0
DWIDTH 4 0
BBX 5 8 -1 -2
BITMAP
0440
0040
1580
1600
0A00
0C00
1800
6000
ENDCHAR
STARTCHAR uni04F2
ENCODING 1266
SWIDTH 614 0
DWIDTH 5 0
BBX 5 8 0 0
BITMAP
0140
0640
2080
2180
2600
1D00
0800
6400
ENDCHAR
STARTCHAR uni04F3
ENCODING 1267
SWIDTH 463 0
DWIDTH 4 0
BBX 5 8 -1 -2
BITMAP
0280
0040
1580
1600
0A00
0C00
1800
6000
ENDCHAR
STARTCHAR uni04F4
ENCODING 1268
SWIDTH 668 0
DWIDTH 5 0
BBX 4 7 1 0
BITMAP
11
81
82
82
AA
06
05
ENDCHAR
STARTCHAR uni04F5
ENCODING 1269
SWIDTH 532 0
DWIDTH 4 0
BBX 4 6 0 0
BITMAP
11
01
52
52
1A
05
ENDCHAR
STARTCHAR uni04F6
ENCODING 1270
SWIDTH 544 0
DWIDTH 4 0
BBX 5 7 0 -1
BITMAP
2A40
2000
2000
5000
5000
9000
6000
ENDCHAR
STARTCHAR uni04F7
ENCODING 1271
SWIDTH 411 0
DWIDTH 3 0
BBX 3 7 0 -2
BITMAP
14
64
50
80
90
50
40
ENDCHAR
STARTCHAR uni04F8
ENCODING 1272
SWIDTH 843 0
DWIDTH 7 0
BBX 7 7 0 0
BITMAP
0150
2004
2014
2524
6660
5160
AA20
ENDCHAR
STARTCHAR uni04F9
ENCODING 1273
SWIDTH 757 0
DWIDTH 6 0
BBX 6 6 0 0
BITMAP
0440
0000
5020
6950
8290
A980
ENDCHAR
STARTCHAR uni04FA
ENCODING 1274
SWIDTH 576 0
DWIDTH 5 0
BBX 5 8 0 -2
BITMAP
1A80
2000
7400
7000
6000
6000
2000
9000
ENDCHAR
STARTCHAR uni04FB
ENCODING 1275
SWIDTH 449 0
DWIDTH 4 0
BBX 4 7 0 -2
BITMAP
15
25
B4
50
60
20
90
ENDCHAR
STARTCHAR uni04FC
ENCODING 1276
SWIDTH 632 0
DWIDTH 5 0
BBX 5 8 0 -2
BITMAP
2080
2240
1D00
1C00
2600
8240
0140
0600
ENDCHAR
STARTCHAR uni04FD
ENCODING 1277
SWIDTH 520 0
DWIDTH 4 0
BBX 4 7 0 -2
BITMAP
01
25
28
28
89
05
18
ENDCHAR
STARTCHAR uni04FE
ENCODING 1278
SWIDTH 612 0
DWIDTH 5 0
BBX 5 6 0 0
BITMAP
2080
2240
1E00
1D00
2600
8200
ENDCHAR
STARTCHAR uni04FF
ENCODING 1279
SWIDTH 485 0
DWIDTH 4 0
BBX 4 5 0 0
BITMAP
01
25
3C
28
88
ENDCHAR
STARTCHAR uni0500
ENCODING 1280
SWIDTH 606 0
DWIDTH 5 0
BBX 5 6 0 0
BITMAP
0080
0080
1640
6640
8200
6B00
ENDCHAR
STARTCHAR uni0501
ENCODING 1281
SWIDTH 551 0
DWIDTH 4 0
BBX 5 6 0 0
BITMAP
0140
0640
6700
8200
8200
6A00
ENDCHAR
STARTCHAR uni0502
ENCODING 1282
SWIDTH 802 0
DWIDTH 6 0
BBX 6 6 0 0
BITMAP
0080
0080
1680
6660
8260
6B90
ENDCHAR
STARTCHAR uni0503
ENCODING 1283
SWIDTH 840 0
DWIDTH 7 0
BBX 7 6 0 0
BITMAP
0140
0600
2710
8214
8220
6A90
ENDCHAR
STARTCHAR uni0504
ENCODING 1284
SWIDTH 772 0
DWIDTH 6 0
BBX 5 6 1 0
BITMAP
A000
0800
1440
A080
2540
1A00
ENDCHAR
STARTCHAR uni0505
ENCODING 1285
SWIDTH 631 0
DWIDTH 5 0
BBX 5 5 0 0
BITMAP
1000
5800
1880
1480
0A00
ENDCHAR
STARTCHAR uni0506
ENCODING 1286
SWIDTH 524 0
DWIDTH 4 0
BBX 3 7 1 -1
BITMAP
A0
14
24
A0
20
24
24
ENDCHAR
STARTCHAR uni0507
ENCODING 1287
SWIDTH 493 0
DWIDTH 4 0
BBX 3 6 1 -1
BITMAP
40
60
60
60
24
20
ENDCHAR
STARTCHAR uni0508
ENCODING 1288
SWIDTH 944 0
DWIDTH 8 0
BBX 8 6 0 0
BITMAP
0A90
1880
1484
2089
2088
90A4
ENDCHAR
STARTCHAR uni0509
ENCODING 1289
SWIDTH 787 0
DWIDTH 6 0
BBX 6 5 0 0
BITMAP
0500
2610
2220
2220
9290
ENDCHAR
STARTCHAR uni050A
ENCODING 1290
SWIDTH 972 0
DWIDTH 8 0
BBX 8 6 0 0
BITMAP
2050
2080
2084
6A89
9088
80A4
ENDCHAR
STARTCHAR uni050B
ENCODING 1291
SWIDTH 808 0
DWIDTH 6 0
BBX 6 4 0 0
BITMAP
5210
6620
9620
8290
ENDCHAR
STARTCHAR uni050C
ENCODING 1292
SWIDTH 606 0
DWIDTH 5 0
BBX 5 6 0 0
BITMAP
0A40
2000
5000
9140
5140
2A00
ENDCHAR
STARTCHAR uni050D
ENCODING 1293
SWIDTH 503 0
DWIDTH 4 0
BBX 4 5 0 0
BITMAP
04
25
90
85
69
ENDCHAR
STARTCHAR uni050E
ENCODING 1294
SWIDTH 692 0
DWIDTH 6 0
BBX 5 6 0 0
BITMAP
6A80
0800
0840
0880
1880
0A40
ENDCHAR
STARTCHAR uni050F
ENCODING 1295
SWIDTH 626 0
DWIDTH 5 0
BBX 5 5 0 0
BITMAP
1500
5900
1540
1540
1A00
ENDCHAR
STARTCHAR uni0510
ENCODING 1296
SWIDTH 658 0
DWIDTH 5 0
BBX 5 6 0 0
BITMAP
0A40
2080
2400
2500
5040
2A40
ENDCHAR
STARTCHAR uni0511
ENCODING 1297
SWIDTH 527 0
DWIDTH 4 0
BBX 4 5 0 0
BITMAP
04
66
64
90
69
ENDCHAR
STARTCHAR uni0512
ENCODING 1298
SWIDTH 733 0
DWIDTH 6 0
BBX 6 8 0 -2
BITMAP
0A90
1490
1480
2080
2080
9180
0080
0140
ENDCHAR
STARTCHAR uni0513
ENCODING 1299
SWIDTH 604 0
DWIDTH 5 0
BBX 4 7 0 -2
BITMAP
05
26
22
22
83
02
05
ENDCHAR
STARTCHAR uni1E00
ENCODING 7680
SWIDTH 637 0
DWIDTH 5 0
BBX 5 8 0 -2
BITMAP
0500
0A00
1600
2200
6A40
8140
1400
1400
ENDCHAR
STARTCHAR uni1E01
ENCODING 7681
SWIDTH 532 0
DWIDTH 4 0
BBX 4 7 0 -2
BITMAP
04
26
1A
86
A9
10
10
ENDCHAR
STARTCHAR uni1E3E
ENCODING 7742
SWIDTH 851 0
DWIDTH 7 0
BBX 7 7 0 0
BITMAP
0080
2014
3428
2864
58A0
9A20
8620
ENDCHAR
STARTCHAR uni1E3F
ENCODING 7743
SWIDTH 854 0
DWIDTH 7 0
BBX 7 6 0 0
BITMAP
0080
0410
6764
5214
8220
8520
ENDCHAR
STARTCHAR Wgrave
ENCODING 7808
SWIDTH 865 0
DWIDTH 7 0
BBX 6 8 1 0
BITMAP
0400
0500
4510
8920
9650
A280
A280
8240
ENDCHAR
STARTCHAR wgrave
ENCODING 7809
SWIDTH 733 0
DWIDTH 6 0
BBX 6 6 0 0
BITMAP
0500
0110
5620
5A50
6680
2240
ENDCHAR
STARTCHAR Wacute
ENCODING 7810
SWIDTH 865 0
DWIDTH 7 0
BBX 6 7 1 0
BITMAP
0200
4510
8920
9650
A280
A280
8240
ENDCHAR
STARTCHAR wacute
ENCODING 7811
SWIDTH 733 0
DWIDTH 6 0
BBX 6 6 0 0
BITMAP
0240
0110
5620
5A50
6680
2240
ENDCHAR
STARTCHAR Wdieresis
ENCODING 7812
SWIDTH 865 0
DWIDTH 7 0
BBX 6 7 1 0
BITMAP
0540
4510
8920
9650
A280
A280
8240
ENDCHAR
STARTCHAR wdieresis
ENCODING 7813
SWIDTH 733 0
DWIDTH 6 0
BBX 6 6 0 0
BITMAP
0440
0010
5620
5A50
6680
2240
ENDCHAR
STARTCHAR uni1EA0
ENCODING 7840
SWIDTH 637 0
DWIDTH 5 0
BBX 5 6 0 0
BITMAP
0500
0A00
1600
2200
6A40
8140
ENDCHAR
STARTCHAR uni1EA1
ENCODING 7841
SWIDTH 532 0
DWIDTH 4 0
BBX 4 7 0 -2
BITMAP
04
26
1A
86
A9
10
10
ENDCHAR
STARTCHAR uni1EA2
ENCODING 7842
SWIDTH 637 0
DWIDTH 5 0
BBX 5 8 0 0
BITMAP
0100
0200
0500
0A00
1600
2200
6A40
8140
ENDCHAR
STARTCHAR uni1EA3
ENCODING 7843
SWIDTH 532 0
DWIDTH 4 0
BBX 4 7 0 0
BITMAP
05
05
04
26
1A
86
A9
ENDCHAR
STARTCHAR uni1EA4
ENCODING 7844
SWIDTH 637 0
DWIDTH 5 0
BBX 6 8 0 0
BITMAP
0010
0A40
0500
0A00
1600
2200
6A40
8140
ENDCHAR
STARTCHAR uni1EA5
ENCODING 7845
SWIDTH 532 0
DWIDTH 4 0
BBX 5 7 0 0
BITMAP
0040
0940
1400
2600
1A00
8600
A900
ENDCHAR
STARTCHAR uni1EA6
ENCODING 7846
SWIDTH 637 0
DWIDTH 5 0
BBX 5 8 0 0
BITMAP
1000
0A00
0500
0A00
1600
2200
6A40
8140
ENDCHAR
STARTCHAR uni1EA7
ENCODING 7847
SWIDTH 532 0
DWIDTH 4 0
BBX 4 7 0 0
BITMAP
10
19
14
26
1A
86
A9
ENDCHAR
STARTCHAR uni1EA8
ENCODING 7848
SWIDTH 637 0
DWIDTH 5 0
BBX 6 8 0 0
BITMAP
0050
0A40
0500
0A00
1600
2200
6A40
8140
ENDCHAR
STARTCHAR uni1EA9
ENCODING 7849
SWIDTH 532 0
DWIDTH 4 0
BBX 5 7 0 0
BITMAP
0040
0940
1400
2600
1A00
8600
A900
ENDCHAR
STARTCHAR uni1EAA
ENCODING 7850
SWIDTH 637 0
DWIDTH 5 0
BBX 5 8 0 0
BITMAP
0540
0500
0500
0A00
1600
2200
6A40
8140
ENDCHAR
STARTCHAR uni1EAB
ENCODING 7851
SWIDTH 532 0
DWIDTH 4 0
BBX 4 7 0 0
BITMAP
05
05
15
26
1A
86
A9
ENDCHAR
STARTCHAR uni1EAC
ENCODING 7852
SWIDTH 637 0
DWIDTH 5 0
BBX 5 7 0 0
BITMAP
0600
0500
0A00
1600
2200
6A40
8140
ENDCHAR
STARTCHAR uni1EAD
ENCODING 7853
SWIDTH 532 0
DWIDTH 4 0
BBX 4 8 0 -2
BITMAP
09
04
26
1A
86
A9
10
10
ENDCHAR
STARTCHAR uni1EAE
ENCODING 7854
SWIDTH 637 0
DWIDTH 5 0
BBX 5 8 0 0
BITMAP
0100
0540
0500
0A00
1600
2200
6A40
8140
ENDCHAR
STARTCHAR uni1EAF
ENCODING 7855
SWIDTH 532 0
DWIDTH 4 0
BBX 4 7 0 0
BITMAP
01
15
04
26
1A
86
A9
ENDCHAR
STARTCHAR uni1EB0
ENCODING 7856
SWIDTH 637 0
DWIDTH 5 0
BBX 5 8 0 0
BITMAP
0100
0540
0500
0A00
1600
2200
6A40
8140
ENDCHAR
STARTCHAR uni1EB1
ENCODING 7857
SWIDTH 532 0
DWIDTH 4 0
BBX 4 7 0 0
BITMAP
04
15
04
26
1A
86
A9
ENDCHAR
STARTCHAR uni1EB2
ENCODING 7858
SWIDTH 637 0
DWIDTH 5 0
BBX 5 8 0 0
BITMAP
0200
0500
0500
0A00
1600
2200
6A40
8140
ENDCHAR
STARTCHAR uni1EB3
ENCODING 7859
SWIDTH 532 0
DWIDTH 4 0
BBX 4 7 0 0
BITMAP
05
05
04
26
1A
86
A9
ENDCHAR
STARTCHAR uni1EB4
ENCODING 7860
SWIDTH 637 0
DWIDTH 5 0
BBX 5 8 0 0
BITMAP
0540
0540
0500
0A00
1600
2200
6A40
8140
ENDCHAR
STARTCHAR uni1EB5
ENCODING 7861
SWIDTH 532 0
DWIDTH 4 0
BBX 4 7 0 0
BITMAP
05
05
04
26
1A
86
A9
ENDCHAR
STARTCHAR uni1EB6
ENCODING 7862
SWIDTH 637 0
DWIDTH 5 0
BBX 5 7 0 0
BITMAP
0640
0500
0A00
1600
2200
6A40
8140
ENDCHAR
STARTCHAR uni1EB7
ENCODING 7863
SWIDTH 532 0
DWIDTH 4 0
BBX 4 8 0 -2
BITMAP
16
04
26
1A
86
A9
10
10
ENDCHAR
STARTCHAR uni1EB8
ENCODING 7864
SWIDTH 556 0
DWIDTH 4 0
BBX 5 7 0 -1
BITMAP
2A40
2000
2500
6500
9000
A900
1000
ENDCHAR
STARTCHAR uni1EB9
ENCODING 7865
SWIDTH 518 0
DWIDTH 4 0
BBX 4 7 0 -2
BITMAP
04
26
AA
90
69
10
10
ENDCHAR
STARTCHAR uni1EBA
ENCODING 7866
SWIDTH 556 0
DWIDTH 4 0
BBX 5 8 0 0
BITMAP
0100
0100
2A40
2000
2500
6500
9000
A900
ENDCHAR
STARTCHAR uni1EBB
ENCODING 7867
SWIDTH 518 0
DWIDTH 4 0
BBX 4 7 0 0
BITMAP
04
05
04
26
AA
90
69
ENDCHAR
STARTCHAR uni1EBC
ENCODING 7868
SWIDTH 556 0
DWIDTH 4 0
BBX 5 7 0 0
BITMAP
0A40
2A40
2000
2500
6500
9000
A900
ENDCHAR
STARTCHAR uni1EBD
ENCODING 7869
SWIDTH 518 0
DWIDTH 4 0
BBX 4 6 0 0
BITMAP
1A
04
26
AA
90
69
ENDCHAR
STARTCHAR uni1EBE
ENCODING 7870
SWIDTH 556 0
DWIDTH 4 0
BBX 6 8 0 0
BITMAP
0050
0A40
2A40
2000
2500
6500
9000
A900
ENDCHAR
STARTCHAR uni1EBF
ENCODING 7871
SWIDTH 518 0
DWIDTH 4 0
BBX 5 7 0 0
BITMAP
0040
1940
1400
2600
AA00
9000
6900
ENDCHAR
STARTCHAR uni1EC0
ENCODING 7872
SWIDTH 556 0
DWIDTH 4 0
BBX 5 8 0 0
BITMAP
1000
1A00
2A40
2000
2500
6500
9000
A900
ENDCHAR
STARTCHAR uni1EC1
ENCODING 7873
SWIDTH 518 0
DWIDTH 4 0
BBX 4 7 0 0
BITMAP
40
19
14
26
AA
90
69
ENDCHAR
STARTCHAR uni1EC2
ENCODING 7874
SWIDTH 556 0
DWIDTH 4 0
BBX 5 8 0 0
BITMAP
0040
0A40
2A40
2000
2500
6500
9000
A900
ENDCHAR
STARTCHAR uni1EC3
ENCODING 7875
SWIDTH 518 0
DWIDTH 4 0
BBX 5 7 0 0
BITMAP
0040
1940
1400
2600
AA00
9000
6900
ENDCHAR
STARTCHAR uni1EC4
ENCODING 7876
SWIDTH 556 0
DWIDTH 4 0
BBX 5 8 0 0
BITMAP
0500
0500
2A40
2000
2500
6500
9000
A900
ENDCHAR
STARTCHAR uni1EC5
ENCODING 7877
SWIDTH 518 0
DWIDTH 4 0
BBX 4 7 0 0
BITMAP
05
04
15
26
AA
90
69
ENDCHAR
STARTCHAR uni1EC6
ENCODING 7878
SWIDTH 556 0
DWIDTH 4 0
BBX 5 8 0 -1
BITMAP
0500
2A40
2000
2500
6500
9000
A900
1000
ENDCHAR
STARTCHAR uni1EC7
ENCODING 7879
SWIDTH 518 0
DWIDTH 4 0
BBX 4 8 0 -2
BITMAP
09
04
26
AA
90
69
10
10
ENDCHAR
STARTCHAR uni1EC8
ENCODING 7880
SWIDTH 268 0
DWIDTH 2 0
BBX 3 8 0 0
BITMAP
04
14
10
20
20
50
50
80
ENDCHAR
STARTCHAR uni1EC9
ENCODING 7881
SWIDTH 244 0
DWIDTH 2 0
BBX 3 7 0 0
BITMAP
10
14
10
50
50
80
80
ENDCHAR
STARTCHAR uni1ECA
ENCODING 7882
SWIDTH 268 0
DWIDTH 2 0
BBX 2 8 0 -2
BITMAP
10
20
20
50
50
80
40
40
ENDCHAR
STARTCHAR uni1ECB
ENCODING 7883
SWIDTH 240 0
DWIDTH 2 0
BBX 2 8 0 -2
BITMAP
10
00
50
50
80
80
40
40
ENDCHAR
STARTCHAR uni1ECC
ENCODING 7884
SWIDTH 671 0
DWIDTH 5 0
BBX 5 7 0 -1
BITMAP
0A40
2080
5080
5080
5180
2A00
0400
ENDCHAR
STARTCHAR uni1ECD
ENCODING 7885
SWIDTH 558 0
DWIDTH 4 0
BBX 4 7 0 -2
BITMAP
04
26
82
82
69
10
10
ENDCHAR
STARTCHAR uni1ECE
ENCODING 7886
SWIDTH 671 0
DWIDTH 5 0
BBX 5 8 0 0
BITMAP
0100
0200
0A40
2080
5080
5080
5180
2A00
ENDCHAR
STARTCHAR uni1ECF
ENCODING 7887
SWIDTH 558 0
DWIDTH 4 0
BBX 4 7 0 0
BITMAP
04
05
04
26
82
82
69
ENDCHAR
STARTCHAR uni1ED0
ENCODING 7888
SWIDTH 671 0
DWIDTH 5 0
BBX 6 8 0 0
BITMAP
0010
0640
0A40
2080
5080
5080
5180
2A00
ENDCHAR
STARTCHAR uni1ED1
ENCODING 7889
SWIDTH 558 0
DWIDTH 4 0
BBX 5 7 0 0
BITMAP
0040
1940
1400
2600
8200
8200
6900
ENDCHAR
STARTCHAR uni1ED2
ENCODING 7890
SWIDTH 671 0
DWIDTH 5 0
BBX 5 8 0 0
BITMAP
1000
0A40
0A40
2080
5080
5080
5180
2A00
ENDCHAR
STARTCHAR uni1ED3
ENCODING 7891
SWIDTH 558 0
DWIDTH 4 0
BBX 4 7 0 0
BITMAP
40
19
14
26
82
82
69
ENDCHAR
STARTCHAR uni1ED4
ENCODING 7892
SWIDTH 671 0
DWIDTH 5 0
BBX 6 8 0 0
BITMAP
0050
0640
0A40
2080
5080
5080
5180
2A00
ENDCHAR
STARTCHAR uni1ED5
ENCODING 7893
SWIDTH 558 0
DWIDTH 4 0
BBX 5 7 0 0
BITMAP
0040
0940
1500
2600
8200
8200
6900
ENDCHAR
STARTCHAR uni1ED6
ENCODING 7894
SWIDTH 671 0
DWIDTH 5 0
BBX 5 8 0 0
BITMAP
0540
0600
0A40
2080
5080
5080
5180
2A00
ENDCHAR
STARTCHAR uni1ED7
ENCODING 7895
SWIDTH 558 0
DWIDTH 4 0
BBX 4 7 0 0
BITMAP
05
05
15
26
82
82
69
ENDCHAR
STARTCHAR uni1ED8
ENCODING 7896
SWIDTH 671 0
DWIDTH 5 0
BBX 5 8 0 -1
BITMAP
0640
0A40
2080
5080
5080
5180
2A00
0400
ENDCHAR
STARTCHAR uni1ED9
ENCODING 7897
SWIDTH 558 0
DWIDTH 4 0
BBX 4 8 0 -2
BITMAP
09
04
26
82
82
69
10
10
ENDCHAR
STARTCHAR uni1EDA
ENCODING 7898
SWIDTH 670 0
DWIDTH 5 0
BBX 6 7 0 0
BITMAP
0200
0A60
20C0
5080
9080
5140
2A00
ENDCHAR
STARTCHAR uni1EDB
ENCODING 7899
SWIDTH 559 0
DWIDTH 4 0
BBX 5 6 0 0
BITMAP
0600
0440
2740
8200
8200
6900
ENDCHAR
STARTCHAR uni1EDC
ENCODING 7900
SWIDTH 670 0
DWIDTH 5 0
BBX 6 7 0 0
BITMAP
0500
0A60
20C0
5080
9080
5140
2A00
ENDCHAR
STARTCHAR uni1EDD
ENCODING 7901
SWIDTH 559 0
DWIDTH 4 0
BBX 5 6 0 0
BITMAP
0800
0440
2740
8200
8200
6900
ENDCHAR
STARTCHAR uni1EDE
ENCODING 7902
SWIDTH 670 0
DWIDTH 5 0
BBX 6 8 0 0
BITMAP
0100
0200
0A60
20C0
5080
9080
5140
2A00
ENDCHAR
STARTCHAR uni1EDF
ENCODING 7903
SWIDTH 559 0
DWIDTH 4 0
BBX 5 7 0 0
BITMAP
0500
0500
0440
2740
8200
8200
6900
ENDCHAR
STARTCHAR uni1EE0
ENCODING 7904
SWIDTH 670 0
DWIDTH 5 0
BBX 6 7 0 0
BITMAP
0A40
0A60
20C0
5080
9080
5140
2A00
ENDCHAR
STARTCHAR uni1EE1
ENCODING 7905
SWIDTH 559 0
DWIDTH 4 0
BBX 5 6 0 0
BITMAP
1A00
0440
2740
8200
8200
6900
ENDCHAR
STARTCHAR uni1EE2
ENCODING 7906
SWIDTH 670 0
DWIDTH 5 0
BBX 6 7 0 -1
BITMAP
0A60
20C0
5080
9080
5140
2A00
0400
ENDCHAR
STARTCHAR uni1EE3
ENCODING 7907
SWIDTH 559 0
DWIDTH 4 0
BBX 5 7 0 -2
BITMAP
0440
2740
8200
8200
6900
1000
1000
ENDCHAR
STARTCHAR uni1EE4
ENCODING 7908
SWIDTH 633 0
DWIDTH 5 0
BBX 5 7 0 -1
BITMAP
1040
2080
5080
5080
5140
2A00
1000
ENDCHAR
STARTCHAR uni1EE5
ENCODING 7909
SWIDTH 539 0
DWIDTH 4 0
BBX 4 6 0 -2
BITMAP
52
52
82
69
10
10
ENDCHAR
STARTCHAR uni1EE6
ENCODING 7910
SWIDTH 633 0
DWIDTH 5 0
BBX 5 8 0 0
BITMAP
0100
0200
1040
2080
5080
5080
5140
2A00
ENDCHAR
STARTCHAR uni1EE7
ENCODING 7911
SWIDTH 539 0
DWIDTH 4 0
BBX 4 7 0 0
BITMAP
04
05
00
52
52
82
69
ENDCHAR
STARTCHAR uni1EE8
ENCODING 7912
SWIDTH 679 0
DWIDTH 5 0
BBX 7 7 0 0
BITMAP
0200
2054
2090
6080
5080
5140
2A00
ENDCHAR
STARTCHAR uni1EE9
ENCODING 7913
SWIDTH 604 0
DWIDTH 5 0
BBX 5 6 0 0
BITMAP
0500
0040
5240
5200
8200
6900
ENDCHAR
STARTCHAR uni1EEA
ENCODING 7914
SWIDTH 679 0
DWIDTH 5 0
BBX 7 7 0 0
BITMAP
0500
2054
2090
6080
5080
5140
2A00
ENDCHAR
STARTCHAR uni1EEB
ENCODING 7915
SWIDTH 604 0
DWIDTH 5 0
BBX 5 6 0 0
BITMAP
0800
0040
5240
5200
8200
6900
ENDCHAR
STARTCHAR uni1EEC
ENCODING 7916
SWIDTH 679 0
DWIDTH 5 0
BBX 7 8 0 0
BITMAP
0100
0200
2054
2090
6080
5080
5140
2A00
ENDCHAR
STARTCHAR uni1EED
ENCODING 7917
SWIDTH 604 0
DWIDTH 5 0
BBX 5 7 0 0
BITMAP
0400
0500
0040
5240
5200
8200
6900
ENDCHAR
STARTCHAR uni1EEE
ENCODING 7918
SWIDTH 679 0
DWIDTH 5 0
BBX 7 7 0 0
BITMAP
0A40
2054
2090
6080
5080
5140
2A00
ENDCHAR
STARTCHAR uni1EEF
ENCODING 7919
SWIDTH 604 0
DWIDTH 5 0
BBX 5 6 0 0
BITMAP
1A00
1140
5240
5200
8200
6900
ENDCHAR
STARTCHAR uni1EF0
ENCODING 7920
SWIDTH 679 0
DWIDTH 5 0
BBX 7 6 0 0
BITMAP
2054
2090
6080
5080
5140
2A00
ENDCHAR
STARTCHAR uni1EF1
ENCODING 7921
SWIDTH 604 0
DWIDTH 5 0
BBX 5 7 0 -2
BITMAP
0040
5240
5200
8200
6900
1000
1000
ENDCHAR
STARTCHAR Ygrave
ENCODING 7922
SWIDTH 587 0
DWIDTH 5 0
BBX 4 8 1 0
BITMAP
10
10
42
85
98
70
60
50
ENDCHAR
STARTCHAR ygrave
ENCODING 7923
SWIDTH 463 0
DWIDTH 4 0
BBX 5 8 -1 -2
BITMAP
0500
0040
1580
1600
0A00
0C00
1800
6000
ENDCHAR
STARTCHAR uni1EF4
ENCODING 7924
SWIDTH 587 0
DWIDTH 5 0
BBX 4 8 1 -2
BITMAP
42
85
98
70
60
50
40
40
ENDCHAR
STARTCHAR uni1EF5
ENCODING 7925
SWIDTH 463 0
DWIDTH 4 0
BBX 5 7 -1 -2
BITMAP
0040
1580
1600
0A00
0C00
1800
6500
ENDCHAR
STARTCHAR uni1EF6
ENCODING 7926
SWIDTH 587 0
DWIDTH 5 0
BBX 4 8 1 0
BITMAP
04
04
42
85
98
70
60
50
ENDCHAR
STARTCHAR uni1EF7
ENCODING 7927
SWIDTH 463 0
DWIDTH 4 0
BBX 5 9 -1 -2
BITMAP
0100
0140
0040
1580
1600
0A00
0C00
1800
6000
ENDCHAR
STARTCHAR uni1EF8
ENCODING 7928
SWIDTH 587 0
DWIDTH 5 0
BBX 4 7 1 0
BITMAP
29
42
85
98
70
60
50
ENDCHAR
STARTCHAR uni1EF9
ENCODING 7929
SWIDTH 463 0
DWIDTH 4 0
BBX 5 8 -1 -2
BITMAP
0A40
0040
1580
1600
0A00
0C00
1800
6000
ENDCHAR
STARTCHAR uni1F4D
ENCODING 8013
SWIDTH 706 0
DWIDTH 6 0
BBX 7 6 -1 0
BITMAP
6290
4920
0814
1824
0820
0A90
ENDCHAR
STARTCHAR uni2000
ENCODING 8192
SWIDTH 499 0
DWIDTH 4 0
BBX 1 1 0 0
BITMAP
00
ENDCHAR
STARTCHAR uni2001
ENCODING 8193
SWIDTH 994 0
DWIDTH 8 0
BBX 1 1 0 0
BITMAP
00
ENDCHAR
STARTCHAR uni2002
ENCODING 8194
SWIDTH 499 0
DWIDTH 4 0
BBX 1 1 0 0
BITMAP
00
ENDCHAR
STARTCHAR uni2003
ENCODING 8195
SWIDTH 994 0
DWIDTH 8 0
BBX 1 1 0 0
BITMAP
00
ENDCHAR
STARTCHAR uni2004
ENCODING 8196
SWIDTH 334 0
DWIDTH 3 0
BBX 1 1 0 0
BITMAP
00
ENDCHAR
STARTCHAR uni2005
ENCODING 8197
SWIDTH 251 0
DWIDTH 2 0
BBX 1 1 0 0
BITMAP
00
ENDCHAR
STARTCHAR uni2006
ENCODING 8198
SWIDTH 169 0
DWIDTH 1 0
BBX 1 1 0 0
BITMAP
00
ENDCHAR
STARTCHAR uni2007
ENCODING 8199
SWIDTH 549 0
DWIDTH 4 0
BBX 1 1 0 0
BITMAP
00
ENDCHAR
STARTCHAR uni2008
ENCODING 8200
SWIDTH 270 0
DWIDTH 2 0
BBX 1 1 0 0
BITMAP
00
ENDCHAR
STARTCHAR uni2009
ENCODING 8201
SWIDTH 202 0
DWIDTH 2 0
BBX 1 1 0 0
BITMAP
00
ENDCHAR
STARTCHAR uni200A
ENCODING 8202
SWIDTH 104 0
DWIDTH 1 0
BBX 1 1 0 0
BITMAP
00
ENDCHAR
STARTCHAR uni200B
ENCODING 8203
SWIDTH 0 0
DWIDTH 0 0
BBX 1 1 0 0
BITMAP
00
ENDCHAR
STARTCHAR uni2010
ENCODING 8208
SWIDTH 271 0
DWIDTH 2 0
BBX 2 1 0 2
BITMAP
A0
ENDCHAR
STARTCHAR uni2011
ENCODING 8209
SWIDTH 271 0
DWIDTH 2 0
BBX 2 1 0 2
BITMAP
A0
ENDCHAR
STARTCHAR endash
ENCODING 8211
SWIDTH 641 0
DWIDTH 5 0
BBX 4 1 1 2
BITMAP
55
ENDCHAR
STARTCHAR emdash
ENCODING 8212
SWIDTH 762 0
DWIDTH 6 0
BBX 5 1 1 2
BITMAP
5540
ENDCHAR
STARTCHAR uni2015
ENCODING 8213
SWIDTH 762 0
DWIDTH 6 0
BBX 5 1 1 2
BITMAP
5540
ENDCHAR
STARTCHAR underscoredbl
ENCODING 8215
SWIDTH 446 0
DWIDTH 4 0
BBX 4 2 -1 -2
BITMAP
6A
6A
ENDCHAR
STARTCHAR quoteleft
ENCODING 8216
SWIDTH 198 0
DWIDTH 2 0
BBX 2 2 0 4
BITMAP
20
50
ENDCHAR
STARTCHAR quoteright
ENCODING 8217
SWIDTH 198 0
DWIDTH 2 0
BBX 2 2 0 4
BITMAP
20
50
ENDCHAR
STARTCHAR quotesinglbase
ENCODING 8218
SWIDTH 197 0
DWIDTH 2 0
BBX 2 2 -1 -1
BITMAP
10
50
ENDCHAR
STARTCHAR quotereversed
ENCODING 8219
SWIDTH 198 0
DWIDTH 2 0
BBX 1 2 1 4
BITMAP
80
40
ENDCHAR
STARTCHAR quotedblleft
ENCODING 8220
SWIDTH 347 0
DWIDTH 3 0
BBX 2 2 1 4
BITMAP
A0
60
ENDCHAR
STARTCHAR quotedblright
ENCODING 8221
SWIDTH 351 0
DWIDTH 3 0
BBX 3 2 0 4
BITMAP
28
54
ENDCHAR
STARTCHAR quotedblbase
ENCODING 8222
SWIDTH 338 0
DWIDTH 3 0
BBX 3 2 -1 -1
BITMAP
28
68
ENDCHAR
STARTCHAR dagger
ENCODING 8224
SWIDTH 539 0
DWIDTH 4 0
BBX 4 6 0 0
BITMAP
04
19
59
18
14
24
ENDCHAR
STARTCHAR daggerdbl
ENCODING 8225
SWIDTH 557 0
DWIDTH 4 0
BBX 4 8 0 -2
BITMAP
04
19
19
08
14
A9
20
10
ENDCHAR
STARTCHAR bullet
ENCODING 8226
SWIDTH 331 0
DWIDTH 3 0
BBX 2 2 0 2
BITMAP
20
60
ENDCHAR
STARTCHAR twodotenleader
ENCODING 8229
SWIDTH 461 0
DWIDTH 4 0
BBX 3 1 0 0
BITMAP
88
ENDCHAR
STARTCHAR ellipsis
ENCODING 8230
SWIDTH 653 0
DWIDTH 5 0
BBX 5 1 0 0
BITMAP
8940
ENDCHAR
STARTCHAR uni2027
ENCODING 8231
SWIDTH 186 0
DWIDTH 1 0
BBX 1 1 0 2
BITMAP
40
ENDCHAR
STARTCHAR perthousand
ENCODING 8240
SWIDTH 934 0
DWIDTH 7 0
BBX 7 6 0 0
BITMAP
2400
5840
2600
0954
1658
12A8
ENDCHAR
STARTCHAR minute
ENCODING 8242
SWIDTH 173 0
DWIDTH 1 0
BBX 2 2 0 4
BITMAP
10
50
ENDCHAR
STARTCHAR second
ENCODING 8243
SWIDTH 314 0
DWIDTH 3 0
BBX 2 2 1 4
BITMAP
A0
50
ENDCHAR
STARTCHAR guilsinglleft
ENCODING 8249
SWIDTH 295 0
DWIDTH 2 0
BBX 2 4 0 0
BITMAP
10
50
50
10
ENDCHAR
STARTCHAR guilsinglright
ENCODING 8250
SWIDTH 295 0
DWIDTH 2 0
BBX 2 4 0 0
BITMAP
50
20
50
40
ENDCHAR
STARTCHAR exclamdbl
ENCODING 8252
SWIDTH 508 0
DWIDTH 4 0
BBX 4 6 0 0
BITMAP
11
22
22
55
00
44
ENDCHAR
STARTCHAR fraction
ENCODING 8260
SWIDTH 445 0
DWIDTH 4 0
BBX 4 5 0 0
BITMAP
01
08
20
50
40
ENDCHAR
STARTCHAR uni2074
ENCODING 8308
SWIDTH 360 0
DWIDTH 3 0
BBX 3 3 0 3
BITMAP
08
28
68
ENDCHAR
STARTCHAR uni207F
ENCODING 8319
SWIDTH 414 0
DWIDTH 3 0
BBX 4 4 0 2
BITMAP
28
55
58
44
ENDCHAR
STARTCHAR franc
ENCODING 8355
SWIDTH 541 0
DWIDTH 4 0
BBX 5 6 0 0
BITMAP
2A40
2000
2000
6500
E400
8000
ENDCHAR
STARTCHAR lira
ENCODING 8356
SWIDTH 568 0
DWIDTH 5 0
BBX 5 6 0 0
BITMAP
0A00
2140
6400
7400
6000
AA00
ENDCHAR
STARTCHAR uni20A6
ENCODING 8358
SWIDTH 772 0
DWIDTH 6 0
BBX 6 6 0 0
BITMAP
1410
2860
7EA0
7AA0
62C0
51C0
ENDCHAR
STARTCHAR peseta
ENCODING 8359
SWIDTH 800 0
DWIDTH 6 0
BBX 6 6 0 0
BITMAP
2900
2260
2290
6980
9080
8090
ENDCHAR
STARTCHAR uni20A8
ENCODING 8360
SWIDTH 1030 0
DWIDTH 8 0
BBX 8 6 0 0
BITMAP
2A00
2184
21A6
6A24
9246
8269
ENDCHAR
STARTCHAR uni20A9
ENCODING 8361
SWIDTH 722 0
DWIDTH 6 0
BBX 6 6 0 0
BITMAP
1220
2620
6BA0
6A90
3680
3200
ENDCHAR
STARTCHAR uni20AA
ENCODING 8362
SWIDTH 752 0
DWIDTH 6 0
BBX 6 5 0 0
BITMAP
1400
6620
5A50
9950
9A80
ENDCHAR
STARTCHAR dong
ENCODING 8363
SWIDTH 566 0
DWIDTH 5 0
BBX 5 8 0 -2
BITMAP
0280
0640
6700
8200
8200
6A00
5500
5400
ENDCHAR
STARTCHAR Euro
ENCODING 8364
SWIDTH 549 0
DWIDTH 4 0
BBX 5 6 0 0
BITMAP
0640
1400
7500
7400
2000
1900
ENDCHAR
STARTCHAR uni20B1
ENCODING 8369
SWIDTH 714 0
DWIDTH 6 0
BBX 6 6 0 0
BITMAP
1A40
7AE0
7AD0
3A40
5000
5000
ENDCHAR
STARTCHAR uni20B9
ENCODING 8377
SWIDTH 505 0
DWIDTH 4 0
BBX 5 6 0 0
BITMAP
2A40
1A00
5900
A400
2000
1400
ENDCHAR
STARTCHAR uni20BA
ENCODING 8378
SWIDTH 544 0
DWIDTH 4 0
BBX 4 6 0 0
BITMAP
14
28
78
B2
22
68
ENDCHAR
STARTCHAR uni20BC
ENCODING 8380
SWIDTH 645 0
DWIDTH 5 0
BBX 5 4 0 0
BITMAP
0900
6A40
8940
8940
ENDCHAR
STARTCHAR uni20BD
ENCODING 8381
SWIDTH 648 0
DWIDTH 5 0
BBX 5 6 0 0
BITMAP
1A40
2080
2080
BA40
A400
5000
ENDCHAR
STARTCHAR uni2105
ENCODING 8453
SWIDTH 720 0
DWIDTH 6 0
BBX 4 6 1 0
BITMAP
50
51
98
15
59
4A
ENDCHAR
STARTCHAR uni2113
ENCODING 8467
SWIDTH 466 0
DWIDTH 4 0
BBX 4 6 0 0
BITMAP
0A
16
29
74
60
24
ENDCHAR
STARTCHAR uni2116
ENCODING 8470
SWIDTH 1002 0
DWIDTH 8 0
BBX 8 6 0 0
BITMAP
2049
34A2
68A6
5954
8754
8300
ENDCHAR
STARTCHAR trademark
ENCODING 8482
SWIDTH 611 0
DWIDTH 5 0
BBX 4 2 1 4
BITMAP
51
59
ENDCHAR
STARTCHAR uni03A9.dup2
ENCODING 8486
SWIDTH 649 0
DWIDTH 5 0
BBX 5 6 0 0
BITMAP
1A00
2080
5080
5080
5140
B700
ENDCHAR
STARTCHAR estimated
ENCODING 8494
SWIDTH 622 0
DWIDTH 5 0
BBX 5 5 0 0
BITMAP
0400
2500
6640
5000
1500
ENDCHAR
STARTCHAR oneeighth
ENCODING 8539
SWIDTH 750 0
DWIDTH 6 0
BBX 5 6 1 0
BITMAP
4000
8500
8800
6A40
4A00
4A00
ENDCHAR
STARTCHAR threeeighths
ENCODING 8540
SWIDTH 833 0
DWIDTH 7 0
BBX 6 6 0 0
BITMAP
1400
1840
5940
15A0
08A0
11A0
ENDCHAR
STARTCHAR fiveeighths
ENCODING 8541
SWIDTH 830 0
DWIDTH 7 0
BBX 5 6 1 0
BITMAP
A000
9200
2500
5680
2280
4680
ENDCHAR
STARTCHAR seveneighths
ENCODING 8542
SWIDTH 782 0
DWIDTH 6 0
BBX 5 6 1 0
BITMAP
A000
2100
8800
5680
5640
4640
ENDCHAR
STARTCHAR partialdiff
ENCODING 8706
SWIDTH 557 0
DWIDTH 4 0
BBX 4 6 0 0
BITMAP
1A
02
2A
92
82
69
ENDCHAR
STARTCHAR uni0394.dup3
ENCODING 8710
SWIDTH 688 0
DWIDTH 6 0
BBX 5 6 0 0
BITMAP
0200
0A00
1600
2140
5080
EA80
ENDCHAR
STARTCHAR product
ENCODING 8719
SWIDTH 678 0
DWIDTH 5 0
BBX 5 7 0 -1
BITMAP
2A80
2080
6080
5080
9080
8140
8140
ENDCHAR
STARTCHAR summation
ENCODING 8721
SWIDTH 572 0
DWIDTH 5 0
BBX 6 7 -1 -1
BITMAP
0A90
0800
0600
0200
0600
1800
7A80
ENDCHAR
STARTCHAR minus
ENCODING 8722
SWIDTH 559 0
DWIDTH 4 0
BBX 3 1 1 2
BITMAP
54
ENDCHAR
STARTCHAR radical
ENCODING 8730
SWIDTH 583 0
DWIDTH 5 0
BBX 5 6 0 0
BITMAP
0080
0140
0200
6500
2800
2400
ENDCHAR
STARTCHAR infinity
ENCODING 8734
SWIDTH 1002 0
DWIDTH 8 0
BBX 8 5 0 0
BITMAP
0414
2659
9182
8245
69A8
ENDCHAR
STARTCHAR integral
ENCODING 8747
SWIDTH 252 0
DWIDTH 2 0
BBX 4 8 -1 -2
BITMAP
0A
08
18
14
14
20
20
90
ENDCHAR
STARTCHAR approxequal
ENCODING 8776
SWIDTH 551 0
DWIDTH 4 0
BBX 4 3 0 1
BITMAP
6A
11
5A
ENDCHAR
STARTCHAR notequal
ENCODING 8800
SWIDTH 537 0
DWIDTH 4 0
BBX 4 4 0 1
BITMAP
01
2A
14
65
ENDCHAR
STARTCHAR lessequal
ENCODING 8804
SWIDTH 498 0
DWIDTH 4 0
BBX 4 4 0 0
BITMAP
19
60
08
A8
ENDCHAR
STARTCHAR greaterequal
ENCODING 8805
SWIDTH 512 0
DWIDTH 4 0
BBX 4 4 0 0
BITMAP
28
1A
50
A9
ENDCHAR
STARTCHAR lozenge
ENCODING 9674
SWIDTH 493 0
DWIDTH 4 0
BBX 4 6 0 0
BITMAP
08
29
52
86
58
24
ENDCHAR
STARTCHAR uniEE01
ENCODING 60929
SWIDTH 283 0
DWIDTH 2 0
BBX 2 4 0 1
BITMAP
20
00
00
40
ENDCHAR
STARTCHAR uniEE02
ENCODING 60930
SWIDTH 314 0
DWIDTH 3 0
BBX 3 2 0 2
BITMAP
54
50
ENDCHAR
STARTCHAR uniF6C3
ENCODING 63171
SWIDTH 249 0
DWIDTH 2 0
BBX 1 2 0 -1
BITMAP
80
40
ENDCHAR
STARTCHAR uniFB01
ENCODING 64257
SWIDTH 541 0
DWIDTH 4 0
BBX 4 6 0 0
BITMAP
1A
20
66
52
52
85
ENDCHAR
STARTCHAR uniFB02
ENCODING 64258
SWIDTH 555 0
DWIDTH 4 0
BBX 5 6 0 0
BITMAP
1A40
2600
6600
2200
5200
5500
ENDCHAR
STARTCHAR uniFB03
ENCODING 64259
SWIDTH 833 0
DWIDTH 7 0
BBX 7 6 0 0
BITMAP
19A0
2640
6654
2220
5220
5520
ENDCHAR
STARTCHAR uniFB04
ENCODING 64260
SWIDTH 833 0
DWIDTH 7 0
BBX 7 6 0 0
BITMAP
19A4
2654
6654
2220
5220
5520
ENDCHAR
STARTCHAR uniFEFF
ENCODING 65279
SWIDTH 0 0
DWIDTH 0 0
BBX 1 1 0 0
BITMAP
00
ENDCHAR
STARTCHAR uniFFFC
ENCODING 65532
SWIDTH 999 0
DWIDTH 8 0
BBX 8 8 0 -2
BITMAP
2555
0001
4001
5585
5655
4001
4000
5554
ENDCHAR
STARTCHAR uniFFFD
ENCODING 65533
SWIDTH 1025 0
DWIDTH 8 0
BBX 8 7 0 -1
BITMAP
0280
0BE0
2D68
7F7E
2EB8
0AA0
0280
ENDCHAR
STARTCHAR .notdef
ENCODING -1
SWIDTH 448 0
DWIDTH 4 0
BBX 3 6 0 0
BITMAP
54
44
54
50
54
54
ENDCHAR
STARTCHAR glyph369
ENCODING -1
SWIDTH 383 0
DWIDTH 3 0
BBX 2 2 1 4
BITMAP
90
50
ENDCHAR
STARTCHAR uni2009.locl
ENCODING -1
SWIDTH 125 0
DWIDTH 1 0
BBX 1 1 0 0
BITMAP
00
ENDCHAR
STARTCHAR f_f.dlig
ENCODING -1
SWIDTH 604 0
DWIDTH 5 0
BBX 6 6 0 0
BITMAP
1990
2640
6640
2200
5200
5500
ENDCHAR
STARTCHAR longs_t.dlig
ENCODING -1
SWIDTH 602 0
DWIDTH 5 0
BBX 5 6 0 0
BITMAP
1A00
2240
6640
2200
5200
5200
ENDCHAR
STARTCHAR s_t.dlig
ENCODING -1
SWIDTH 805 0
DWIDTH 6 0
BBX 6 6 0 0
BITMAP
0290
0660
6660
6450
4950
6860
ENDCHAR
STARTCHAR two.dnom
ENCODING -1
SWIDTH 360 0
DWIDTH 3 0
BBX 3 3 0 0
BITMAP
64
20
A0
ENDCHAR
STARTCHAR one.dnom
ENCODING -1
SWIDTH 360 0
DWIDTH 3 0
BBX 2 3 0 0
BITMAP
60
20
20
ENDCHAR
STARTCHAR zero.dnom
ENCODING -1
SWIDTH 360 0
DWIDTH 3 0
BBX 3 3 0 0
BITMAP
64
94
A0
ENDCHAR
STARTCHAR nine.c2sc
ENCODING -1
SWIDTH 497 0
DWIDTH 4 0
BBX 4 5 0 0
BITMAP
18
56
56
19
24
ENDCHAR
STARTCHAR eight.c2sc
ENCODING -1
SWIDTH 497 0
DWIDTH 4 0
BBX 4 5 0 0
BITMAP
18
66
28
85
A8
ENDCHAR
STARTCHAR seven.c2sc
ENCODING -1
SWIDTH 497 0
DWIDTH 4 0
BBX 4 5 0 0
BITMAP
6A
06
08
24
60
ENDCHAR
STARTCHAR six.c2sc
ENCODING -1
SWIDTH 496 0
DWIDTH 4 0
BBX 4 5 0 0
BITMAP
04
20
69
85
68
ENDCHAR
STARTCHAR five.c2sc
ENCODING -1
SWIDTH 497 0
DWIDTH 4 0
BBX 4 5 0 0
BITMAP
19
20
69
05
68
ENDCHAR
STARTCHAR four.c2sc
ENCODING -1
SWIDTH 497 0
DWIDTH 4 0
BBX 4 5 0 0
BITMAP
05
1D
28
ED
08
ENDCHAR
STARTCHAR three.c2sc
ENCODING -1
SWIDTH 497 0
DWIDTH 4 0
BBX 4 5 0 0
BITMAP
18
56
18
05
A8
ENDCHAR
STARTCHAR two.c2sc
ENCODING -1
SWIDTH 497 0
DWIDTH 4 0
BBX 4 5 0 0
BITMAP
18
56
09
24
A9
ENDCHAR
STARTCHAR one.c2sc
ENCODING -1
SWIDTH 497 0
DWIDTH 4 0
BBX 2 5 1 0
BITMAP
10
A0
20
50
50
ENDCHAR
STARTCHAR zero.c2sc
ENCODING -1
SWIDTH 497 0
DWIDTH 4 0
BBX 4 5 0 0
BITMAP
18
56
82
85
68
ENDCHAR
STARTCHAR Z.c2sc
ENCODING -1
SWIDTH 506 0
DWIDTH 4 0
BBX 4 5 0 0
BITMAP
6A
05
18
60
E9
ENDCHAR
STARTCHAR Y.c2sc
ENCODING -1
SWIDTH 510 0
DWIDTH 4 0
BBX 4 5 0 0
BITMAP
41
26
28
24
20
ENDCHAR
STARTCHAR X.c2sc
ENCODING -1
SWIDTH 529 0
DWIDTH 4 0
BBX 4 5 0 0
BITMAP
11
26
18
28
85
ENDCHAR
STARTCHAR W.c2sc
ENCODING -1
SWIDTH 742 0
DWIDTH 6 0
BBX 6 5 0 0
BITMAP
4110
5620
5A50
6680
2140
ENDCHAR
STARTCHAR V.c2sc
ENCODING -1
SWIDTH 538 0
DWIDTH 4 0
BBX 5 5 0 0
BITMAP
4140
5200
2500
2800
2400
ENDCHAR
STARTCHAR U.c2sc
ENCODING -1
SWIDTH 548 0
DWIDTH 4 0
BBX 4 5 0 0
BITMAP
11
52
52
82
69
ENDCHAR
STARTCHAR T.c2sc
ENCODING -1
SWIDTH 507 0
DWIDTH 4 0
BBX 4 5 0 0
BITMAP
6A
18
14
14
20
ENDCHAR
STARTCHAR S.c2sc
ENCODING -1
SWIDTH 504 0
DWIDTH 4 0
BBX 4 5 0 0
BITMAP
19
52
24
45
A9
ENDCHAR
STARTCHAR R.c2sc
ENCODING -1
SWIDTH 524 0
DWIDTH 4 0
BBX 4 5 0 0
BITMAP
29
52
66
98
85
ENDCHAR
STARTCHAR Q.c2sc
ENCODING -1
SWIDTH 578 0
DWIDTH 5 0
BBX 5 6 0 -1
BITMAP
1900
6200
8140
8200
6900
0500
ENDCHAR
STARTCHAR P.c2sc
ENCODING -1
SWIDTH 533 0
DWIDTH 4 0
BBX 4 5 0 0
BITMAP
29
52
56
94
80
ENDCHAR
STARTCHAR O.c2sc
ENCODING -1
SWIDTH 578 0
DWIDTH 5 0
BBX 5 5 0 0
BITMAP
1900
6200
8140
8200
6900
ENDCHAR
STARTCHAR N.c2sc
ENCODING -1
SWIDTH 597 0
DWIDTH 5 0
BBX 5 5 0 0
BITMAP
1040
7140
5940
8A00
8300
ENDCHAR
STARTCHAR M.c2sc
ENCODING -1
SWIDTH 733 0
DWIDTH 6 0
BBX 6 5 0 0
BITMAP
1050
70A0
6590
9A80
8880
ENDCHAR
STARTCHAR L.c2sc
ENCODING -1
SWIDTH 454 0
DWIDTH 4 0
BBX 3 5 0 0
BITMAP
10
50
50
80
A8
ENDCHAR
STARTCHAR K.c2sc
ENCODING -1
SWIDTH 529 0
DWIDTH 4 0
BBX 4 5 0 0
BITMAP
11
59
78
98
85
ENDCHAR
STARTCHAR J.c2sc
ENCODING -1
SWIDTH 466 0
DWIDTH 4 0
BBX 4 5 0 0
BITMAP
01
05
05
48
A8
ENDCHAR
STARTCHAR I.c2sc
ENCODING -1
SWIDTH 235 0
DWIDTH 2 0
BBX 2 5 0 0
BITMAP
10
50
50
80
80
ENDCHAR
STARTCHAR H.c2sc
ENCODING -1
SWIDTH 597 0
DWIDTH 5 0
BBX 5 5 0 0
BITMAP
1040
5140
6A40
8200
8200
ENDCHAR
STARTCHAR G.c2sc
ENCODING -1
SWIDTH 571 0
DWIDTH 5 0
BBX 4 5 0 0
BITMAP
19
62
85
86
6A
ENDCHAR
STARTCHAR F.c2sc
ENCODING -1
SWIDTH 464 0
DWIDTH 4 0
BBX 4 5 0 0
BITMAP
29
50
68
80
80
ENDCHAR
STARTCHAR dollar.c2sc
ENCODING -1
SWIDTH 504 0
DWIDTH 4 0
BBX 4 7 0 -1
BITMAP
04
19
52
24
45
A9
20
ENDCHAR
STARTCHAR sterling.c2sc
ENCODING -1
SWIDTH 514 0
DWIDTH 4 0
BBX 4 5 0 0
BITMAP
19
22
64
50
A9
ENDCHAR
STARTCHAR yen.c2sc
ENCODING -1
SWIDTH 444 0
DWIDTH 4 0
BBX 4 5 0 0
BITMAP
41
59
28
B8
20
ENDCHAR
STARTCHAR Gamma.c2sc
ENCODING -1
SWIDTH 451 0
DWIDTH 4 0
BBX 4 5 0 0
BITMAP
29
50
50
80
80
ENDCHAR
STARTCHAR uni0394.c2sc
ENCODING -1
SWIDTH 538 0
DWIDTH 4 0
BBX 4 5 0 0
BITMAP
04
18
25
55
EA
ENDCHAR
STARTCHAR Theta.c2sc
ENCODING -1
SWIDTH 578 0
DWIDTH 5 0
BBX 5 5 0 0
BITMAP
1900
6200
9A40
8200
6900
ENDCHAR
STARTCHAR Lambda.c2sc
ENCODING -1
SWIDTH 538 0
DWIDTH 4 0
BBX 4 5 0 0
BITMAP
04
18
25
55
82
ENDCHAR
STARTCHAR Xi.c2sc
ENCODING -1
SWIDTH 433 0
DWIDTH 3 0
BBX 4 5 0 0
BITMAP
69
00
68
00
A8
ENDCHAR
STARTCHAR Pi.c2sc
ENCODING -1
SWIDTH 587 0
DWIDTH 5 0
BBX 5 5 0 0
BITMAP
2A40
5140
5240
8200
8200
ENDCHAR
STARTCHAR Sigma.c2sc
ENCODING -1
SWIDTH 481 0
DWIDTH 4 0
BBX 4 5 0 0
BITMAP
69
60
24
60
E9
ENDCHAR
STARTCHAR Phi.c2sc
ENCODING -1
SWIDTH 660 0
DWIDTH 5 0
BBX 5 5 0 0
BITMAP
0500
2A40
9880
5980
1D00
ENDCHAR
STARTCHAR Psi.c2sc
ENCODING -1
SWIDTH 622 0
DWIDTH 5 0
BBX 5 5 0 0
BITMAP
1440
5880
5940
2E00
1800
ENDCHAR
STARTCHAR uni03A9.c2sc
ENCODING -1
SWIDTH 604 0
DWIDTH 5 0
BBX 5 5 0 0
BITMAP
1900
6240
9140
5200
AA00
ENDCHAR
STARTCHAR uni0402.c2sc
ENCODING -1
SWIDTH 665 0
DWIDTH 5 0
BBX 5 5 0 0
BITMAP
6A00
1400
1A40
2080
2240
ENDCHAR
STARTCHAR uni0404.c2sc
ENCODING -1
SWIDTH 548 0
DWIDTH 4 0
BBX 4 5 0 0
BITMAP
19
62
A4
81
69
ENDCHAR
STARTCHAR uni0409.c2sc
ENCODING -1
SWIDTH 884 0
DWIDTH 7 0
BBX 7 5 0 0
BITMAP
1A40
2140
22A4
2218
83A4
ENDCHAR
STARTCHAR uni040A.c2sc
ENCODING -1
SWIDTH 891 0
DWIDTH 7 0
BBX 7 5 0 0
BITMAP
1040
5140
6AA4
8208
82A4
ENDCHAR
STARTCHAR uni040B.c2sc
ENCODING -1
SWIDTH 666 0
DWIDTH 5 0
BBX 5 5 0 0
BITMAP
6A00
1400
1A40
2080
2080
ENDCHAR
STARTCHAR uni040F.c2sc
ENCODING -1
SWIDTH 586 0
DWIDTH 5 0
BBX 5 7 0 -2
BITMAP
1040
5140
5200
8200
AA00
2400
1000
ENDCHAR
STARTCHAR uni0411.c2sc
ENCODING -1
SWIDTH 532 0
DWIDTH 4 0
BBX 4 5 0 0
BITMAP
29
50
69
82
A9
ENDCHAR
STARTCHAR uni0414.c2sc
ENCODING -1
SWIDTH 628 0
DWIDTH 5 0
BBX 6 7 -1 -2
BITMAP
0690
0950
0850
1880
3AD0
5050
0040
ENDCHAR
STARTCHAR uni0416.c2sc
ENCODING -1
SWIDTH 737 0
DWIDTH 6 0
BBX 6 5 0 0
BITMAP
1110
2590
2A40
2980
8880
ENDCHAR
STARTCHAR uni0417.c2sc
ENCODING -1
SWIDTH 519 0
DWIDTH 4 0
BBX 4 5 0 0
BITMAP
19
52
19
45
A8
ENDCHAR
STARTCHAR uni0418.c2sc
ENCODING -1
SWIDTH 601 0
DWIDTH 5 0
BBX 5 5 0 0
BITMAP
1040
5240
5940
A200
9200
ENDCHAR
STARTCHAR uni041A.c2sc
ENCODING -1
SWIDTH 526 0
DWIDTH 4 0
BBX 4 5 0 0
BITMAP
11
59
64
98
89
ENDCHAR
STARTCHAR uni041B.c2sc
ENCODING -1
SWIDTH 581 0
DWIDTH 5 0
BBX 5 5 0 0
BITMAP
1A40
2140
2200
2200
8200
ENDCHAR
STARTCHAR uni0423.c2sc
ENCODING -1
SWIDTH 504 0
DWIDTH 4 0
BBX 4 5 0 0
BITMAP
51
62
28
28
60
ENDCHAR
STARTCHAR uni0426.c2sc
ENCODING -1
SWIDTH 629 0
DWIDTH 5 0
BBX 5 6 0 -1
BITMAP
1040
5140
5240
8200
AB40
0140
ENDCHAR
STARTCHAR uni0427.c2sc
ENCODING -1
SWIDTH 540 0
DWIDTH 4 0
BBX 4 5 0 0
BITMAP
51
92
56
16
05
ENDCHAR
STARTCHAR uni0428.c2sc
ENCODING -1
SWIDTH 770 0
DWIDTH 6 0
BBX 6 5 0 0
BITMAP
1110
5220
5520
8550
AA90
ENDCHAR
STARTCHAR uni0429.c2sc
ENCODING -1
SWIDTH 813 0
DWIDTH 7 0
BBX 6 7 0 -2
BITMAP
1110
5220
5520
8550
AAA0
0020
0010
ENDCHAR
STARTCHAR uni042A.c2sc
ENCODING -1
SWIDTH 625 0
DWIDTH 5 0
BBX 5 5 0 0
BITMAP
6400
2400
2A40
2140
3A00
ENDCHAR
STARTCHAR uni042B.c2sc
ENCODING -1
SWIDTH 725 0
DWIDTH 6 0
BBX 6 5 0 0
BITMAP
1010
5050
6950
8280
A980
ENDCHAR
STARTCHAR uni042C.c2sc
ENCODING -1
SWIDTH 526 0
DWIDTH 4 0
BBX 4 5 0 0
BITMAP
10
50
69
82
A9
ENDCHAR
STARTCHAR uni042D.c2sc
ENCODING -1
SWIDTH 548 0
DWIDTH 4 0
BBX 4 5 0 0
BITMAP
19
52
1B
42
69
ENDCHAR
STARTCHAR uni042E.c2sc
ENCODING -1
SWIDTH 788 0
DWIDTH 6 0
BBX 6 5 0 0
BITMAP
1180
5920
6820
8820
8680
ENDCHAR
STARTCHAR uni042F.c2sc
ENCODING -1
SWIDTH 553 0
DWIDTH 4 0
BBX 4 5 0 0
BITMAP
1A
62
26
22
82
ENDCHAR
STARTCHAR uni0492.c2sc
ENCODING -1
SWIDTH 498 0
DWIDTH 4 0
BBX 4 5 0 0
BITMAP
1A
20
B4
50
50
ENDCHAR
STARTCHAR uni0496.c2sc
ENCODING -1
SWIDTH 766 0
DWIDTH 6 0
BBX 6 6 0 -1
BITMAP
1110
2590
2A40
2980
8890
0050
ENDCHAR
STARTCHAR uni049A.c2sc
ENCODING -1
SWIDTH 547 0
DWIDTH 4 0
BBX 4 7 0 -2
BITMAP
11
59
64
98
8A
02
01
ENDCHAR
STARTCHAR uni049C.c2sc
ENCODING -1
SWIDTH 615 0
DWIDTH 5 0
BBX 5 5 0 0
BITMAP
1040
6200
7900
A500
8200
ENDCHAR
STARTCHAR uni04A0.c2sc
ENCODING -1
SWIDTH 637 0
DWIDTH 5 0
BBX 5 5 0 0
BITMAP
6440
1640
2900
2600
2240
ENDCHAR
STARTCHAR uni04A8.c2sc
ENCODING -1
SWIDTH 703 0
DWIDTH 6 0
BBX 5 5 0 0
BITMAP
1540
6980
9880
9880
2B80
ENDCHAR
STARTCHAR uni04B0.c2sc
ENCODING -1
SWIDTH 534 0
DWIDTH 4 0
BBX 4 5 0 0
BITMAP
41
26
28
7C
20
ENDCHAR
STARTCHAR uni04B2.c2sc
ENCODING -1
SWIDTH 569 0
DWIDTH 5 0
BBX 4 7 0 -2
BITMAP
11
26
18
28
86
02
01
ENDCHAR
STARTCHAR uni04B4.c2sc
ENCODING -1
SWIDTH 778 0
DWIDTH 6 0
BBX 6 7 0 -2
BITMAP
6A10
1450
1480
2080
2AD0
0050
0040
ENDCHAR
STARTCHAR uni04B8.c2sc
ENCODING -1
SWIDTH 540 0
DWIDTH 4 0
BBX 4 5 0 0
BITMAP
51
92
6A
26
05
ENDCHAR
STARTCHAR uni04BA.c2sc
ENCODING -1
SWIDTH 540 0
DWIDTH 4 0
BBX 4 5 0 0
BITMAP
10
50
69
82
82
ENDCHAR
STARTCHAR uni04BC.c2sc
ENCODING -1
SWIDTH 703 0
DWIDTH 6 0
BBX 6 5 0 0
BITMAP
0640
5880
7A90
2000
1A40
ENDCHAR
STARTCHAR uni04D8.c2sc
ENCODING -1
SWIDTH 585 0
DWIDTH 5 0
BBX 5 5 0 0
BITMAP
1900
0240
6A40
8200
6900
ENDCHAR
STARTCHAR uni04E0.c2sc
ENCODING -1
SWIDTH 519 0
DWIDTH 4 0
BBX 4 5 0 0
BITMAP
29
09
18
45
A8
ENDCHAR
STARTCHAR uni04E8.c2sc
ENCODING -1
SWIDTH 578 0
DWIDTH 5 0
BBX 5 5 0 0
BITMAP
1900
6200
AA40
8200
6900
ENDCHAR
STARTCHAR lira.c2sc
ENCODING -1
SWIDTH 514 0
DWIDTH 4 0
BBX 4 5 0 0
BITMAP
19
22
64
A4
A9
ENDCHAR
STARTCHAR Euro.c2sc
ENCODING -1
SWIDTH 476 0
DWIDTH 4 0
BBX 4 5 0 0
BITMAP
09
20
68
64
28
ENDCHAR
STARTCHAR uni2116.c2sc
ENCODING -1
SWIDTH 991 0
DWIDTH 8 0
BBX 8 5 0 0
BITMAP
1058
7162
5965
8A18
8314
ENDCHAR
STARTCHAR uni20BD.c2sc
ENCODING -1
SWIDTH 570 0
DWIDTH 5 0
BBX 5 5 0 0
BITMAP
1900
2140
6640
A400
9000
ENDCHAR
STARTCHAR three.dnom
ENCODING -1
SWIDTH 360 0
DWIDTH 3 0
BBX 3 3 0 0
BITMAP
64
20
A0
ENDCHAR
STARTCHAR four.dnom
ENCODING -1
SWIDTH 360 0
DWIDTH 3 0
BBX 3 3 0 0
BITMAP
24
A4
60
ENDCHAR
STARTCHAR five.dnom
ENCODING -1
SWIDTH 360 0
DWIDTH 3 0
BBX 3 3 0 0
BITMAP
54
64
60
ENDCHAR
STARTCHAR six.dnom
ENCODING -1
SWIDTH 360 0
DWIDTH 3 0
BBX 3 3 0 0
BITMAP
60
A4
A4
ENDCHAR
STARTCHAR seven.dnom
ENCODING -1
SWIDTH 360 0
DWIDTH 3 0
BBX 3 3 0 0
BITMAP
64
20
50
ENDCHAR
STARTCHAR eight.dnom
ENCODING -1
SWIDTH 360 0
DWIDTH 3 0
BBX 3 3 0 0
BITMAP
A4
A0
A0
ENDCHAR
STARTCHAR nine.dnom
ENCODING -1
SWIDTH 360 0
DWIDTH 3 0
BBX 3 3 0 0
BITMAP
A4
A4
60
ENDCHAR
STARTCHAR glyph550
ENCODING -1
SWIDTH 439 0
DWIDTH 4 0
BBX 3 1 0 2
BITMAP
54
ENDCHAR
STARTCHAR glyph551
ENCODING -1
SWIDTH 333 0
DWIDTH 3 0
BBX 2 3 1 4
BITMAP
10
50
40
ENDCHAR
STARTCHAR E.c2sc
ENCODING -1
SWIDTH 477 0
DWIDTH 4 0
BBX 4 5 0 0
BITMAP
29
50
68
80
A8
ENDCHAR
STARTCHAR g.ss01
ENCODING -1
SWIDTH 517 0
DWIDTH 4 0
BBX 5 7 -1 -2
BITMAP
0140
1980
1580
1900
2A00
5140
2900
ENDCHAR
STARTCHAR alpha.ss02
ENCODING -1
SWIDTH 582 0
DWIDTH 5 0
BBX 5 5 0 0
BITMAP
0400
2640
8200
8200
6A00
ENDCHAR
STARTCHAR R.ss03
ENCODING -1
SWIDTH 646 0
DWIDTH 5 0
BBX 5 6 0 0
BITMAP
2A40
2080
2180
6A00
5140
8140
ENDCHAR
STARTCHAR K.ss04
ENCODING -1
SWIDTH 628 0
DWIDTH 5 0
BBX 5 6 0 0
BITMAP
2080
2240
2900
6800
5600
8240
ENDCHAR
STARTCHAR k.ss04
ENCODING -1
SWIDTH 499 0
DWIDTH 4 0
BBX 4 6 0 0
BITMAP
20
21
55
68
98
89
ENDCHAR
STARTCHAR K.ss05
ENCODING -1
SWIDTH 640 0
DWIDTH 5 0
BBX 5 6 0 0
BITMAP
2080
2200
2800
6800
5900
8200
ENDCHAR
STARTCHAR k.ss05
ENCODING -1
SWIDTH 497 0
DWIDTH 4 0
BBX 4 6 0 0
BITMAP
20
21
59
74
A4
88
ENDCHAR
STARTCHAR D.c2sc
ENCODING -1
SWIDTH 550 0
DWIDTH 4 0
BBX 4 5 0 0
BITMAP
24
52
52
82
A8
ENDCHAR
STARTCHAR C.c2sc
ENCODING -1
SWIDTH 548 0
DWIDTH 4 0
BBX 4 5 0 0
BITMAP
19
62
80
81
69
ENDCHAR
STARTCHAR B.c2sc
ENCODING -1
SWIDTH 527 0
DWIDTH 4 0
BBX 4 5 0 0
BITMAP
29
52
69
86
A9
ENDCHAR
STARTCHAR A.c2sc
ENCODING -1
SWIDTH 552 0
DWIDTH 4 0
BBX 4 5 0 0
BITMAP
04
1C
25
AA
82
ENDCHAR
STARTCHAR glyph564
ENCODING -1
SWIDTH 246 0
DWIDTH 2 0
BBX 1 2 1 4
BITMAP
80
40
ENDCHAR
STARTCHAR glyph565
ENCODING -1
SWIDTH 446 0
DWIDTH 4 0
BBX 2 1 1 5
BITMAP
50
ENDCHAR
STARTCHAR glyph566
ENCODING -1
SWIDTH 0 0
DWIDTH 0 0
BBX 2 2 -3 5
BITMAP
10
60
ENDCHAR
STARTCHAR glyph567
ENCODING -1
SWIDTH 481 0
DWIDTH 4 0
BBX 4 2 1 5
BITMAP
01
64
ENDCHAR
STARTCHAR glyph568
ENCODING -1
SWIDTH 483 0
DWIDTH 4 0
BBX 3 2 0 5
BITMAP
40
58
ENDCHAR
STARTCHAR glyph569
ENCODING -1
SWIDTH 496 0
DWIDTH 4 0
BBX 4 2 1 5
BITMAP
05
64
ENDCHAR
STARTCHAR glyph570
ENCODING -1
SWIDTH 484 0
DWIDTH 4 0
BBX 3 2 1 5
BITMAP
54
50
ENDCHAR
STARTCHAR uni0490.c2sc
ENCODING -1
SWIDTH 451 0
DWIDTH 4 0
BBX 4 6 0 0
BITMAP
02
2A
50
50
80
80
ENDCHAR
STARTCHAR glyph572
ENCODING -1
SWIDTH 443 0
DWIDTH 4 0
BBX 2 2 1 5
BITMAP
10
60
ENDCHAR
STARTCHAR glyph573
ENCODING -1
SWIDTH 443 0
DWIDTH 4 0
BBX 2 2 1 5
BITMAP
20
60
ENDCHAR
STARTCHAR zero.numr
ENCODING -1
SWIDTH 360 0
DWIDTH 3 0
BBX 3 4 0 2
BITMAP
24
58
58
10
ENDCHAR
STARTCHAR four.numr
ENCODING -1
SWIDTH 360 0
DWIDTH 3 0
BBX 3 3 0 3
BITMAP
04
28
68
ENDCHAR
STARTCHAR five.numr
ENCODING -1
SWIDTH 360 0
DWIDTH 3 0
BBX 3 4 0 2
BITMAP
24
24
58
10
ENDCHAR
STARTCHAR six.numr
ENCODING -1
SWIDTH 360 0
DWIDTH 3 0
BBX 3 4 0 2
BITMAP
14
64
58
10
ENDCHAR
STARTCHAR seven.numr
ENCODING -1
SWIDTH 360 0
DWIDTH 3 0
BBX 2 4 1 2
BITMAP
A0
20
80
40
ENDCHAR
STARTCHAR eight.numr
ENCODING -1
SWIDTH 360 0
DWIDTH 3 0
BBX 3 4 0 2
BITMAP
24
28
58
10
ENDCHAR
STARTCHAR nine.numr
ENCODING -1
SWIDTH 360 0
DWIDTH 3 0
BBX 3 4 0 2
BITMAP
24
58
28
10
ENDCHAR
STARTCHAR C.ss06
ENCODING -1
SWIDTH 672 0
DWIDTH 5 0
BBX 5 6 0 0
BITMAP
0A40
2080
6000
5000
5080
2A40
ENDCHAR
STARTCHAR G.ss06
ENCODING -1
SWIDTH 693 0
DWIDTH 6 0
BBX 5 6 0 0
BITMAP
0A40
2080
5000
5280
5080
2A40
ENDCHAR
STARTCHAR D.ss06
ENCODING -1
SWIDTH 680 0
DWIDTH 5 0
BBX 5 6 0 0
BITMAP
2A00
2080
2080
5080
5180
AA00
ENDCHAR
STARTCHAR O.ss06
ENCODING -1
SWIDTH 717 0
DWIDTH 6 0
BBX 6 6 0 0
BITMAP
0A40
2480
5050
5090
5080
2A40
ENDCHAR
STARTCHAR Q.ss06
ENCODING -1
SWIDTH 718 0
DWIDTH 6 0
BBX 6 7 0 -1
BITMAP
0A40
2480
5050
5050
5080
2A00
0240
ENDCHAR
STARTCHAR one.oldstyle.pnum
ENCODING -1
SWIDTH 469 0
DWIDTH 4 0
BBX 2 5 1 0
BITMAP
10
A0
20
20
50
ENDCHAR
STARTCHAR two.oldstyle.pnum
ENCODING -1
SWIDTH 551 0
DWIDTH 4 0
BBX 4 5 0 0
BITMAP
19
62
05
14
B9
ENDCHAR
STARTCHAR three.oldstyle.pnum
ENCODING -1
SWIDTH 531 0
DWIDTH 4 0
BBX 5 7 -1 -2
BITMAP
1A80
0140
0600
0140
0140
5600
1400
ENDCHAR
STARTCHAR four.oldstyle.pnum
ENCODING -1
SWIDTH 587 0
DWIDTH 5 0
BBX 4 7 0 -2
BITMAP
01
0B
16
62
EA
05
04
ENDCHAR
STARTCHAR five.oldstyle.pnum
ENCODING -1
SWIDTH 540 0
DWIDTH 4 0
BBX 4 7 0 -2
BITMAP
1A
20
64
55
06
58
50
ENDCHAR
STARTCHAR seven.oldstyle.pnum
ENCODING -1
SWIDTH 511 0
DWIDTH 4 0
BBX 4 7 0 -2
BITMAP
6A
02
09
08
20
50
40
ENDCHAR
STARTCHAR glyph592
ENCODING -1
SWIDTH 446 0
DWIDTH 4 0
BBX 3 2 1 5
BITMAP
54
50
ENDCHAR
STARTCHAR glyph593
ENCODING -1
SWIDTH 194 0
DWIDTH 2 0
BBX 1 3 0 -2
BITMAP
40
80
40
ENDCHAR
STARTCHAR OE.c2sc
ENCODING -1
SWIDTH 810 0
DWIDTH 6 0
BBX 7 5 0 0
BITMAP
1AA4
6240
82A0
8200
6BA0
ENDCHAR
STARTCHAR nine.oldstyle.pnum
ENCODING -1
SWIDTH 577 0
DWIDTH 5 0
BBX 4 7 0 -2
BITMAP
19
22
52
67
16
58
10
ENDCHAR
STARTCHAR glyph596
ENCODING -1
SWIDTH 245 0
DWIDTH 2 0
BBX 2 3 -1 -2
BITMAP
10
20
90
ENDCHAR
STARTCHAR three.oldstyle
ENCODING -1
SWIDTH 549 0
DWIDTH 4 0
BBX 4 7 0 -2
BITMAP
2A
06
18
05
02
58
50
ENDCHAR
STARTCHAR five.oldstyle
ENCODING -1
SWIDTH 549 0
DWIDTH 4 0
BBX 4 7 0 -2
BITMAP
1A
20
64
56
02
59
50
ENDCHAR
STARTCHAR four.oldstyle
ENCODING -1
SWIDTH 549 0
DWIDTH 4 0
BBX 4 7 0 -2
BITMAP
01
0A
16
55
EA
08
04
ENDCHAR
STARTCHAR two.oldstyle
ENCODING -1
SWIDTH 549 0
DWIDTH 4 0
BBX 4 5 0 0
BITMAP
19
62
05
24
A9
ENDCHAR
STARTCHAR seven.oldstyle
ENCODING -1
SWIDTH 549 0
DWIDTH 4 0
BBX 5 7 0 -2
BITMAP
2A40
0200
0500
0800
2400
6000
4000
ENDCHAR
STARTCHAR zero.oldstyle
ENCODING -1
SWIDTH 549 0
DWIDTH 4 0
BBX 4 5 0 0
BITMAP
19
52
82
82
69
ENDCHAR
STARTCHAR six.oldstyle
ENCODING -1
SWIDTH 549 0
DWIDTH 4 0
BBX 4 6 0 0
BITMAP
05
24
69
52
92
69
ENDCHAR
STARTCHAR nine.oldstyle
ENCODING -1
SWIDTH 549 0
DWIDTH 4 0
BBX 4 7 0 -2
BITMAP
19
62
82
66
16
58
50
ENDCHAR
STARTCHAR eight.oldstyle
ENCODING -1
SWIDTH 549 0
DWIDTH 4 0
BBX 4 6 0 0
BITMAP
19
22
26
65
82
69
ENDCHAR
STARTCHAR one.oldstyle
ENCODING -1
SWIDTH 549 0
DWIDTH 4 0
BBX 3 5 1 0
BITMAP
10
A4
20
20
20
ENDCHAR
STARTCHAR glyph607
ENCODING -1
SWIDTH 250 0
DWIDTH 2 0
BBX 3 6 -1 -2
BITMAP
08
14
14
20
20
90
ENDCHAR
STARTCHAR glyph608
ENCODING -1
SWIDTH 249 0
DWIDTH 2 0
BBX 3 6 -1 -2
BITMAP
08
14
14
20
20
90
ENDCHAR
STARTCHAR glyph609
ENCODING -1
SWIDTH 245 0
DWIDTH 2 0
BBX 2 4 0 0
BITMAP
50
50
80
80
ENDCHAR
STARTCHAR glyph610
ENCODING -1
SWIDTH 245 0
DWIDTH 2 0
BBX 3 6 -1 -2
BITMAP
14
14
20
20
50
50
ENDCHAR
STARTCHAR glyph611
ENCODING -1
SWIDTH 245 0
DWIDTH 2 0
BBX 2 4 0 0
BITMAP
50
50
80
80
ENDCHAR
STARTCHAR germandbls.sc
ENCODING -1
SWIDTH 527 0
DWIDTH 4 0
BBX 4 5 0 0
BITMAP
19
65
58
82
99
ENDCHAR
STARTCHAR zero.oldstyle.pnum
ENCODING -1
SWIDTH 611 0
DWIDTH 5 0
BBX 5 5 0 0
BITMAP
1900
2240
5140
5200
2A00
ENDCHAR
STARTCHAR seven.pnum
ENCODING -1
SWIDTH 504 0
DWIDTH 4 0
BBX 4 6 0 0
BITMAP
2A
02
05
08
20
50
ENDCHAR
STARTCHAR b.ss06
ENCODING -1
SWIDTH 549 0
DWIDTH 4 0
BBX 4 6 0 0
BITMAP
20
24
66
52
82
A9
ENDCHAR
STARTCHAR c.ss06
ENCODING -1
SWIDTH 513 0
DWIDTH 4 0
BBX 4 5 0 0
BITMAP
04
26
90
81
69
ENDCHAR
STARTCHAR d.ss06
ENCODING -1
SWIDTH 559 0
DWIDTH 4 0
BBX 5 6 0 0
BITMAP
0140
0540
6700
8200
8200
6A00
ENDCHAR
STARTCHAR g.ss06
ENCODING -1
SWIDTH 556 0
DWIDTH 4 0
BBX 4 7 0 -2
BITMAP
04
67
82
82
6A
05
64
ENDCHAR
STARTCHAR o.ss06
ENCODING -1
SWIDTH 564 0
DWIDTH 5 0
BBX 4 5 0 0
BITMAP
04
26
82
82
69
ENDCHAR
STARTCHAR p.ss06
ENCODING -1
SWIDTH 556 0
DWIDTH 4 0
BBX 4 7 0 -2
BITMAP
04
66
52
82
A9
80
40
ENDCHAR
STARTCHAR q.ss06
ENCODING -1
SWIDTH 563 0
DWIDTH 5 0
BBX 4 7 0 -2
BITMAP
04
27
82
82
6A
05
04
ENDCHAR
STARTCHAR e.ss07
ENCODING -1
SWIDTH 518 0
DWIDTH 4 0
BBX 4 5 0 0
BITMAP
04
26
AA
90
69
ENDCHAR
STARTCHAR g.ss07
ENCODING -1
SWIDTH 549 0
DWIDTH 4 0
BBX 4 7 0 -2
BITMAP
04
27
82
82
6A
09
64
ENDCHAR
STARTCHAR one.pnum
ENCODING -1
SWIDTH 425 0
DWIDTH 3 0
BBX 3 6 0 0
BITMAP
18
58
08
14
14
20
ENDCHAR
STARTCHAR ampersand.c2sc
ENCODING -1
SWIDTH 591 0
DWIDTH 5 0
BBX 4 5 0 0
BITMAP
18
29
29
9A
AA
ENDCHAR
STARTCHAR Lslash.c2sc
ENCODING -1
SWIDTH 454 0
DWIDTH 4 0
BBX 3 5 0 0
BITMAP
10
50
A0
80
A8
ENDCHAR
STARTCHAR AE.c2sc
ENCODING -1
SWIDTH 759 0
DWIDTH 6 0
BBX 6 5 0 0
BITMAP
02A0
0A00
2790
6900
8690
ENDCHAR
STARTCHAR Thorn.c2sc
ENCODING -1
SWIDTH 486 0
DWIDTH 4 0
BBX 4 5 0 0
BITMAP
10
68
56
A9
80
ENDCHAR
STARTCHAR Oslash.c2sc
ENCODING -1
SWIDTH 578 0
DWIDTH 5 0
BBX 5 5 0 0
BITMAP
1940
6300
8940
A200
A900
ENDCHAR
STARTCHAR Hbar.c2sc
ENCODING -1
SWIDTH 597 0
DWIDTH 5 0
BBX 5 5 0 0
BITMAP
1040
6A80
6A40
8200
8200
ENDCHAR
STARTCHAR Eng.c2sc
ENCODING -1
SWIDTH 597 0
DWIDTH 5 0
BBX 5 7 0 -2
BITMAP
1040
7140
5940
8A00
8300
0200
0900
ENDCHAR
STARTCHAR Dcroat.c2sc
ENCODING -1
SWIDTH 550 0
DWIDTH 4 0
BBX 4 5 0 0
BITMAP
24
52
F2
82
A8
ENDCHAR
STARTCHAR Eth.c2sc
ENCODING -1
SWIDTH 550 0
DWIDTH 4 0
BBX 4 5 0 0
BITMAP
24
52
F2
82
A8
ENDCHAR
STARTCHAR Tbar.c2sc
ENCODING -1
SWIDTH 507 0
DWIDTH 4 0
BBX 4 5 0 0
BITMAP
6A
18
3C
14
20
ENDCHAR
STARTCHAR Agrave.c2sc
ENCODING -1
SWIDTH 552 0
DWIDTH 4 0
BBX 4 6 0 0
BITMAP
08
04
1C
25
AA
82
ENDCHAR
STARTCHAR Aacute.c2sc
ENCODING -1
SWIDTH 552 0
DWIDTH 4 0
BBX 4 6 0 0
BITMAP
05
04
1C
25
AA
82
ENDCHAR
STARTCHAR Acircumflex.c2sc
ENCODING -1
SWIDTH 552 0
DWIDTH 4 0
BBX 4 6 0 0
BITMAP
09
04
1C
25
AA
82
ENDCHAR
STARTCHAR Atilde.c2sc
ENCODING -1
SWIDTH 552 0
DWIDTH 4 0
BBX 4 6 0 0
BITMAP
1A
04
1C
25
AA
82
ENDCHAR
STARTCHAR Adieresis.c2sc
ENCODING -1
SWIDTH 552 0
DWIDTH 4 0
BBX 4 6 0 0
BITMAP
15
04
1C
25
AA
82
ENDCHAR
STARTCHAR Aring.c2sc
ENCODING -1
SWIDTH 552 0
DWIDTH 4 0
BBX 4 7 0 0
BITMAP
04
05
08
1C
25
AA
82
ENDCHAR
STARTCHAR Aringacute.c2sc
ENCODING -1
SWIDTH 552 0
DWIDTH 4 0
BBX 4 7 0 0
BITMAP
01
04
0C
1C
25
AA
82
ENDCHAR
STARTCHAR Ccedilla.c2sc
ENCODING -1
SWIDTH 548 0
DWIDTH 4 0
BBX 4 7 0 -2
BITMAP
19
62
80
81
69
14
10
ENDCHAR
STARTCHAR Egrave.c2sc
ENCODING -1
SWIDTH 477 0
DWIDTH 4 0
BBX 4 6 0 0
BITMAP
08
29
50
68
80
A8
ENDCHAR
STARTCHAR Eacute.c2sc
ENCODING -1
SWIDTH 477 0
DWIDTH 4 0
BBX 4 6 0 0
BITMAP
05
29
50
68
80
A8
ENDCHAR
STARTCHAR Ecircumflex.c2sc
ENCODING -1
SWIDTH 477 0
DWIDTH 4 0
BBX 4 6 0 0
BITMAP
19
29
50
68
80
A8
ENDCHAR
STARTCHAR Edieresis.c2sc
ENCODING -1
SWIDTH 477 0
DWIDTH 4 0
BBX 4 6 0 0
BITMAP
11
29
50
68
80
A8
ENDCHAR
STARTCHAR Igrave.c2sc
ENCODING -1
SWIDTH 235 0
DWIDTH 2 0
BBX 2 6 0 0
BITMAP
50
10
50
50
80
80
ENDCHAR
STARTCHAR Iacute.c2sc
ENCODING -1
SWIDTH 235 0
DWIDTH 2 0
BBX 3 6 0 0
BITMAP
24
10
50
50
80
80
ENDCHAR
STARTCHAR Icircumflex.c2sc
ENCODING -1
SWIDTH 235 0
DWIDTH 2 0
BBX 3 6 0 0
BITMAP
64
10
50
50
80
80
ENDCHAR
STARTCHAR Idieresis.c2sc
ENCODING -1
SWIDTH 235 0
DWIDTH 2 0
BBX 3 6 0 0
BITMAP
44
10
50
50
80
80
ENDCHAR
STARTCHAR Ntilde.c2sc
ENCODING -1
SWIDTH 597 0
DWIDTH 5 0
BBX 5 6 0 0
BITMAP
1A00
1040
7140
5940
8A00
8300
ENDCHAR
STARTCHAR Ograve.c2sc
ENCODING -1
SWIDTH 578 0
DWIDTH 5 0
BBX 5 6 0 0
BITMAP
0800
1900
6200
8140
8200
6900
ENDCHAR
STARTCHAR Oacute.c2sc
ENCODING -1
SWIDTH 578 0
DWIDTH 5 0
BBX 5 6 0 0
BITMAP
0500
1900
6200
8140
8200
6900
ENDCHAR
STARTCHAR Ocircumflex.c2sc
ENCODING -1
SWIDTH 578 0
DWIDTH 5 0
BBX 5 6 0 0
BITMAP
0900
1900
6200
8140
8200
6900
ENDCHAR
STARTCHAR Otilde.c2sc
ENCODING -1
SWIDTH 578 0
DWIDTH 5 0
BBX 5 6 0 0
BITMAP
1A00
1900
6200
8140
8200
6900
ENDCHAR
STARTCHAR Odieresis.c2sc
ENCODING -1
SWIDTH 578 0
DWIDTH 5 0
BBX 5 6 0 0
BITMAP
1500
1900
6200
8140
8200
6900
ENDCHAR
STARTCHAR Ugrave.c2sc
ENCODING -1
SWIDTH 548 0
DWIDTH 4 0
BBX 4 6 0 0
BITMAP
08
11
52
52
82
69
ENDCHAR
STARTCHAR Uacute.c2sc
ENCODING -1
SWIDTH 548 0
DWIDTH 4 0
BBX 4 6 0 0
BITMAP
05
11
52
52
82
69
ENDCHAR
STARTCHAR Ucircumflex.c2sc
ENCODING -1
SWIDTH 548 0
DWIDTH 4 0
BBX 4 6 0 0
BITMAP
09
11
52
52
82
69
ENDCHAR
STARTCHAR Udieresis.c2sc
ENCODING -1
SWIDTH 548 0
DWIDTH 4 0
BBX 4 6 0 0
BITMAP
15
11
52
52
82
69
ENDCHAR
STARTCHAR Yacute.c2sc
ENCODING -1
SWIDTH 510 0
DWIDTH 4 0
BBX 4 6 0 0
BITMAP
05
41
26
28
24
20
ENDCHAR
STARTCHAR Amacron.c2sc
ENCODING -1
SWIDTH 552 0
DWIDTH 4 0
BBX 4 6 0 0
BITMAP
1A
04
1C
25
AA
82
ENDCHAR
STARTCHAR Abreve.c2sc
ENCODING -1
SWIDTH 552 0
DWIDTH 4 0
BBX 4 6 0 0
BITMAP
1A
08
1C
25
AA
82
ENDCHAR
STARTCHAR Aogonek.c2sc
ENCODING -1
SWIDTH 552 0
DWIDTH 4 0
BBX 4 7 0 -2
BITMAP
04
1C
25
AA
82
05
05
ENDCHAR
STARTCHAR Cacute.c2sc
ENCODING -1
SWIDTH 548 0
DWIDTH 4 0
BBX 4 6 0 0
BITMAP
05
19
62
80
81
69
ENDCHAR
STARTCHAR Ccircumflex.c2sc
ENCODING -1
SWIDTH 548 0
DWIDTH 4 0
BBX 4 6 0 0
BITMAP
09
19
62
80
81
69
ENDCHAR
STARTCHAR Cdotaccent.c2sc
ENCODING -1
SWIDTH 548 0
DWIDTH 4 0
BBX 4 6 0 0
BITMAP
04
19
62
80
81
69
ENDCHAR
STARTCHAR Ccaron.c2sc
ENCODING -1
SWIDTH 548 0
DWIDTH 4 0
BBX 4 6 0 0
BITMAP
09
19
62
80
81
69
ENDCHAR
STARTCHAR Dcaron.c2sc
ENCODING -1
SWIDTH 550 0
DWIDTH 4 0
BBX 4 6 0 0
BITMAP
19
24
52
52
82
A8
ENDCHAR
STARTCHAR Emacron.c2sc
ENCODING -1
SWIDTH 477 0
DWIDTH 4 0
BBX 4 6 0 0
BITMAP
19
29
50
68
80
A8
ENDCHAR
STARTCHAR Ebreve.c2sc
ENCODING -1
SWIDTH 477 0
DWIDTH 4 0
BBX 4 6 0 0
BITMAP
19
29
50
68
80
A8
ENDCHAR
STARTCHAR Edotaccent.c2sc
ENCODING -1
SWIDTH 477 0
DWIDTH 4 0
BBX 4 6 0 0
BITMAP
04
29
50
68
80
A8
ENDCHAR
STARTCHAR Eogonek.c2sc
ENCODING -1
SWIDTH 477 0
DWIDTH 4 0
BBX 4 7 0 -2
BITMAP
29
50
68
80
A8
14
14
ENDCHAR
STARTCHAR Ecaron.c2sc
ENCODING -1
SWIDTH 477 0
DWIDTH 4 0
BBX 4 6 0 0
BITMAP
09
29
50
68
80
A8
ENDCHAR
STARTCHAR Gcircumflex.c2sc
ENCODING -1
SWIDTH 571 0
DWIDTH 5 0
BBX 4 6 0 0
BITMAP
09
19
62
85
86
6A
ENDCHAR
STARTCHAR Gbreve.c2sc
ENCODING -1
SWIDTH 571 0
DWIDTH 5 0
BBX 4 6 0 0
BITMAP
0A
19
62
85
86
6A
ENDCHAR
STARTCHAR Gdotaccent.c2sc
ENCODING -1
SWIDTH 571 0
DWIDTH 5 0
BBX 4 6 0 0
BITMAP
04
19
62
85
86
6A
ENDCHAR
STARTCHAR uni0122.c2sc
ENCODING -1
SWIDTH 571 0
DWIDTH 5 0
BBX 4 7 0 -2
BITMAP
19
62
85
86
6A
10
20
ENDCHAR
STARTCHAR Hcircumflex.c2sc
ENCODING -1
SWIDTH 597 0
DWIDTH 5 0
BBX 5 6 0 0
BITMAP
0A00
1040
5140
6A40
8200
8200
ENDCHAR
STARTCHAR Itilde.c2sc
ENCODING -1
SWIDTH 235 0
DWIDTH 2 0
BBX 3 6 0 0
BITMAP
A8
10
50
50
80
80
ENDCHAR
STARTCHAR Imacron.c2sc
ENCODING -1
SWIDTH 235 0
DWIDTH 2 0
BBX 3 6 0 0
BITMAP
64
10
50
50
80
80
ENDCHAR
STARTCHAR Ibreve.c2sc
ENCODING -1
SWIDTH 235 0
DWIDTH 2 0
BBX 3 6 0 0
BITMAP
54
10
50
50
80
80
ENDCHAR
STARTCHAR Iogonek.c2sc
ENCODING -1
SWIDTH 235 0
DWIDTH 2 0
BBX 3 7 -1 -2
BITMAP
04
14
14
20
20
50
50
ENDCHAR
STARTCHAR Idotaccent.c2sc
ENCODING -1
SWIDTH 235 0
DWIDTH 2 0
BBX 2 6 0 0
BITMAP
10
10
50
50
80
80
ENDCHAR
STARTCHAR Jcircumflex.c2sc
ENCODING -1
SWIDTH 466 0
DWIDTH 4 0
BBX 4 6 0 0
BITMAP
06
01
05
05
48
A8
ENDCHAR
STARTCHAR uni0136.c2sc
ENCODING -1
SWIDTH 529 0
DWIDTH 4 0
BBX 4 7 0 -2
BITMAP
11
59
78
98
85
10
10
ENDCHAR
STARTCHAR Lacute.c2sc
ENCODING -1
SWIDTH 454 0
DWIDTH 4 0
BBX 3 6 0 0
BITMAP
24
10
50
50
80
A8
ENDCHAR
STARTCHAR uni013B.c2sc
ENCODING -1
SWIDTH 454 0
DWIDTH 4 0
BBX 3 7 0 -2
BITMAP
10
50
50
80
A8
10
10
ENDCHAR
STARTCHAR Lcaron.c2sc
ENCODING -1
SWIDTH 454 0
DWIDTH 4 0
BBX 3 5 0 0
BITMAP
14
58
50
80
A8
ENDCHAR
STARTCHAR Ldot.c2sc
ENCODING -1
SWIDTH 454 0
DWIDTH 4 0
BBX 3 5 0 0
BITMAP
10
50
54
80
A8
ENDCHAR
STARTCHAR Nacute.c2sc
ENCODING -1
SWIDTH 597 0
DWIDTH 5 0
BBX 5 6 0 0
BITMAP
0600
1040
7140
5940
8A00
8300
ENDCHAR
STARTCHAR uni0145.c2sc
ENCODING -1
SWIDTH 597 0
DWIDTH 5 0
BBX 5 7 0 -2
BITMAP
1040
7140
5940
8A00
8300
1000
2000
ENDCHAR
STARTCHAR Ncaron.c2sc
ENCODING -1
SWIDTH 597 0
DWIDTH 5 0
BBX 5 6 0 0
BITMAP
0900
1040
7140
5940
8A00
8300
ENDCHAR
STARTCHAR Omacron.c2sc
ENCODING -1
SWIDTH 578 0
DWIDTH 5 0
BBX 5 6 0 0
BITMAP
1A00
1900
6200
8140
8200
6900
ENDCHAR
STARTCHAR Obreve.c2sc
ENCODING -1
SWIDTH 578 0
DWIDTH 5 0
BBX 5 6 0 0
BITMAP
0A00
1900
6200
8140
8200
6900
ENDCHAR
STARTCHAR Ohungarumlaut.c2sc
ENCODING -1
SWIDTH 578 0
DWIDTH 5 0
BBX 5 6 0 0
BITMAP
0A40
1900
6200
8140
8200
6900
ENDCHAR
STARTCHAR Racute.c2sc
ENCODING -1
SWIDTH 524 0
DWIDTH 4 0
BBX 4 6 0 0
BITMAP
09
29
52
66
98
85
ENDCHAR
STARTCHAR uni0156.c2sc
ENCODING -1
SWIDTH 524 0
DWIDTH 4 0
BBX 4 7 0 -2
BITMAP
29
52
66
98
85
10
10
ENDCHAR
STARTCHAR Rcaron.c2sc
ENCODING -1
SWIDTH 524 0
DWIDTH 4 0
BBX 4 6 0 0
BITMAP
19
29
52
66
98
85
ENDCHAR
STARTCHAR Sacute.c2sc
ENCODING -1
SWIDTH 504 0
DWIDTH 4 0
BBX 4 6 0 0
BITMAP
05
19
52
24
45
A9
ENDCHAR
STARTCHAR Scircumflex.c2sc
ENCODING -1
SWIDTH 504 0
DWIDTH 4 0
BBX 4 6 0 0
BITMAP
19
19
52
24
45
A9
ENDCHAR
STARTCHAR Scedilla.c2sc
ENCODING -1
SWIDTH 504 0
DWIDTH 4 0
BBX 4 7 0 -2
BITMAP
19
52
24
45
A9
14
10
ENDCHAR
STARTCHAR Scaron.c2sc
ENCODING -1
SWIDTH 504 0
DWIDTH 4 0
BBX 4 6 0 0
BITMAP
09
19
52
24
45
A9
ENDCHAR
STARTCHAR uni021A.c2sc
ENCODING -1
SWIDTH 507 0
DWIDTH 4 0
BBX 4 7 0 -2
BITMAP
6A
18
14
14
20
10
10
ENDCHAR
STARTCHAR Tcaron.c2sc
ENCODING -1
SWIDTH 507 0
DWIDTH 4 0
BBX 4 6 0 0
BITMAP
09
6A
18
14
14
20
ENDCHAR
STARTCHAR uni0162.c2sc
ENCODING -1
SWIDTH 507 0
DWIDTH 4 0
BBX 4 7 0 -2
BITMAP
6A
18
14
14
20
20
10
ENDCHAR
STARTCHAR Utilde.c2sc
ENCODING -1
SWIDTH 548 0
DWIDTH 4 0
BBX 4 6 0 0
BITMAP
1A
11
52
52
82
69
ENDCHAR
STARTCHAR Umacron.c2sc
ENCODING -1
SWIDTH 548 0
DWIDTH 4 0
BBX 4 6 0 0
BITMAP
1A
11
52
52
82
69
ENDCHAR
STARTCHAR Ubreve.c2sc
ENCODING -1
SWIDTH 548 0
DWIDTH 4 0
BBX 4 6 0 0
BITMAP
1A
11
52
52
82
69
ENDCHAR
STARTCHAR Uring.c2sc
ENCODING -1
SWIDTH 548 0
DWIDTH 4 0
BBX 4 7 0 0
BITMAP
04
05
11
52
52
82
69
ENDCHAR
STARTCHAR Uhungarumlaut.c2sc
ENCODING -1
SWIDTH 548 0
DWIDTH 4 0
BBX 4 6 0 0
BITMAP
0A
11
52
52
82
69
ENDCHAR
STARTCHAR Uogonek.c2sc
ENCODING -1
SWIDTH 548 0
DWIDTH 4 0
BBX 4 7 0 -2
BITMAP
11
52
52
82
69
24
14
ENDCHAR
STARTCHAR Wcircumflex.c2sc
ENCODING -1
SWIDTH 742 0
DWIDTH 6 0
BBX 6 6 0 0
BITMAP
0640
4110
5620
5A50
6680
2140
ENDCHAR
STARTCHAR Ycircumflex.c2sc
ENCODING -1
SWIDTH 510 0
DWIDTH 4 0
BBX 4 6 0 0
BITMAP
19
41
26
28
24
20
ENDCHAR
STARTCHAR Ydieresis.c2sc
ENCODING -1
SWIDTH 510 0
DWIDTH 4 0
BBX 4 6 0 0
BITMAP
11
41
26
28
24
20
ENDCHAR
STARTCHAR Zacute.c2sc
ENCODING -1
SWIDTH 506 0
DWIDTH 4 0
BBX 4 6 0 0
BITMAP
05
6A
05
18
60
E9
ENDCHAR
STARTCHAR Zdotaccent.c2sc
ENCODING -1
SWIDTH 506 0
DWIDTH 4 0
BBX 4 6 0 0
BITMAP
04
6A
05
18
60
E9
ENDCHAR
STARTCHAR Zcaron.c2sc
ENCODING -1
SWIDTH 506 0
DWIDTH 4 0
BBX 4 6 0 0
BITMAP
09
6A
05
18
60
E9
ENDCHAR
STARTCHAR two.pnum
ENCODING -1
SWIDTH 549 0
DWIDTH 4 0
BBX 4 6 0 0
BITMAP
19
62
02
08
20
A9
ENDCHAR
STARTCHAR three.pnum
ENCODING -1
SWIDTH 549 0
DWIDTH 4 0
BBX 4 6 0 0
BITMAP
19
22
06
19
42
69
ENDCHAR
STARTCHAR four.pnum
ENCODING -1
SWIDTH 549 0
DWIDTH 4 0
BBX 4 6 0 0
BITMAP
02
0A
16
55
AA
08
ENDCHAR
STARTCHAR five.pnum
ENCODING -1
SWIDTH 549 0
DWIDTH 4 0
BBX 5 6 0 0
BITMAP
1A40
2000
2900
1200
4200
6900
ENDCHAR
STARTCHAR six.pnum
ENCODING -1
SWIDTH 559 0
DWIDTH 4 0
BBX 4 6 0 0
BITMAP
05
24
29
52
52
29
ENDCHAR
STARTCHAR eight.pnum
ENCODING -1
SWIDTH 569 0
DWIDTH 5 0
BBX 5 6 0 0
BITMAP
1A00
2240
2600
2600
8200
6900
ENDCHAR
STARTCHAR nine.pnum
ENCODING -1
SWIDTH 559 0
DWIDTH 4 0
BBX 4 6 0 0
BITMAP
19
22
52
2A
05
28
ENDCHAR
STARTCHAR zero.pnum
ENCODING -1
SWIDTH 569 0
DWIDTH 5 0
BBX 5 6 0 0
BITMAP
1A00
2200
5240
5200
5200
6900
ENDCHAR
STARTCHAR G_acutecomb.ccmp
ENCODING -1
SWIDTH 665 0
DWIDTH 5 0
BBX 5 7 0 0
BITMAP
0200
0A40
2080
5000
5280
5080
2A40
ENDCHAR
STARTCHAR g_acutecomb.ccmp
ENCODING -1
SWIDTH 549 0
DWIDTH 4 0
BBX 4 8 0 -2
BITMAP
05
04
67
82
82
6A
49
64
ENDCHAR
STARTCHAR N_gravecomb.ccmp
ENCODING -1
SWIDTH 696 0
DWIDTH 6 0
BBX 6 7 0 0
BITMAP
0100
2050
3450
2880
5580
9280
8180
ENDCHAR
STARTCHAR n_gravecomb.ccmp
ENCODING -1
SWIDTH 540 0
DWIDTH 4 0
BBX 4 6 0 0
BITMAP
08
04
66
52
82
85
ENDCHAR
STARTCHAR A_uni030F.ccmp
ENCODING -1
SWIDTH 637 0
DWIDTH 5 0
BBX 5 7 0 0
BITMAP
0A00
0500
0A00
1600
2200
6A40
8140
ENDCHAR
STARTCHAR a_uni030F.ccmp
ENCODING -1
SWIDTH 532 0
DWIDTH 4 0
BBX 4 6 0 0
BITMAP
28
04
26
1A
86
A9
ENDCHAR
STARTCHAR E_uni030F.ccmp
ENCODING -1
SWIDTH 556 0
DWIDTH 4 0
BBX 5 7 0 0
BITMAP
1900
2A40
2000
2500
6500
9000
A900
ENDCHAR
STARTCHAR e_uni030F.ccmp
ENCODING -1
SWIDTH 518 0
DWIDTH 4 0
BBX 4 6 0 0
BITMAP
28
04
26
AA
90
69
ENDCHAR
STARTCHAR I_uni030F.ccmp
ENCODING -1
SWIDTH 268 0
DWIDTH 2 0
BBX 3 7 0 0
BITMAP
64
10
20
20
50
50
80
ENDCHAR
STARTCHAR dotlessi_uni030F.ccmp
ENCODING -1
SWIDTH 244 0
DWIDTH 2 0
BBX 2 6 0 0
BITMAP
A0
10
50
50
80
80
ENDCHAR
STARTCHAR O_uni030F.ccmp
ENCODING -1
SWIDTH 671 0
DWIDTH 5 0
BBX 5 7 0 0
BITMAP
0A00
0A40
2080
5080
5080
5180
2A00
ENDCHAR
STARTCHAR o_uni030F.ccmp
ENCODING -1
SWIDTH 558 0
DWIDTH 4 0
BBX 4 6 0 0
BITMAP
28
04
26
82
82
69
ENDCHAR
STARTCHAR R_uni030F.ccmp
ENCODING -1
SWIDTH 602 0
DWIDTH 5 0
BBX 5 7 0 0
BITMAP
1900
2A00
2180
2180
6A00
9200
8200
ENDCHAR
STARTCHAR r_uni030F.ccmp
ENCODING -1
SWIDTH 333 0
DWIDTH 3 0
BBX 3 6 0 0
BITMAP
64
14
64
50
80
80
ENDCHAR
STARTCHAR U_uni030F.ccmp
ENCODING -1
SWIDTH 633 0
DWIDTH 5 0
BBX 5 7 0 0
BITMAP
0A00
1040
2080
5080
5080
5140
2A00
ENDCHAR
STARTCHAR u_uni030F.ccmp
ENCODING -1
SWIDTH 539 0
DWIDTH 4 0
BBX 4 6 0 0
BITMAP
28
11
52
52
82
69
ENDCHAR
STARTCHAR Upsilon1_acutecomb.ccmp
ENCODING -1
SWIDTH 569 0
DWIDTH 5 0
BBX 6 6 -1 0
BITMAP
5820
0990
0680
0300
0200
0600
ENDCHAR
STARTCHAR B_dotbelowcomb.ccmp
ENCODING -1
SWIDTH 608 0
DWIDTH 5 0
BBX 5 7 0 -1
BITMAP
2A00
2180
2640
6600
9240
AA00
1000
ENDCHAR
STARTCHAR b_dotbelowcomb.ccmp
ENCODING -1
SWIDTH 549 0
DWIDTH 4 0
BBX 4 8 0 -2
BITMAP
20
24
66
52
82
A9
10
10
ENDCHAR
STARTCHAR D_dotbelowcomb.ccmp
ENCODING -1
SWIDTH 641 0
DWIDTH 5 0
BBX 5 7 0 -1
BITMAP
2900
2180
2080
5080
9240
A900
1000
ENDCHAR
STARTCHAR d_dotbelowcomb.ccmp
ENCODING -1
SWIDTH 551 0
DWIDTH 4 0
BBX 5 8 0 -2
BITMAP
0140
0640
6700
8200
8200
6A00
1000
1000
ENDCHAR
STARTCHAR D_uniF6C3.ccmp
ENCODING -1
SWIDTH 641 0
DWIDTH 5 0
BBX 5 8 0 -2
BITMAP
2900
2180
2080
5080
9240
A900
1000
2000
ENDCHAR
STARTCHAR d_uniF6C3.ccmp
ENCODING -1
SWIDTH 551 0
DWIDTH 4 0
BBX 5 8 0 -2
BITMAP
0140
0640
6700
8200
8200
6A00
1000
2000
ENDCHAR
STARTCHAR H_dotbelowcomb.ccmp
ENCODING -1
SWIDTH 696 0
DWIDTH 6 0
BBX 6 7 0 -1
BITMAP
2050
2050
2580
6580
9080
8080
0400
ENDCHAR
STARTCHAR h_dotbelowcomb.ccmp
ENCODING -1
SWIDTH 539 0
DWIDTH 4 0
BBX 4 8 0 -2
BITMAP
20
24
66
52
82
85
10
10
ENDCHAR
STARTCHAR K_acutecomb.ccmp
ENCODING -1
SWIDTH 612 0
DWIDTH 5 0
BBX 5 7 0 0
BITMAP
0200
2080
2240
2800
7800
9600
8240
ENDCHAR
STARTCHAR k_acutecomb.ccmp
ENCODING -1
SWIDTH 496 0
DWIDTH 4 0
BBX 4 8 0 0
BITMAP
01
05
20
21
59
74
98
89
ENDCHAR
STARTCHAR K_dotbelowcomb.ccmp
ENCODING -1
SWIDTH 612 0
DWIDTH 5 0
BBX 5 7 0 -1
BITMAP
2080
2240
2800
7800
9600
8240
1400
ENDCHAR
STARTCHAR k_dotbelowcomb.ccmp
ENCODING -1
SWIDTH 496 0
DWIDTH 4 0
BBX 4 7 0 -1
BITMAP
20
21
59
74
98
89
10
ENDCHAR
STARTCHAR L_dotbelowcomb.ccmp
ENCODING -1
SWIDTH 526 0
DWIDTH 4 0
BBX 4 7 0 -1
BITMAP
20
20
20
50
90
A9
10
ENDCHAR
STARTCHAR l_dotbelowcomb.ccmp
ENCODING -1
SWIDTH 240 0
DWIDTH 2 0
BBX 2 8 0 -2
BITMAP
20
20
60
50
80
80
40
40
ENDCHAR
STARTCHAR M_dotbelowcomb.ccmp
ENCODING -1
SWIDTH 851 0
DWIDTH 7 0
BBX 7 7 0 -1
BITMAP
2014
3428
2864
58A0
9A20
8620
0400
ENDCHAR
STARTCHAR m_dotbelowcomb.ccmp
ENCODING -1
SWIDTH 854 0
DWIDTH 7 0
BBX 7 6 0 -1
BITMAP
0410
6764
5214
8220
8520
0400
ENDCHAR
STARTCHAR N_dotbelowcomb.ccmp
ENCODING -1
SWIDTH 696 0
DWIDTH 6 0
BBX 6 7 0 -1
BITMAP
2050
3450
2880
5580
9280
8180
0400
ENDCHAR
STARTCHAR n_dotbelowcomb.ccmp
ENCODING -1
SWIDTH 540 0
DWIDTH 4 0
BBX 4 7 0 -2
BITMAP
04
66
52
82
85
10
10
ENDCHAR
STARTCHAR O_tildecomb_acutecomb.ccmp
ENCODING -1
SWIDTH 671 0
DWIDTH 5 0
BBX 5 8 0 0
BITMAP
0100
0540
0A40
2080
5080
5080
5180
2A00
ENDCHAR
STARTCHAR P_acutecomb.ccmp
ENCODING -1
SWIDTH 616 0
DWIDTH 5 0
BBX 5 8 0 0
BITMAP
0100
0200
2A40
2080
2080
6A00
9000
8000
ENDCHAR
STARTCHAR p_acutecomb.ccmp
ENCODING -1
SWIDTH 549 0
DWIDTH 4 0
BBX 4 8 0 -2
BITMAP
02
04
66
52
82
A9
80
40
ENDCHAR
STARTCHAR R_dotbelowcomb.ccmp
ENCODING -1
SWIDTH 602 0
DWIDTH 5 0
BBX 5 7 0 -1
BITMAP
2A00
2180
2180
6A00
9200
8200
1000
ENDCHAR
STARTCHAR r_dotbelowcomb.ccmp
ENCODING -1
SWIDTH 333 0
DWIDTH 3 0
BBX 3 7 0 -2
BITMAP
04
64
50
80
80
40
40
ENDCHAR
STARTCHAR S_dotbelowcomb.ccmp
ENCODING -1
SWIDTH 580 0
DWIDTH 5 0
BBX 5 8 0 -2
BITMAP
1A00
2140
2400
0A00
4200
6A00
1000
1000
ENDCHAR
STARTCHAR s_dotbelowcomb.ccmp
ENCODING -1
SWIDTH 504 0
DWIDTH 4 0
BBX 4 7 0 -2
BITMAP
04
66
24
49
68
10
10
ENDCHAR
STARTCHAR T_dotbelowcomb.ccmp
ENCODING -1
SWIDTH 583 0
DWIDTH 5 0
BBX 5 8 0 -2
BITMAP
6A80
0800
0800
0800
1800
1400
1000
1000
ENDCHAR
STARTCHAR t_dotbelowcomb.ccmp
ENCODING -1
SWIDTH 321 0
DWIDTH 3 0
BBX 2 7 0 -1
BITMAP
10
20
60
60
50
60
10
ENDCHAR
STARTCHAR U_tildecomb_acutecomb.ccmp
ENCODING -1
SWIDTH 633 0
DWIDTH 5 0
BBX 5 8 0 0
BITMAP
0100
0500
1040
2080
5080
5080
5140
2A00
ENDCHAR
STARTCHAR V_tildecomb.ccmp
ENCODING -1
SWIDTH 622 0
DWIDTH 5 0
BBX 5 7 0 0
BITMAP
0A40
5040
2080
2240
2200
2900
1800
ENDCHAR
STARTCHAR v_tildecomb.ccmp
ENCODING -1
SWIDTH 474 0
DWIDTH 4 0
BBX 4 6 0 0
BITMAP
29
01
52
58
28
20
ENDCHAR
STARTCHAR V_dotbelowcomb.ccmp
ENCODING -1
SWIDTH 622 0
DWIDTH 5 0
BBX 5 7 0 -1
BITMAP
5040
2080
2240
2200
2900
1800
1000
ENDCHAR
STARTCHAR v_dotbelowcomb.ccmp
ENCODING -1
SWIDTH 474 0
DWIDTH 4 0
BBX 4 7 0 -2
BITMAP
01
52
58
28
20
10
10
ENDCHAR
STARTCHAR W_dotbelowcomb.ccmp
ENCODING -1
SWIDTH 865 0
DWIDTH 7 0
BBX 6 7 1 -1
BITMAP
4510
8920
9650
A280
A280
8240
1000
ENDCHAR
STARTCHAR w_dotbelowcomb.ccmp
ENCODING -1
SWIDTH 733 0
DWIDTH 6 0
BBX 6 7 0 -2
BITMAP
0010
5620
5A50
6680
2240
0400
0400
ENDCHAR
STARTCHAR Z_dotbelowcomb.ccmp
ENCODING -1
SWIDTH 585 0
DWIDTH 5 0
BBX 5 7 0 -1
BITMAP
2A80
0240
0900
1800
6000
EA00
1000
ENDCHAR
STARTCHAR z_dotbelowcomb.ccmp
ENCODING -1
SWIDTH 485 0
DWIDTH 4 0
BBX 4 7 0 -2
BITMAP
15
1A
18
60
E8
10
10
ENDCHAR
STARTCHAR Alphatonos.c2sc
ENCODING -1
SWIDTH 552 0
DWIDTH 4 0
BBX 4 5 0 0
BITMAP
24
1C
25
AA
82
ENDCHAR
STARTCHAR Epsilontonos.c2sc
ENCODING -1
SWIDTH 506 0
DWIDTH 4 0
BBX 4 5 0 0
BITMAP
5A
20
69
50
A9
ENDCHAR
STARTCHAR Etatonos.c2sc
ENCODING -1
SWIDTH 626 0
DWIDTH 5 0
BBX 5 5 0 0
BITMAP
9040
2080
6A40
5140
8200
ENDCHAR
STARTCHAR Iotatonos.c2sc
ENCODING -1
SWIDTH 265 0
DWIDTH 2 0
BBX 2 5 0 0
BITMAP
90
20
60
50
90
ENDCHAR
STARTCHAR Omicrontonos.c2sc
ENCODING -1
SWIDTH 583 0
DWIDTH 5 0
BBX 5 5 0 0
BITMAP
9900
6200
9140
8200
2900
ENDCHAR
STARTCHAR Upsilontonos.c2sc
ENCODING -1
SWIDTH 539 0
DWIDTH 4 0
BBX 6 5 -1 0
BITMAP
5450
0880
0A40
0500
0500
ENDCHAR
STARTCHAR Omegatonos.c2sc
ENCODING -1
SWIDTH 609 0
DWIDTH 5 0
BBX 5 5 0 0
BITMAP
9900
6140
5140
5200
A600
ENDCHAR
STARTCHAR Alpha.c2sc
ENCODING -1
SWIDTH 552 0
DWIDTH 4 0
BBX 4 5 0 0
BITMAP
04
1C
25
AA
82
ENDCHAR
STARTCHAR Beta.c2sc
ENCODING -1
SWIDTH 527 0
DWIDTH 4 0
BBX 4 5 0 0
BITMAP
29
52
69
86
A9
ENDCHAR
STARTCHAR Epsilon.c2sc
ENCODING -1
SWIDTH 477 0
DWIDTH 4 0
BBX 4 5 0 0
BITMAP
29
50
68
80
A8
ENDCHAR
STARTCHAR Zeta.c2sc
ENCODING -1
SWIDTH 506 0
DWIDTH 4 0
BBX 4 5 0 0
BITMAP
6A
05
18
60
E9
ENDCHAR
STARTCHAR Eta.c2sc
ENCODING -1
SWIDTH 597 0
DWIDTH 5 0
BBX 5 5 0 0
BITMAP
1040
5140
6A40
8200
8200
ENDCHAR
STARTCHAR Iota.c2sc
ENCODING -1
SWIDTH 235 0
DWIDTH 2 0
BBX 2 5 0 0
BITMAP
10
50
50
80
80
ENDCHAR
STARTCHAR Kappa.c2sc
ENCODING -1
SWIDTH 529 0
DWIDTH 4 0
BBX 4 5 0 0
BITMAP
11
59
78
98
85
ENDCHAR
STARTCHAR Mu.c2sc
ENCODING -1
SWIDTH 733 0
DWIDTH 6 0
BBX 6 5 0 0
BITMAP
1050
70A0
6590
9A80
8880
ENDCHAR
STARTCHAR Nu.c2sc
ENCODING -1
SWIDTH 597 0
DWIDTH 5 0
BBX 5 5 0 0
BITMAP
1040
7140
5940
8A00
8300
ENDCHAR
STARTCHAR Omicron.c2sc
ENCODING -1
SWIDTH 578 0
DWIDTH 5 0
BBX 5 5 0 0
BITMAP
1900
6200
8140
8200
6900
ENDCHAR
STARTCHAR Rho.c2sc
ENCODING -1
SWIDTH 533 0
DWIDTH 4 0
BBX 4 5 0 0
BITMAP
29
52
56
94
80
ENDCHAR
STARTCHAR Tau.c2sc
ENCODING -1
SWIDTH 507 0
DWIDTH 4 0
BBX 4 5 0 0
BITMAP
6A
18
14
14
20
ENDCHAR
STARTCHAR Upsilon.c2sc
ENCODING -1
SWIDTH 510 0
DWIDTH 4 0
BBX 4 5 0 0
BITMAP
41
26
28
24
20
ENDCHAR
STARTCHAR Chi.c2sc
ENCODING -1
SWIDTH 529 0
DWIDTH 4 0
BBX 4 5 0 0
BITMAP
11
26
18
28
85
ENDCHAR
STARTCHAR Iotadieresis.c2sc
ENCODING -1
SWIDTH 235 0
DWIDTH 2 0
BBX 3 6 0 0
BITMAP
44
10
50
50
80
80
ENDCHAR
STARTCHAR Upsilondieresis.c2sc
ENCODING -1
SWIDTH 510 0
DWIDTH 4 0
BBX 4 6 0 0
BITMAP
11
41
26
28
24
20
ENDCHAR
STARTCHAR uni0401.c2sc
ENCODING -1
SWIDTH 477 0
DWIDTH 4 0
BBX 4 6 0 0
BITMAP
11
29
50
68
80
A8
ENDCHAR
STARTCHAR uni0403.c2sc
ENCODING -1
SWIDTH 451 0
DWIDTH 4 0
BBX 4 6 0 0
BITMAP
05
29
50
50
80
80
ENDCHAR
STARTCHAR uni0405.c2sc
ENCODING -1
SWIDTH 504 0
DWIDTH 4 0
BBX 4 5 0 0
BITMAP
19
52
24
45
A9
ENDCHAR
STARTCHAR uni0406.c2sc
ENCODING -1
SWIDTH 235 0
DWIDTH 2 0
BBX 2 5 0 0
BITMAP
10
50
50
80
80
ENDCHAR
STARTCHAR uni0407.c2sc
ENCODING -1
SWIDTH 235 0
DWIDTH 2 0
BBX 3 6 0 0
BITMAP
44
10
50
50
80
80
ENDCHAR
STARTCHAR uni0408.c2sc
ENCODING -1
SWIDTH 466 0
DWIDTH 4 0
BBX 4 5 0 0
BITMAP
01
05
05
48
A8
ENDCHAR
STARTCHAR uni040C.c2sc
ENCODING -1
SWIDTH 529 0
DWIDTH 4 0
BBX 4 6 0 0
BITMAP
09
11
59
78
98
85
ENDCHAR
STARTCHAR uni040E.c2sc
ENCODING -1
SWIDTH 504 0
DWIDTH 4 0
BBX 4 6 0 0
BITMAP
19
51
62
28
28
60
ENDCHAR
STARTCHAR uni0410.c2sc
ENCODING -1
SWIDTH 552 0
DWIDTH 4 0
BBX 4 5 0 0
BITMAP
04
1C
25
AA
82
ENDCHAR
STARTCHAR uni0412.c2sc
ENCODING -1
SWIDTH 527 0
DWIDTH 4 0
BBX 4 5 0 0
BITMAP
29
52
69
86
A9
ENDCHAR
STARTCHAR uni0413.c2sc
ENCODING -1
SWIDTH 451 0
DWIDTH 4 0
BBX 4 5 0 0
BITMAP
29
50
50
80
80
ENDCHAR
STARTCHAR uni0415.c2sc
ENCODING -1
SWIDTH 477 0
DWIDTH 4 0
BBX 4 5 0 0
BITMAP
29
50
68
80
A8
ENDCHAR
STARTCHAR uni0419.c2sc
ENCODING -1
SWIDTH 601 0
DWIDTH 5 0
BBX 5 6 0 0
BITMAP
0A00
1140
5240
5940
A200
9200
ENDCHAR
STARTCHAR uni041C.c2sc
ENCODING -1
SWIDTH 733 0
DWIDTH 6 0
BBX 6 5 0 0
BITMAP
1050
70A0
6590
9A80
8880
ENDCHAR
STARTCHAR uni041D.c2sc
ENCODING -1
SWIDTH 597 0
DWIDTH 5 0
BBX 5 5 0 0
BITMAP
1040
5140
6A40
8200
8200
ENDCHAR
STARTCHAR uni041E.c2sc
ENCODING -1
SWIDTH 578 0
DWIDTH 5 0
BBX 5 5 0 0
BITMAP
1900
6200
8140
8200
6900
ENDCHAR
STARTCHAR uni041F.c2sc
ENCODING -1
SWIDTH 587 0
DWIDTH 5 0
BBX 5 5 0 0
BITMAP
2A40
5140
5240
8200
8200
ENDCHAR
STARTCHAR uni0420.c2sc
ENCODING -1
SWIDTH 533 0
DWIDTH 4 0
BBX 4 5 0 0
BITMAP
29
52
56
94
80
ENDCHAR
STARTCHAR uni0421.c2sc
ENCODING -1
SWIDTH 548 0
DWIDTH 4 0
BBX 4 5 0 0
BITMAP
19
62
80
81
69
ENDCHAR
STARTCHAR uni0422.c2sc
ENCODING -1
SWIDTH 507 0
DWIDTH 4 0
BBX 4 5 0 0
BITMAP
6A
18
14
14
20
ENDCHAR
STARTCHAR uni0425.c2sc
ENCODING -1
SWIDTH 529 0
DWIDTH 4 0
BBX 4 5 0 0
BITMAP
11
26
18
28
85
ENDCHAR
STARTCHAR uni0498.c2sc
ENCODING -1
SWIDTH 519 0
DWIDTH 4 0
BBX 4 7 0 -2
BITMAP
19
52
19
45
A9
20
10
ENDCHAR
STARTCHAR uni04A2.c2sc
ENCODING -1
SWIDTH 597 0
DWIDTH 5 0
BBX 5 7 0 -2
BITMAP
1040
5140
6A40
8200
8240
0140
0100
ENDCHAR
STARTCHAR uni04AA.c2sc
ENCODING -1
SWIDTH 548 0
DWIDTH 4 0
BBX 4 7 0 -2
BITMAP
19
62
90
81
69
20
10
ENDCHAR
STARTCHAR uni04AE.c2sc
ENCODING -1
SWIDTH 510 0
DWIDTH 4 0
BBX 4 5 0 0
BITMAP
41
26
28
24
20
ENDCHAR
STARTCHAR uni04BE.c2sc
ENCODING -1
SWIDTH 703 0
DWIDTH 6 0
BBX 6 7 0 -2
BITMAP
0640
5880
7A90
2000
1A40
0500
0400
ENDCHAR
STARTCHAR uni04E2.c2sc
ENCODING -1
SWIDTH 601 0
DWIDTH 5 0
BBX 5 6 0 0
BITMAP
1A00
1040
5240
5940
A200
9200
ENDCHAR
STARTCHAR uni04EE.c2sc
ENCODING -1
SWIDTH 504 0
DWIDTH 4 0
BBX 4 6 0 0
BITMAP
19
51
62
28
28
60
ENDCHAR
STARTCHAR uni0424.c2sc
ENCODING -1
SWIDTH 660 0
DWIDTH 5 0
BBX 5 5 0 0
BITMAP
0500
2A40
9880
5980
1D00
ENDCHAR
STARTCHAR IJ.c2sc
ENCODING -1
SWIDTH 702 0
DWIDTH 6 0
BBX 6 5 0 0
BITMAP
1010
5050
5080
8480
8A80
ENDCHAR
STARTCHAR AEacute.c2sc
ENCODING -1
SWIDTH 759 0
DWIDTH 6 0
BBX 6 6 0 0
BITMAP
0080
02A0
0A00
2790
6900
8690
ENDCHAR
STARTCHAR Oslashacute.c2sc
ENCODING -1
SWIDTH 578 0
DWIDTH 5 0
BBX 5 6 0 0
BITMAP
0500
1940
6300
8940
A200
A900
ENDCHAR
STARTCHAR uni0218.c2sc
ENCODING -1
SWIDTH 504 0
DWIDTH 4 0
BBX 4 7 0 -2
BITMAP
19
52
24
45
A9
10
20
ENDCHAR
STARTCHAR Wgrave.c2sc
ENCODING -1
SWIDTH 742 0
DWIDTH 6 0
BBX 6 6 0 0
BITMAP
0200
4110
5620
5A50
6680
2140
ENDCHAR
STARTCHAR Wacute.c2sc
ENCODING -1
SWIDTH 742 0
DWIDTH 6 0
BBX 6 6 0 0
BITMAP
0240
4110
5620
5A50
6680
2140
ENDCHAR
STARTCHAR Wdieresis.c2sc
ENCODING -1
SWIDTH 742 0
DWIDTH 6 0
BBX 6 6 0 0
BITMAP
0440
4110
5620
5A50
6680
2140
ENDCHAR
STARTCHAR Ygrave.c2sc
ENCODING -1
SWIDTH 510 0
DWIDTH 4 0
BBX 4 6 0 0
BITMAP
08
41
26
28
24
20
ENDCHAR
STARTCHAR Aogonek.locl
ENCODING -1
SWIDTH 637 0
DWIDTH 5 0
BBX 5 8 0 -2
BITMAP
0500
0A00
1600
2200
6A40
8140
2000
1400
ENDCHAR
STARTCHAR aogonek.locl
ENCODING -1
SWIDTH 532 0
DWIDTH 4 0
BBX 4 7 0 -2
BITMAP
04
26
1A
86
A9
50
50
ENDCHAR
STARTCHAR Eogonek.locl
ENCODING -1
SWIDTH 556 0
DWIDTH 4 0
BBX 5 8 0 -2
BITMAP
2A40
2000
2500
6500
9000
A900
2000
2000
ENDCHAR
STARTCHAR eogonek.locl
ENCODING -1
SWIDTH 518 0
DWIDTH 4 0
BBX 4 7 0 -2
BITMAP
04
26
AA
90
69
20
20
ENDCHAR
STARTCHAR Aogonek.c2sc.locl
ENCODING -1
SWIDTH 552 0
DWIDTH 4 0
BBX 4 7 0 -2
BITMAP
04
1C
25
AA
82
20
20
ENDCHAR
STARTCHAR Eogonek.c2sc.locl
ENCODING -1
SWIDTH 477 0
DWIDTH 4 0
BBX 4 7 0 -2
BITMAP
29
50
68
80
A8
50
50
ENDCHAR
STARTCHAR glyph1293
ENCODING -1
SWIDTH 244 0
DWIDTH 2 0
BBX 2 6 0 -2
BITMAP
50
50
80
80
40
40
ENDCHAR
ENDFONT
